<svg xmlns="http://www.w3.org/2000/svg" xmlns:xlink="http://www.w3.org/1999/xlink" width="250" zoomAndPan="magnify" viewBox="0 0 187.5 112.499997" height="150" preserveAspectRatio="xMidYMid meet" version="1.0"><defs><g/><clipPath id="caa69b5c04"><path d="M 62.046875 27.171875 L 142.15625 27.171875 L 142.15625 80.328125 L 62.046875 80.328125 Z M 62.046875 27.171875 " clip-rule="nonzero"/></clipPath><clipPath id="be107abb8f"><path d="M 136.445312 53.890625 L 152.167969 53.890625 L 152.167969 62.128906 L 136.445312 62.128906 Z M 136.445312 53.890625 " clip-rule="nonzero"/></clipPath><clipPath id="db0dd42213"><path d="M 136.632812 52.726562 L 147.113281 52.726562 L 147.113281 59.464844 L 136.632812 59.464844 Z M 136.632812 52.726562 " clip-rule="nonzero"/></clipPath></defs><g clip-path="url(#caa69b5c04)"><path fill="#e7b75f" d="M 124.195312 37.71875 L 125.515625 41.066406 L 131.832031 36.875 L 121.824219 49.058594 L 114.71875 39.089844 L 103.035156 56.800781 L 96.109375 45.144531 L 80.730469 67.195312 L 75.550781 57.691406 L 62.125 77.976562 L 64.675781 80.316406 L 75.273438 64.371094 L 80.386719 73.75 L 95.886719 51.523438 L 102.890625 63.308594 L 114.824219 45.214844 L 121.640625 54.773438 L 135.011719 38.5 L 132.226562 45.296875 L 135.503906 46.195312 L 142.078125 27.164062 L 124.195312 37.71875 " fill-opacity="1" fill-rule="nonzero"/></g><g fill="#000000" fill-opacity="1"><g transform="translate(45.990653, 72.621231)"><g><path d="M 11.578125 0.34375 C 9.710938 0.34375 8.0625 -0.0351562 6.625 -0.796875 C 5.195312 -1.554688 4.085938 -2.625 3.296875 -4 C 2.503906 -5.375 2.109375 -6.96875 2.109375 -8.78125 L 2.109375 -21.4375 C 2.109375 -23.25 2.503906 -24.832031 3.296875 -26.1875 C 4.085938 -27.550781 5.195312 -28.609375 6.625 -29.359375 C 8.0625 -30.109375 9.710938 -30.484375 11.578125 -30.484375 C 13.441406 -30.484375 15.09375 -30.113281 16.53125 -29.375 C 17.96875 -28.644531 19.078125 -27.613281 19.859375 -26.28125 C 20.648438 -24.945312 21.046875 -23.390625 21.046875 -21.609375 L 21.046875 -21.34375 C 21.046875 -21.207031 20.992188 -21.082031 20.890625 -20.96875 C 20.796875 -20.851562 20.675781 -20.796875 20.53125 -20.796875 L 16.53125 -20.625 C 16.1875 -20.625 16.015625 -20.796875 16.015625 -21.140625 L 16.015625 -21.65625 C 16.015625 -23 15.601562 -24.085938 14.78125 -24.921875 C 13.96875 -25.753906 12.898438 -26.171875 11.578125 -26.171875 C 10.234375 -26.171875 9.148438 -25.753906 8.328125 -24.921875 C 7.515625 -24.085938 7.109375 -23 7.109375 -21.65625 L 7.109375 -8.4375 C 7.109375 -7.082031 7.515625 -5.992188 8.328125 -5.171875 C 9.148438 -4.359375 10.234375 -3.953125 11.578125 -3.953125 C 12.898438 -3.953125 13.96875 -4.359375 14.78125 -5.171875 C 15.601562 -5.992188 16.015625 -7.082031 16.015625 -8.4375 L 16.015625 -9 C 16.015625 -9.3125 16.1875 -9.46875 16.53125 -9.46875 L 20.53125 -9.296875 C 20.675781 -9.296875 20.796875 -9.242188 20.890625 -9.140625 C 20.992188 -9.046875 21.046875 -8.925781 21.046875 -8.78125 L 21.046875 -8.609375 C 21.046875 -6.828125 20.648438 -5.253906 19.859375 -3.890625 C 19.078125 -2.523438 17.96875 -1.476562 16.53125 -0.75 C 15.09375 -0.0195312 13.441406 0.34375 11.578125 0.34375 Z M 11.578125 0.34375 "/></g></g></g><g fill="#000000" fill-opacity="1"><g transform="translate(68.92936, 72.621231)"><g><path d="M 3.265625 0 C 3.128906 0 3.007812 -0.046875 2.90625 -0.140625 C 2.800781 -0.242188 2.75 -0.367188 2.75 -0.515625 L 2.75 -29.609375 C 2.75 -29.753906 2.800781 -29.878906 2.90625 -29.984375 C 3.007812 -30.085938 3.128906 -30.140625 3.265625 -30.140625 L 7.234375 -30.140625 C 7.378906 -30.140625 7.5 -30.085938 7.59375 -29.984375 C 7.695312 -29.878906 7.75 -29.753906 7.75 -29.609375 L 7.75 -0.515625 C 7.75 -0.367188 7.695312 -0.242188 7.59375 -0.140625 C 7.5 -0.046875 7.378906 0 7.234375 0 Z M 3.265625 0 "/></g></g></g><g fill="#000000" fill-opacity="1"><g transform="translate(79.387344, 72.621231)"><g><path d="M 11.578125 0.34375 C 9.710938 0.34375 8.0625 -0.0351562 6.625 -0.796875 C 5.195312 -1.554688 4.085938 -2.625 3.296875 -4 C 2.503906 -5.375 2.109375 -6.96875 2.109375 -8.78125 L 2.109375 -21.4375 C 2.109375 -23.25 2.503906 -24.832031 3.296875 -26.1875 C 4.085938 -27.550781 5.195312 -28.609375 6.625 -29.359375 C 8.0625 -30.109375 9.710938 -30.484375 11.578125 -30.484375 C 13.441406 -30.484375 15.09375 -30.113281 16.53125 -29.375 C 17.96875 -28.644531 19.078125 -27.613281 19.859375 -26.28125 C 20.648438 -24.945312 21.046875 -23.390625 21.046875 -21.609375 L 21.046875 -21.34375 C 21.046875 -21.207031 20.992188 -21.082031 20.890625 -20.96875 C 20.796875 -20.851562 20.675781 -20.796875 20.53125 -20.796875 L 16.53125 -20.625 C 16.1875 -20.625 16.015625 -20.796875 16.015625 -21.140625 L 16.015625 -21.65625 C 16.015625 -23 15.601562 -24.085938 14.78125 -24.921875 C 13.96875 -25.753906 12.898438 -26.171875 11.578125 -26.171875 C 10.234375 -26.171875 9.148438 -25.753906 8.328125 -24.921875 C 7.515625 -24.085938 7.109375 -23 7.109375 -21.65625 L 7.109375 -8.4375 C 7.109375 -7.082031 7.515625 -5.992188 8.328125 -5.171875 C 9.148438 -4.359375 10.234375 -3.953125 11.578125 -3.953125 C 12.898438 -3.953125 13.96875 -4.359375 14.78125 -5.171875 C 15.601562 -5.992188 16.015625 -7.082031 16.015625 -8.4375 L 16.015625 -9 C 16.015625 -9.3125 16.1875 -9.46875 16.53125 -9.46875 L 20.53125 -9.296875 C 20.675781 -9.296875 20.796875 -9.242188 20.890625 -9.140625 C 20.992188 -9.046875 21.046875 -8.925781 21.046875 -8.78125 L 21.046875 -8.609375 C 21.046875 -6.828125 20.648438 -5.253906 19.859375 -3.890625 C 19.078125 -2.523438 17.96875 -1.476562 16.53125 -0.75 C 15.09375 -0.0195312 13.441406 0.34375 11.578125 0.34375 Z M 11.578125 0.34375 "/></g></g></g><g fill="#000000" fill-opacity="1"><g transform="translate(102.326052, 72.621231)"><g><path d="M 3.265625 0 C 3.128906 0 3.007812 -0.046875 2.90625 -0.140625 C 2.800781 -0.242188 2.75 -0.367188 2.75 -0.515625 L 2.75 -29.609375 C 2.75 -29.753906 2.800781 -29.878906 2.90625 -29.984375 C 3.007812 -30.085938 3.128906 -30.140625 3.265625 -30.140625 L 7.234375 -30.140625 C 7.378906 -30.140625 7.5 -30.085938 7.59375 -29.984375 C 7.695312 -29.878906 7.75 -29.753906 7.75 -29.609375 L 7.75 -4.515625 C 7.75 -4.378906 7.820312 -4.3125 7.96875 -4.3125 L 19.796875 -4.3125 C 19.941406 -4.3125 20.0625 -4.257812 20.15625 -4.15625 C 20.257812 -4.050781 20.3125 -3.925781 20.3125 -3.78125 L 20.3125 -0.515625 C 20.3125 -0.367188 20.257812 -0.242188 20.15625 -0.140625 C 20.0625 -0.046875 19.941406 0 19.796875 0 Z M 3.265625 0 "/></g></g></g><g fill="#000000" fill-opacity="1"><g transform="translate(123.543279, 72.621231)"><g><path d="M 11.671875 0.390625 C 9.773438 0.390625 8.101562 0.00390625 6.65625 -0.765625 C 5.207031 -1.546875 4.085938 -2.644531 3.296875 -4.0625 C 2.503906 -5.488281 2.109375 -7.132812 2.109375 -9 L 2.109375 -21.140625 C 2.109375 -22.972656 2.503906 -24.597656 3.296875 -26.015625 C 4.085938 -27.441406 5.207031 -28.539062 6.65625 -29.3125 C 8.101562 -30.09375 9.773438 -30.484375 11.671875 -30.484375 C 13.585938 -30.484375 15.269531 -30.09375 16.71875 -29.3125 C 18.164062 -28.539062 19.289062 -27.441406 20.09375 -26.015625 C 20.90625 -24.597656 21.3125 -22.972656 21.3125 -21.140625 L 21.3125 -9 C 21.3125 -7.132812 20.90625 -5.488281 20.09375 -4.0625 C 19.289062 -2.644531 18.164062 -1.546875 16.71875 -0.765625 C 15.269531 0.00390625 13.585938 0.390625 11.671875 0.390625 Z M 11.671875 -3.921875 C 13.078125 -3.921875 14.203125 -4.367188 15.046875 -5.265625 C 15.890625 -6.171875 16.3125 -7.34375 16.3125 -8.78125 L 16.3125 -21.265625 C 16.3125 -22.722656 15.890625 -23.90625 15.046875 -24.8125 C 14.203125 -25.71875 13.078125 -26.171875 11.671875 -26.171875 C 10.285156 -26.171875 9.175781 -25.71875 8.34375 -24.8125 C 7.519531 -23.90625 7.109375 -22.722656 7.109375 -21.265625 L 7.109375 -8.78125 C 7.109375 -7.34375 7.519531 -6.171875 8.34375 -5.265625 C 9.175781 -4.367188 10.285156 -3.921875 11.671875 -3.921875 Z M 11.671875 -3.921875 "/></g></g></g><g clip-path="url(#be107abb8f)"><path fill="#ffffff" d="M 151.980469 62.121094 L 135.453125 62.121094 C 135.261719 62.121094 135.105469 61.972656 135.105469 61.789062 L 135.105469 54.230469 C 135.105469 54.046875 135.261719 53.898438 135.453125 53.898438 L 151.980469 53.898438 C 152.171875 53.898438 152.328125 54.046875 152.328125 54.230469 L 152.328125 61.789062 C 152.328125 61.972656 152.171875 62.121094 151.980469 62.121094 Z M 151.980469 62.121094 " fill-opacity="1" fill-rule="nonzero"/></g><g clip-path="url(#db0dd42213)"><path fill="#000000" d="M 136.632812 52.726562 L 141.875 59.464844 L 147.113281 52.726562 Z M 136.632812 52.726562 " fill-opacity="1" fill-rule="nonzero"/></g><g fill="#000000" fill-opacity="1"><g transform="translate(83.045527, 80.205492)"><g><path d="M 0.695312 0 L 1.445312 0 L 1.445312 -2.617188 C 1.445312 -3.089844 1.378906 -3.773438 1.34375 -4.253906 L 1.371094 -4.253906 L 1.789062 -3.03125 L 2.71875 -0.511719 L 3.234375 -0.511719 L 4.152344 -3.03125 L 4.578125 -4.253906 L 4.605469 -4.253906 C 4.5625 -3.773438 4.5 -3.089844 4.5 -2.617188 L 4.5 0 L 5.277344 0 L 5.277344 -5.289062 L 4.3125 -5.289062 L 3.355469 -2.617188 C 3.234375 -2.265625 3.132812 -1.90625 3.011719 -1.546875 L 2.976562 -1.546875 C 2.851562 -1.90625 2.746094 -2.265625 2.625 -2.617188 L 1.652344 -5.289062 L 0.695312 -5.289062 Z M 0.695312 0 "/></g></g></g><g fill="#000000" fill-opacity="1"><g transform="translate(89.011046, 80.205492)"><g><path d="M 1.558594 0.09375 C 2.035156 0.09375 2.457031 -0.144531 2.816406 -0.453125 L 2.839844 -0.453125 L 2.910156 0 L 3.585938 0 L 3.585938 -2.378906 C 3.585938 -3.429688 3.132812 -4.054688 2.148438 -4.054688 C 1.515625 -4.054688 0.964844 -3.792969 0.554688 -3.535156 L 0.863281 -2.976562 C 1.199219 -3.191406 1.589844 -3.378906 2.003906 -3.378906 C 2.585938 -3.378906 2.753906 -2.976562 2.761719 -2.515625 C 1.113281 -2.335938 0.394531 -1.898438 0.394531 -1.050781 C 0.394531 -0.351562 0.875 0.09375 1.558594 0.09375 Z M 1.8125 -0.5625 C 1.460938 -0.5625 1.191406 -0.71875 1.191406 -1.105469 C 1.191406 -1.550781 1.589844 -1.847656 2.761719 -1.992188 L 2.761719 -1.019531 C 2.4375 -0.726562 2.15625 -0.5625 1.8125 -0.5625 Z M 1.8125 -0.5625 "/></g></g></g><g fill="#000000" fill-opacity="1"><g transform="translate(93.14379, 80.205492)"><g><path d="M 0.625 0 L 1.445312 0 L 1.445312 -2.464844 C 1.695312 -3.089844 2.085938 -3.3125 2.40625 -3.3125 C 2.566406 -3.3125 2.667969 -3.292969 2.804688 -3.25 L 2.953125 -3.96875 C 2.832031 -4.023438 2.703125 -4.054688 2.507812 -4.054688 C 2.085938 -4.054688 1.667969 -3.75 1.386719 -3.242188 L 1.367188 -3.242188 L 1.300781 -3.953125 L 0.625 -3.953125 Z M 0.625 0 "/></g></g></g><g fill="#000000" fill-opacity="1"><g transform="translate(96.083426, 80.205492)"><g><path d="M 0.625 0 L 1.429688 0 L 1.429688 -1.019531 L 2.097656 -1.789062 L 3.167969 0 L 4.066406 0 L 2.574219 -2.351562 L 3.917969 -3.953125 L 3.003906 -3.953125 L 1.453125 -2.035156 L 1.429688 -2.035156 L 1.429688 -5.726562 L 0.625 -5.726562 Z M 0.625 0 "/></g></g></g><g fill="#000000" fill-opacity="1"><g transform="translate(100.216169, 80.205492)"><g><path d="M 2.269531 0.09375 C 2.789062 0.09375 3.242188 -0.078125 3.609375 -0.324219 L 3.320312 -0.847656 C 3.03125 -0.660156 2.730469 -0.554688 2.378906 -0.554688 C 1.695312 -0.554688 1.222656 -1.007812 1.15625 -1.761719 L 3.722656 -1.761719 C 3.746094 -1.855469 3.757812 -2.019531 3.757812 -2.179688 C 3.757812 -3.300781 3.199219 -4.054688 2.148438 -4.054688 C 1.222656 -4.054688 0.34375 -3.253906 0.34375 -1.96875 C 0.34375 -0.667969 1.199219 0.09375 2.269531 0.09375 Z M 1.148438 -2.328125 C 1.230469 -3.027344 1.667969 -3.40625 2.164062 -3.40625 C 2.738281 -3.40625 3.046875 -3.011719 3.046875 -2.328125 Z M 1.148438 -2.328125 "/></g></g></g><g fill="#000000" fill-opacity="1"><g transform="translate(104.277034, 80.205492)"><g><path d="M 1.953125 0.09375 C 2.242188 0.09375 2.507812 0.0234375 2.730469 -0.0507812 L 2.582031 -0.660156 C 2.464844 -0.609375 2.292969 -0.566406 2.15625 -0.566406 C 1.746094 -0.566406 1.582031 -0.8125 1.582031 -1.285156 L 1.582031 -3.292969 L 2.609375 -3.292969 L 2.609375 -3.953125 L 1.582031 -3.953125 L 1.582031 -5.046875 L 0.882812 -5.046875 L 0.789062 -3.953125 L 0.179688 -3.910156 L 0.179688 -3.292969 L 0.753906 -3.292969 L 0.753906 -1.292969 C 0.753906 -0.460938 1.0625 0.09375 1.953125 0.09375 Z M 1.953125 0.09375 "/></g></g></g><g fill="#000000" fill-opacity="1"><g transform="translate(107.123231, 80.205492)"><g><path d="M 0.625 0 L 1.445312 0 L 1.445312 -3.953125 L 0.625 -3.953125 Z M 1.035156 -4.691406 C 1.335938 -4.691406 1.566406 -4.894531 1.566406 -5.183594 C 1.566406 -5.476562 1.335938 -5.671875 1.035156 -5.671875 C 0.734375 -5.671875 0.511719 -5.476562 0.511719 -5.183594 C 0.511719 -4.894531 0.734375 -4.691406 1.035156 -4.691406 Z M 1.035156 -4.691406 "/></g></g></g><g fill="#000000" fill-opacity="1"><g transform="translate(109.186011, 80.205492)"><g><path d="M 0.625 0 L 1.445312 0 L 1.445312 -2.804688 C 1.796875 -3.15625 2.046875 -3.34375 2.414062 -3.34375 C 2.882812 -3.34375 3.082031 -3.070312 3.082031 -2.386719 L 3.082031 0 L 3.910156 0 L 3.910156 -2.488281 C 3.910156 -3.492188 3.535156 -4.054688 2.695312 -4.054688 C 2.15625 -4.054688 1.753906 -3.757812 1.386719 -3.40625 L 1.367188 -3.40625 L 1.300781 -3.953125 L 0.625 -3.953125 Z M 0.625 0 "/></g></g></g><g fill="#000000" fill-opacity="1"><g transform="translate(113.670932, 80.205492)"><g><path d="M 1.976562 1.773438 C 3.242188 1.773438 4.046875 1.15625 4.046875 0.394531 C 4.046875 -0.28125 3.558594 -0.566406 2.625 -0.566406 L 1.898438 -0.566406 C 1.394531 -0.566406 1.234375 -0.71875 1.234375 -0.957031 C 1.234375 -1.144531 1.324219 -1.257812 1.453125 -1.371094 C 1.625 -1.292969 1.824219 -1.25 2.003906 -1.25 C 2.832031 -1.25 3.484375 -1.746094 3.484375 -2.609375 C 3.484375 -2.910156 3.378906 -3.175781 3.226562 -3.335938 L 3.980469 -3.335938 L 3.980469 -3.953125 L 2.582031 -3.953125 C 2.429688 -4.011719 2.226562 -4.054688 2.003906 -4.054688 C 1.1875 -4.054688 0.472656 -3.527344 0.472656 -2.628906 C 0.472656 -2.164062 0.726562 -1.789062 0.992188 -1.582031 L 0.992188 -1.550781 C 0.777344 -1.394531 0.554688 -1.128906 0.554688 -0.820312 C 0.554688 -0.496094 0.710938 -0.289062 0.914062 -0.164062 L 0.914062 -0.128906 C 0.546875 0.09375 0.335938 0.402344 0.335938 0.734375 C 0.335938 1.421875 1.027344 1.773438 1.976562 1.773438 Z M 2.003906 -1.78125 C 1.59375 -1.78125 1.257812 -2.105469 1.257812 -2.628906 C 1.257812 -3.167969 1.589844 -3.472656 2.003906 -3.472656 C 2.421875 -3.472656 2.753906 -3.164062 2.753906 -2.628906 C 2.753906 -2.105469 2.414062 -1.78125 2.003906 -1.78125 Z M 2.097656 1.230469 C 1.445312 1.230469 1.042969 1 1.042969 0.609375 C 1.042969 0.410156 1.144531 0.207031 1.378906 0.0351562 C 1.546875 0.0703125 1.726562 0.09375 1.910156 0.09375 L 2.507812 0.09375 C 2.988281 0.09375 3.25 0.195312 3.25 0.523438 C 3.25 0.890625 2.789062 1.230469 2.097656 1.230469 Z M 2.097656 1.230469 "/></g></g></g><g fill="#000000" fill-opacity="1"><g transform="translate(117.825235, 80.205492)"><g/></g></g><g fill="#000000" fill-opacity="1"><g transform="translate(119.44239, 80.205492)"><g><path d="M 0.695312 0 L 2.113281 0 C 3.695312 0 4.621094 -0.949219 4.621094 -2.667969 C 4.621094 -4.390625 3.695312 -5.289062 2.070312 -5.289062 L 0.695312 -5.289062 Z M 1.53125 -0.683594 L 1.53125 -4.613281 L 2.011719 -4.613281 C 3.148438 -4.613281 3.757812 -3.988281 3.757812 -2.667969 C 3.757812 -1.351562 3.148438 -0.683594 2.011719 -0.683594 Z M 1.53125 -0.683594 "/></g></g></g><g fill="#000000" fill-opacity="1"><g transform="translate(124.466366, 80.205492)"><g><path d="M 0.625 0 L 1.445312 0 L 1.445312 -3.953125 L 0.625 -3.953125 Z M 1.035156 -4.691406 C 1.335938 -4.691406 1.566406 -4.894531 1.566406 -5.183594 C 1.566406 -5.476562 1.335938 -5.671875 1.035156 -5.671875 C 0.734375 -5.671875 0.511719 -5.476562 0.511719 -5.183594 C 0.511719 -4.894531 0.734375 -4.691406 1.035156 -4.691406 Z M 1.035156 -4.691406 "/></g></g></g><g fill="#000000" fill-opacity="1"><g transform="translate(126.529146, 80.205492)"><g><path d="M 1.976562 1.773438 C 3.242188 1.773438 4.046875 1.15625 4.046875 0.394531 C 4.046875 -0.28125 3.558594 -0.566406 2.625 -0.566406 L 1.898438 -0.566406 C 1.394531 -0.566406 1.234375 -0.71875 1.234375 -0.957031 C 1.234375 -1.144531 1.324219 -1.257812 1.453125 -1.371094 C 1.625 -1.292969 1.824219 -1.25 2.003906 -1.25 C 2.832031 -1.25 3.484375 -1.746094 3.484375 -2.609375 C 3.484375 -2.910156 3.378906 -3.175781 3.226562 -3.335938 L 3.980469 -3.335938 L 3.980469 -3.953125 L 2.582031 -3.953125 C 2.429688 -4.011719 2.226562 -4.054688 2.003906 -4.054688 C 1.1875 -4.054688 0.472656 -3.527344 0.472656 -2.628906 C 0.472656 -2.164062 0.726562 -1.789062 0.992188 -1.582031 L 0.992188 -1.550781 C 0.777344 -1.394531 0.554688 -1.128906 0.554688 -0.820312 C 0.554688 -0.496094 0.710938 -0.289062 0.914062 -0.164062 L 0.914062 -0.128906 C 0.546875 0.09375 0.335938 0.402344 0.335938 0.734375 C 0.335938 1.421875 1.027344 1.773438 1.976562 1.773438 Z M 2.003906 -1.78125 C 1.59375 -1.78125 1.257812 -2.105469 1.257812 -2.628906 C 1.257812 -3.167969 1.589844 -3.472656 2.003906 -3.472656 C 2.421875 -3.472656 2.753906 -3.164062 2.753906 -2.628906 C 2.753906 -2.105469 2.414062 -1.78125 2.003906 -1.78125 Z M 2.097656 1.230469 C 1.445312 1.230469 1.042969 1 1.042969 0.609375 C 1.042969 0.410156 1.144531 0.207031 1.378906 0.0351562 C 1.546875 0.0703125 1.726562 0.09375 1.910156 0.09375 L 2.507812 0.09375 C 2.988281 0.09375 3.25 0.195312 3.25 0.523438 C 3.25 0.890625 2.789062 1.230469 2.097656 1.230469 Z M 2.097656 1.230469 "/></g></g></g><g fill="#000000" fill-opacity="1"><g transform="translate(130.683449, 80.205492)"><g><path d="M 0.625 0 L 1.445312 0 L 1.445312 -3.953125 L 0.625 -3.953125 Z M 1.035156 -4.691406 C 1.335938 -4.691406 1.566406 -4.894531 1.566406 -5.183594 C 1.566406 -5.476562 1.335938 -5.671875 1.035156 -5.671875 C 0.734375 -5.671875 0.511719 -5.476562 0.511719 -5.183594 C 0.511719 -4.894531 0.734375 -4.691406 1.035156 -4.691406 Z M 1.035156 -4.691406 "/></g></g></g><g fill="#000000" fill-opacity="1"><g transform="translate(132.746229, 80.205492)"><g><path d="M 1.953125 0.09375 C 2.242188 0.09375 2.507812 0.0234375 2.730469 -0.0507812 L 2.582031 -0.660156 C 2.464844 -0.609375 2.292969 -0.566406 2.15625 -0.566406 C 1.746094 -0.566406 1.582031 -0.8125 1.582031 -1.285156 L 1.582031 -3.292969 L 2.609375 -3.292969 L 2.609375 -3.953125 L 1.582031 -3.953125 L 1.582031 -5.046875 L 0.882812 -5.046875 L 0.789062 -3.953125 L 0.179688 -3.910156 L 0.179688 -3.292969 L 0.753906 -3.292969 L 0.753906 -1.292969 C 0.753906 -0.460938 1.0625 0.09375 1.953125 0.09375 Z M 1.953125 0.09375 "/></g></g></g><g fill="#000000" fill-opacity="1"><g transform="translate(135.592427, 80.205492)"><g><path d="M 1.558594 0.09375 C 2.035156 0.09375 2.457031 -0.144531 2.816406 -0.453125 L 2.839844 -0.453125 L 2.910156 0 L 3.585938 0 L 3.585938 -2.378906 C 3.585938 -3.429688 3.132812 -4.054688 2.148438 -4.054688 C 1.515625 -4.054688 0.964844 -3.792969 0.554688 -3.535156 L 0.863281 -2.976562 C 1.199219 -3.191406 1.589844 -3.378906 2.003906 -3.378906 C 2.585938 -3.378906 2.753906 -2.976562 2.761719 -2.515625 C 1.113281 -2.335938 0.394531 -1.898438 0.394531 -1.050781 C 0.394531 -0.351562 0.875 0.09375 1.558594 0.09375 Z M 1.8125 -0.5625 C 1.460938 -0.5625 1.191406 -0.71875 1.191406 -1.105469 C 1.191406 -1.550781 1.589844 -1.847656 2.761719 -1.992188 L 2.761719 -1.019531 C 2.4375 -0.726562 2.15625 -0.5625 1.8125 -0.5625 Z M 1.8125 -0.5625 "/></g></g></g><g fill="#000000" fill-opacity="1"><g transform="translate(139.72517, 80.205492)"><g><path d="M 1.445312 0.09375 C 1.644531 0.09375 1.789062 0.0664062 1.890625 0.0273438 L 1.78125 -0.597656 C 1.710938 -0.582031 1.683594 -0.582031 1.644531 -0.582031 C 1.546875 -0.582031 1.445312 -0.660156 1.445312 -0.882812 L 1.445312 -5.726562 L 0.625 -5.726562 L 0.625 -0.925781 C 0.625 -0.289062 0.847656 0.09375 1.445312 0.09375 Z M 1.445312 0.09375 "/></g></g></g></svg>