<svg xmlns="http://www.w3.org/2000/svg" xmlns:xlink="http://www.w3.org/1999/xlink" width="240" zoomAndPan="magnify" viewBox="0 0 187.5 112.499997" height="140" preserveAspectRatio="xMidYMid meet" version="1.0"><defs><g/><clipPath id="a425c3b63a"><path d="M 62.046875 27.171875 L 142.15625 27.171875 L 142.15625 80.328125 L 62.046875 80.328125 Z M 62.046875 27.171875 " clip-rule="nonzero"/></clipPath><clipPath id="c1d5c8762c"><path d="M 136.445312 53.890625 L 152.167969 53.890625 L 152.167969 62.128906 L 136.445312 62.128906 Z M 136.445312 53.890625 " clip-rule="nonzero"/></clipPath><clipPath id="88391df45c"><path d="M 135.828125 52.15625 L 144.0625 52.15625 L 144.0625 57.394531 L 135.828125 57.394531 Z M 135.828125 52.15625 " clip-rule="nonzero"/></clipPath></defs><g clip-path="url(#a425c3b63a)"><path fill="#e7b75f" d="M 124.195312 37.71875 L 125.515625 41.066406 L 131.832031 36.875 L 121.824219 49.058594 L 114.71875 39.089844 L 103.035156 56.800781 L 96.109375 45.144531 L 80.730469 67.195312 L 75.550781 57.691406 L 62.125 77.976562 L 64.675781 80.316406 L 75.273438 64.371094 L 80.386719 73.75 L 95.886719 51.523438 L 102.890625 63.308594 L 114.824219 45.214844 L 121.640625 54.773438 L 135.011719 38.5 L 132.226562 45.296875 L 135.503906 46.195312 L 142.078125 27.164062 L 124.195312 37.71875 " fill-opacity="1" fill-rule="nonzero"/></g><g fill="#010102" fill-opacity="1"><g transform="translate(48.318556, 71.323525)"><g><path d="M 11.046875 0.328125 C 9.265625 0.328125 7.6875 -0.03125 6.3125 -0.75 C 4.945312 -1.476562 3.890625 -2.5 3.140625 -3.8125 C 2.390625 -5.125 2.015625 -6.644531 2.015625 -8.375 L 2.015625 -20.4375 C 2.015625 -22.164062 2.390625 -23.675781 3.140625 -24.96875 C 3.890625 -26.269531 4.945312 -27.273438 6.3125 -27.984375 C 7.6875 -28.703125 9.265625 -29.0625 11.046875 -29.0625 C 12.816406 -29.0625 14.382812 -28.710938 15.75 -28.015625 C 17.125 -27.316406 18.1875 -26.332031 18.9375 -25.0625 C 19.695312 -23.789062 20.078125 -22.304688 20.078125 -20.609375 L 20.078125 -20.359375 C 20.078125 -20.222656 20.023438 -20.097656 19.921875 -19.984375 C 19.828125 -19.878906 19.710938 -19.828125 19.578125 -19.828125 L 15.765625 -19.65625 C 15.429688 -19.65625 15.265625 -19.820312 15.265625 -20.15625 L 15.265625 -20.640625 C 15.265625 -21.929688 14.875 -22.972656 14.09375 -23.765625 C 13.320312 -24.554688 12.304688 -24.953125 11.046875 -24.953125 C 9.753906 -24.953125 8.71875 -24.554688 7.9375 -23.765625 C 7.15625 -22.972656 6.765625 -21.929688 6.765625 -20.640625 L 6.765625 -8.046875 C 6.765625 -6.753906 7.15625 -5.71875 7.9375 -4.9375 C 8.71875 -4.164062 9.753906 -3.78125 11.046875 -3.78125 C 12.304688 -3.78125 13.320312 -4.164062 14.09375 -4.9375 C 14.875 -5.71875 15.265625 -6.753906 15.265625 -8.046875 L 15.265625 -8.578125 C 15.265625 -8.878906 15.429688 -9.03125 15.765625 -9.03125 L 19.578125 -8.859375 C 19.710938 -8.859375 19.828125 -8.8125 19.921875 -8.71875 C 20.023438 -8.625 20.078125 -8.507812 20.078125 -8.375 L 20.078125 -8.203125 C 20.078125 -6.515625 19.695312 -5.019531 18.9375 -3.71875 C 18.1875 -2.414062 17.125 -1.414062 15.75 -0.71875 C 14.382812 -0.0195312 12.816406 0.328125 11.046875 0.328125 Z M 11.046875 0.328125 "/></g></g></g><g fill="#010102" fill-opacity="1"><g transform="translate(70.197326, 71.323525)"><g><path d="M 3.125 0 C 2.988281 0 2.867188 -0.046875 2.765625 -0.140625 C 2.671875 -0.234375 2.625 -0.351562 2.625 -0.5 L 2.625 -28.234375 C 2.625 -28.378906 2.671875 -28.5 2.765625 -28.59375 C 2.867188 -28.6875 2.988281 -28.734375 3.125 -28.734375 L 6.890625 -28.734375 C 7.023438 -28.734375 7.140625 -28.6875 7.234375 -28.59375 C 7.335938 -28.5 7.390625 -28.378906 7.390625 -28.234375 L 7.390625 -0.5 C 7.390625 -0.351562 7.335938 -0.234375 7.234375 -0.140625 C 7.140625 -0.046875 7.023438 0 6.890625 0 Z M 3.125 0 "/></g></g></g><g fill="#010102" fill-opacity="1"><g transform="translate(80.172071, 71.323525)"><g><path d="M 11.046875 0.328125 C 9.265625 0.328125 7.6875 -0.03125 6.3125 -0.75 C 4.945312 -1.476562 3.890625 -2.5 3.140625 -3.8125 C 2.390625 -5.125 2.015625 -6.644531 2.015625 -8.375 L 2.015625 -20.4375 C 2.015625 -22.164062 2.390625 -23.675781 3.140625 -24.96875 C 3.890625 -26.269531 4.945312 -27.273438 6.3125 -27.984375 C 7.6875 -28.703125 9.265625 -29.0625 11.046875 -29.0625 C 12.816406 -29.0625 14.382812 -28.710938 15.75 -28.015625 C 17.125 -27.316406 18.1875 -26.332031 18.9375 -25.0625 C 19.695312 -23.789062 20.078125 -22.304688 20.078125 -20.609375 L 20.078125 -20.359375 C 20.078125 -20.222656 20.023438 -20.097656 19.921875 -19.984375 C 19.828125 -19.878906 19.710938 -19.828125 19.578125 -19.828125 L 15.765625 -19.65625 C 15.429688 -19.65625 15.265625 -19.820312 15.265625 -20.15625 L 15.265625 -20.640625 C 15.265625 -21.929688 14.875 -22.972656 14.09375 -23.765625 C 13.320312 -24.554688 12.304688 -24.953125 11.046875 -24.953125 C 9.753906 -24.953125 8.71875 -24.554688 7.9375 -23.765625 C 7.15625 -22.972656 6.765625 -21.929688 6.765625 -20.640625 L 6.765625 -8.046875 C 6.765625 -6.753906 7.15625 -5.71875 7.9375 -4.9375 C 8.71875 -4.164062 9.753906 -3.78125 11.046875 -3.78125 C 12.304688 -3.78125 13.320312 -4.164062 14.09375 -4.9375 C 14.875 -5.71875 15.265625 -6.753906 15.265625 -8.046875 L 15.265625 -8.578125 C 15.265625 -8.878906 15.429688 -9.03125 15.765625 -9.03125 L 19.578125 -8.859375 C 19.710938 -8.859375 19.828125 -8.8125 19.921875 -8.71875 C 20.023438 -8.625 20.078125 -8.507812 20.078125 -8.375 L 20.078125 -8.203125 C 20.078125 -6.515625 19.695312 -5.019531 18.9375 -3.71875 C 18.1875 -2.414062 17.125 -1.414062 15.75 -0.71875 C 14.382812 -0.0195312 12.816406 0.328125 11.046875 0.328125 Z M 11.046875 0.328125 "/></g></g></g><g fill="#010102" fill-opacity="1"><g transform="translate(102.05084, 71.323525)"><g><path d="M 3.125 0 C 2.988281 0 2.867188 -0.046875 2.765625 -0.140625 C 2.671875 -0.234375 2.625 -0.351562 2.625 -0.5 L 2.625 -28.234375 C 2.625 -28.378906 2.671875 -28.5 2.765625 -28.59375 C 2.867188 -28.6875 2.988281 -28.734375 3.125 -28.734375 L 6.890625 -28.734375 C 7.023438 -28.734375 7.140625 -28.6875 7.234375 -28.59375 C 7.335938 -28.5 7.390625 -28.378906 7.390625 -28.234375 L 7.390625 -4.3125 C 7.390625 -4.175781 7.457031 -4.109375 7.59375 -4.109375 L 18.875 -4.109375 C 19.019531 -4.109375 19.140625 -4.054688 19.234375 -3.953125 C 19.328125 -3.859375 19.375 -3.742188 19.375 -3.609375 L 19.375 -0.5 C 19.375 -0.351562 19.328125 -0.234375 19.234375 -0.140625 C 19.140625 -0.046875 19.019531 0 18.875 0 Z M 3.125 0 "/></g></g></g><g fill="#010102" fill-opacity="1"><g transform="translate(122.287674, 71.323525)"><g><path d="M 11.125 0.375 C 9.320312 0.375 7.726562 0.00390625 6.34375 -0.734375 C 4.957031 -1.472656 3.890625 -2.519531 3.140625 -3.875 C 2.390625 -5.226562 2.015625 -6.796875 2.015625 -8.578125 L 2.015625 -20.15625 C 2.015625 -21.90625 2.390625 -23.457031 3.140625 -24.8125 C 3.890625 -26.164062 4.957031 -27.210938 6.34375 -27.953125 C 7.726562 -28.691406 9.320312 -29.0625 11.125 -29.0625 C 12.957031 -29.0625 14.5625 -28.691406 15.9375 -27.953125 C 17.320312 -27.210938 18.394531 -26.164062 19.15625 -24.8125 C 19.925781 -23.457031 20.3125 -21.90625 20.3125 -20.15625 L 20.3125 -8.578125 C 20.3125 -6.796875 19.925781 -5.226562 19.15625 -3.875 C 18.394531 -2.519531 17.320312 -1.472656 15.9375 -0.734375 C 14.5625 0.00390625 12.957031 0.375 11.125 0.375 Z M 11.125 -3.734375 C 12.46875 -3.734375 13.539062 -4.164062 14.34375 -5.03125 C 15.15625 -5.894531 15.5625 -7.007812 15.5625 -8.375 L 15.5625 -20.28125 C 15.5625 -21.675781 15.15625 -22.800781 14.34375 -23.65625 C 13.539062 -24.519531 12.46875 -24.953125 11.125 -24.953125 C 9.8125 -24.953125 8.753906 -24.519531 7.953125 -23.65625 C 7.160156 -22.800781 6.765625 -21.675781 6.765625 -20.28125 L 6.765625 -8.375 C 6.765625 -7.007812 7.160156 -5.894531 7.953125 -5.03125 C 8.753906 -4.164062 9.8125 -3.734375 11.125 -3.734375 Z M 11.125 -3.734375 "/></g></g></g><g clip-path="url(#c1d5c8762c)"><path fill="#ffffff" d="M 151.980469 62.121094 L 135.453125 62.121094 C 135.261719 62.121094 135.105469 61.972656 135.105469 61.789062 L 135.105469 54.230469 C 135.105469 54.046875 135.261719 53.898438 135.453125 53.898438 L 151.980469 53.898438 C 152.171875 53.898438 152.328125 54.046875 152.328125 54.230469 L 152.328125 61.789062 C 152.328125 61.972656 152.171875 62.121094 151.980469 62.121094 Z M 151.980469 62.121094 " fill-opacity="1" fill-rule="nonzero"/></g><g clip-path="url(#88391df45c)"><path fill="#010102" d="M 135.828125 52.15625 L 139.945312 57.394531 L 144.0625 52.15625 Z M 135.828125 52.15625 " fill-opacity="1" fill-rule="nonzero"/></g><g fill="#030303" fill-opacity="1"><g transform="translate(83.045527, 80.205492)"><g><path d="M 0.695312 0 L 1.445312 0 L 1.445312 -2.617188 C 1.445312 -3.089844 1.378906 -3.773438 1.34375 -4.253906 L 1.371094 -4.253906 L 1.789062 -3.03125 L 2.71875 -0.511719 L 3.234375 -0.511719 L 4.152344 -3.03125 L 4.578125 -4.253906 L 4.605469 -4.253906 C 4.5625 -3.773438 4.5 -3.089844 4.5 -2.617188 L 4.5 0 L 5.277344 0 L 5.277344 -5.289062 L 4.3125 -5.289062 L 3.355469 -2.617188 C 3.234375 -2.265625 3.132812 -1.90625 3.011719 -1.546875 L 2.976562 -1.546875 C 2.851562 -1.90625 2.746094 -2.265625 2.625 -2.617188 L 1.652344 -5.289062 L 0.695312 -5.289062 Z M 0.695312 0 "/></g></g></g><g fill="#030303" fill-opacity="1"><g transform="translate(89.011046, 80.205492)"><g><path d="M 1.558594 0.09375 C 2.035156 0.09375 2.457031 -0.144531 2.816406 -0.453125 L 2.839844 -0.453125 L 2.910156 0 L 3.585938 0 L 3.585938 -2.378906 C 3.585938 -3.429688 3.132812 -4.054688 2.148438 -4.054688 C 1.515625 -4.054688 0.964844 -3.792969 0.554688 -3.535156 L 0.863281 -2.976562 C 1.199219 -3.191406 1.589844 -3.378906 2.003906 -3.378906 C 2.585938 -3.378906 2.753906 -2.976562 2.761719 -2.515625 C 1.113281 -2.335938 0.394531 -1.898438 0.394531 -1.050781 C 0.394531 -0.351562 0.875 0.09375 1.558594 0.09375 Z M 1.8125 -0.5625 C 1.460938 -0.5625 1.191406 -0.71875 1.191406 -1.105469 C 1.191406 -1.550781 1.589844 -1.847656 2.761719 -1.992188 L 2.761719 -1.019531 C 2.4375 -0.726562 2.15625 -0.5625 1.8125 -0.5625 Z M 1.8125 -0.5625 "/></g></g></g><g fill="#030303" fill-opacity="1"><g transform="translate(93.14379, 80.205492)"><g><path d="M 0.625 0 L 1.445312 0 L 1.445312 -2.464844 C 1.695312 -3.089844 2.085938 -3.3125 2.40625 -3.3125 C 2.566406 -3.3125 2.667969 -3.292969 2.804688 -3.25 L 2.953125 -3.96875 C 2.832031 -4.023438 2.703125 -4.054688 2.507812 -4.054688 C 2.085938 -4.054688 1.667969 -3.75 1.386719 -3.242188 L 1.367188 -3.242188 L 1.300781 -3.953125 L 0.625 -3.953125 Z M 0.625 0 "/></g></g></g><g fill="#030303" fill-opacity="1"><g transform="translate(96.083426, 80.205492)"><g><path d="M 0.625 0 L 1.429688 0 L 1.429688 -1.019531 L 2.097656 -1.789062 L 3.167969 0 L 4.066406 0 L 2.574219 -2.351562 L 3.917969 -3.953125 L 3.003906 -3.953125 L 1.453125 -2.035156 L 1.429688 -2.035156 L 1.429688 -5.726562 L 0.625 -5.726562 Z M 0.625 0 "/></g></g></g><g fill="#030303" fill-opacity="1"><g transform="translate(100.216169, 80.205492)"><g><path d="M 2.269531 0.09375 C 2.789062 0.09375 3.242188 -0.078125 3.609375 -0.324219 L 3.320312 -0.847656 C 3.03125 -0.660156 2.730469 -0.554688 2.378906 -0.554688 C 1.695312 -0.554688 1.222656 -1.007812 1.15625 -1.761719 L 3.722656 -1.761719 C 3.746094 -1.855469 3.757812 -2.019531 3.757812 -2.179688 C 3.757812 -3.300781 3.199219 -4.054688 2.148438 -4.054688 C 1.222656 -4.054688 0.34375 -3.253906 0.34375 -1.96875 C 0.34375 -0.667969 1.199219 0.09375 2.269531 0.09375 Z M 1.148438 -2.328125 C 1.230469 -3.027344 1.667969 -3.40625 2.164062 -3.40625 C 2.738281 -3.40625 3.046875 -3.011719 3.046875 -2.328125 Z M 1.148438 -2.328125 "/></g></g></g><g fill="#030303" fill-opacity="1"><g transform="translate(104.277034, 80.205492)"><g><path d="M 1.953125 0.09375 C 2.242188 0.09375 2.507812 0.0234375 2.730469 -0.0507812 L 2.582031 -0.660156 C 2.464844 -0.609375 2.292969 -0.566406 2.15625 -0.566406 C 1.746094 -0.566406 1.582031 -0.8125 1.582031 -1.285156 L 1.582031 -3.292969 L 2.609375 -3.292969 L 2.609375 -3.953125 L 1.582031 -3.953125 L 1.582031 -5.046875 L 0.882812 -5.046875 L 0.789062 -3.953125 L 0.179688 -3.910156 L 0.179688 -3.292969 L 0.753906 -3.292969 L 0.753906 -1.292969 C 0.753906 -0.460938 1.0625 0.09375 1.953125 0.09375 Z M 1.953125 0.09375 "/></g></g></g><g fill="#030303" fill-opacity="1"><g transform="translate(107.123231, 80.205492)"><g><path d="M 0.625 0 L 1.445312 0 L 1.445312 -3.953125 L 0.625 -3.953125 Z M 1.035156 -4.691406 C 1.335938 -4.691406 1.566406 -4.894531 1.566406 -5.183594 C 1.566406 -5.476562 1.335938 -5.671875 1.035156 -5.671875 C 0.734375 -5.671875 0.511719 -5.476562 0.511719 -5.183594 C 0.511719 -4.894531 0.734375 -4.691406 1.035156 -4.691406 Z M 1.035156 -4.691406 "/></g></g></g><g fill="#030303" fill-opacity="1"><g transform="translate(109.186011, 80.205492)"><g><path d="M 0.625 0 L 1.445312 0 L 1.445312 -2.804688 C 1.796875 -3.15625 2.046875 -3.34375 2.414062 -3.34375 C 2.882812 -3.34375 3.082031 -3.070312 3.082031 -2.386719 L 3.082031 0 L 3.910156 0 L 3.910156 -2.488281 C 3.910156 -3.492188 3.535156 -4.054688 2.695312 -4.054688 C 2.15625 -4.054688 1.753906 -3.757812 1.386719 -3.40625 L 1.367188 -3.40625 L 1.300781 -3.953125 L 0.625 -3.953125 Z M 0.625 0 "/></g></g></g><g fill="#030303" fill-opacity="1"><g transform="translate(113.670932, 80.205492)"><g><path d="M 1.976562 1.773438 C 3.242188 1.773438 4.046875 1.15625 4.046875 0.394531 C 4.046875 -0.28125 3.558594 -0.566406 2.625 -0.566406 L 1.898438 -0.566406 C 1.394531 -0.566406 1.234375 -0.71875 1.234375 -0.957031 C 1.234375 -1.144531 1.324219 -1.257812 1.453125 -1.371094 C 1.625 -1.292969 1.824219 -1.25 2.003906 -1.25 C 2.832031 -1.25 3.484375 -1.746094 3.484375 -2.609375 C 3.484375 -2.910156 3.378906 -3.175781 3.226562 -3.335938 L 3.980469 -3.335938 L 3.980469 -3.953125 L 2.582031 -3.953125 C 2.429688 -4.011719 2.226562 -4.054688 2.003906 -4.054688 C 1.1875 -4.054688 0.472656 -3.527344 0.472656 -2.628906 C 0.472656 -2.164062 0.726562 -1.789062 0.992188 -1.582031 L 0.992188 -1.550781 C 0.777344 -1.394531 0.554688 -1.128906 0.554688 -0.820312 C 0.554688 -0.496094 0.710938 -0.289062 0.914062 -0.164062 L 0.914062 -0.128906 C 0.546875 0.09375 0.335938 0.402344 0.335938 0.734375 C 0.335938 1.421875 1.027344 1.773438 1.976562 1.773438 Z M 2.003906 -1.78125 C 1.59375 -1.78125 1.257812 -2.105469 1.257812 -2.628906 C 1.257812 -3.167969 1.589844 -3.472656 2.003906 -3.472656 C 2.421875 -3.472656 2.753906 -3.164062 2.753906 -2.628906 C 2.753906 -2.105469 2.414062 -1.78125 2.003906 -1.78125 Z M 2.097656 1.230469 C 1.445312 1.230469 1.042969 1 1.042969 0.609375 C 1.042969 0.410156 1.144531 0.207031 1.378906 0.0351562 C 1.546875 0.0703125 1.726562 0.09375 1.910156 0.09375 L 2.507812 0.09375 C 2.988281 0.09375 3.25 0.195312 3.25 0.523438 C 3.25 0.890625 2.789062 1.230469 2.097656 1.230469 Z M 2.097656 1.230469 "/></g></g></g><g fill="#030303" fill-opacity="1"><g transform="translate(117.825235, 80.205492)"><g/></g></g><g fill="#030303" fill-opacity="1"><g transform="translate(119.44239, 80.205492)"><g><path d="M 0.695312 0 L 2.113281 0 C 3.695312 0 4.621094 -0.949219 4.621094 -2.667969 C 4.621094 -4.390625 3.695312 -5.289062 2.070312 -5.289062 L 0.695312 -5.289062 Z M 1.53125 -0.683594 L 1.53125 -4.613281 L 2.011719 -4.613281 C 3.148438 -4.613281 3.757812 -3.988281 3.757812 -2.667969 C 3.757812 -1.351562 3.148438 -0.683594 2.011719 -0.683594 Z M 1.53125 -0.683594 "/></g></g></g><g fill="#030303" fill-opacity="1"><g transform="translate(124.466366, 80.205492)"><g><path d="M 0.625 0 L 1.445312 0 L 1.445312 -3.953125 L 0.625 -3.953125 Z M 1.035156 -4.691406 C 1.335938 -4.691406 1.566406 -4.894531 1.566406 -5.183594 C 1.566406 -5.476562 1.335938 -5.671875 1.035156 -5.671875 C 0.734375 -5.671875 0.511719 -5.476562 0.511719 -5.183594 C 0.511719 -4.894531 0.734375 -4.691406 1.035156 -4.691406 Z M 1.035156 -4.691406 "/></g></g></g><g fill="#030303" fill-opacity="1"><g transform="translate(126.529146, 80.205492)"><g><path d="M 1.976562 1.773438 C 3.242188 1.773438 4.046875 1.15625 4.046875 0.394531 C 4.046875 -0.28125 3.558594 -0.566406 2.625 -0.566406 L 1.898438 -0.566406 C 1.394531 -0.566406 1.234375 -0.71875 1.234375 -0.957031 C 1.234375 -1.144531 1.324219 -1.257812 1.453125 -1.371094 C 1.625 -1.292969 1.824219 -1.25 2.003906 -1.25 C 2.832031 -1.25 3.484375 -1.746094 3.484375 -2.609375 C 3.484375 -2.910156 3.378906 -3.175781 3.226562 -3.335938 L 3.980469 -3.335938 L 3.980469 -3.953125 L 2.582031 -3.953125 C 2.429688 -4.011719 2.226562 -4.054688 2.003906 -4.054688 C 1.1875 -4.054688 0.472656 -3.527344 0.472656 -2.628906 C 0.472656 -2.164062 0.726562 -1.789062 0.992188 -1.582031 L 0.992188 -1.550781 C 0.777344 -1.394531 0.554688 -1.128906 0.554688 -0.820312 C 0.554688 -0.496094 0.710938 -0.289062 0.914062 -0.164062 L 0.914062 -0.128906 C 0.546875 0.09375 0.335938 0.402344 0.335938 0.734375 C 0.335938 1.421875 1.027344 1.773438 1.976562 1.773438 Z M 2.003906 -1.78125 C 1.59375 -1.78125 1.257812 -2.105469 1.257812 -2.628906 C 1.257812 -3.167969 1.589844 -3.472656 2.003906 -3.472656 C 2.421875 -3.472656 2.753906 -3.164062 2.753906 -2.628906 C 2.753906 -2.105469 2.414062 -1.78125 2.003906 -1.78125 Z M 2.097656 1.230469 C 1.445312 1.230469 1.042969 1 1.042969 0.609375 C 1.042969 0.410156 1.144531 0.207031 1.378906 0.0351562 C 1.546875 0.0703125 1.726562 0.09375 1.910156 0.09375 L 2.507812 0.09375 C 2.988281 0.09375 3.25 0.195312 3.25 0.523438 C 3.25 0.890625 2.789062 1.230469 2.097656 1.230469 Z M 2.097656 1.230469 "/></g></g></g><g fill="#030303" fill-opacity="1"><g transform="translate(130.683449, 80.205492)"><g><path d="M 0.625 0 L 1.445312 0 L 1.445312 -3.953125 L 0.625 -3.953125 Z M 1.035156 -4.691406 C 1.335938 -4.691406 1.566406 -4.894531 1.566406 -5.183594 C 1.566406 -5.476562 1.335938 -5.671875 1.035156 -5.671875 C 0.734375 -5.671875 0.511719 -5.476562 0.511719 -5.183594 C 0.511719 -4.894531 0.734375 -4.691406 1.035156 -4.691406 Z M 1.035156 -4.691406 "/></g></g></g><g fill="#030303" fill-opacity="1"><g transform="translate(132.746229, 80.205492)"><g><path d="M 1.953125 0.09375 C 2.242188 0.09375 2.507812 0.0234375 2.730469 -0.0507812 L 2.582031 -0.660156 C 2.464844 -0.609375 2.292969 -0.566406 2.15625 -0.566406 C 1.746094 -0.566406 1.582031 -0.8125 1.582031 -1.285156 L 1.582031 -3.292969 L 2.609375 -3.292969 L 2.609375 -3.953125 L 1.582031 -3.953125 L 1.582031 -5.046875 L 0.882812 -5.046875 L 0.789062 -3.953125 L 0.179688 -3.910156 L 0.179688 -3.292969 L 0.753906 -3.292969 L 0.753906 -1.292969 C 0.753906 -0.460938 1.0625 0.09375 1.953125 0.09375 Z M 1.953125 0.09375 "/></g></g></g><g fill="#030303" fill-opacity="1"><g transform="translate(135.592427, 80.205492)"><g><path d="M 1.558594 0.09375 C 2.035156 0.09375 2.457031 -0.144531 2.816406 -0.453125 L 2.839844 -0.453125 L 2.910156 0 L 3.585938 0 L 3.585938 -2.378906 C 3.585938 -3.429688 3.132812 -4.054688 2.148438 -4.054688 C 1.515625 -4.054688 0.964844 -3.792969 0.554688 -3.535156 L 0.863281 -2.976562 C 1.199219 -3.191406 1.589844 -3.378906 2.003906 -3.378906 C 2.585938 -3.378906 2.753906 -2.976562 2.761719 -2.515625 C 1.113281 -2.335938 0.394531 -1.898438 0.394531 -1.050781 C 0.394531 -0.351562 0.875 0.09375 1.558594 0.09375 Z M 1.8125 -0.5625 C 1.460938 -0.5625 1.191406 -0.71875 1.191406 -1.105469 C 1.191406 -1.550781 1.589844 -1.847656 2.761719 -1.992188 L 2.761719 -1.019531 C 2.4375 -0.726562 2.15625 -0.5625 1.8125 -0.5625 Z M 1.8125 -0.5625 "/></g></g></g><g fill="#030303" fill-opacity="1"><g transform="translate(139.72517, 80.205492)"><g><path d="M 1.445312 0.09375 C 1.644531 0.09375 1.789062 0.0664062 1.890625 0.0273438 L 1.78125 -0.597656 C 1.710938 -0.582031 1.683594 -0.582031 1.644531 -0.582031 C 1.546875 -0.582031 1.445312 -0.660156 1.445312 -0.882812 L 1.445312 -5.726562 L 0.625 -5.726562 L 0.625 -0.925781 C 0.625 -0.289062 0.847656 0.09375 1.445312 0.09375 Z M 1.445312 0.09375 "/></g></g></g></svg>