<svg xmlns="http://www.w3.org/2000/svg" xmlns:xlink="http://www.w3.org/1999/xlink" width="280" zoomAndPan="magnify" viewBox="0 0 375 374.999991" height="280" preserveAspectRatio="xMidYMid meet" version="1.0"><defs><clipPath id="b90f32798c"><path d="M 24.355469 193 L 182 193 L 182 350.945312 L 24.355469 350.945312 Z M 24.355469 193 " clip-rule="nonzero"/></clipPath><clipPath id="ff1fa76328"><path d="M 193 193 L 350.605469 193 L 350.605469 350.945312 L 193 350.945312 Z M 193 193 " clip-rule="nonzero"/></clipPath><clipPath id="ca6808a180"><path d="M 193 24 L 350.605469 24 L 350.605469 182 L 193 182 Z M 193 24 " clip-rule="nonzero"/></clipPath><clipPath id="ef04a9d41d"><path d="M 24.355469 24 L 182 24 L 182 182 L 24.355469 182 Z M 24.355469 24 " clip-rule="nonzero"/></clipPath></defs><g clip-path="url(#b90f32798c)"><path fill="#7dd4e2" d="M 181.179688 272.128906 C 181.179688 315.429688 146.070312 350.535156 102.757812 350.535156 C 59.445312 350.535156 24.335938 315.429688 24.335938 272.128906 C 24.335938 228.828125 59.445312 193.726562 102.757812 193.726562 C 146.070312 193.726562 181.179688 228.828125 181.179688 272.128906 " fill-opacity="1" fill-rule="nonzero"/></g><g clip-path="url(#ff1fa76328)"><path fill="#fcd869" d="M 350.621094 272.128906 C 350.621094 315.429688 315.507812 350.535156 272.199219 350.535156 C 228.886719 350.535156 193.777344 315.429688 193.777344 272.128906 C 193.777344 228.828125 228.886719 193.726562 272.199219 193.726562 C 315.507812 193.726562 350.621094 228.828125 350.621094 272.128906 " fill-opacity="1" fill-rule="nonzero"/></g><g clip-path="url(#ca6808a180)"><path fill="#7dd4e2" d="M 350.621094 102.671875 C 350.621094 145.976562 315.507812 181.082031 272.199219 181.082031 C 228.886719 181.082031 193.777344 145.976562 193.777344 102.671875 C 193.777344 59.375 228.886719 24.273438 272.199219 24.273438 C 315.507812 24.273438 350.621094 59.375 350.621094 102.671875 " fill-opacity="1" fill-rule="nonzero"/></g><g clip-path="url(#ef04a9d41d)"><path fill="#fcd869" d="M 181.179688 102.671875 C 181.179688 145.976562 146.070312 181.082031 102.757812 181.082031 C 59.445312 181.082031 24.335938 145.976562 24.335938 102.671875 C 24.335938 59.375 59.445312 24.273438 102.757812 24.273438 C 146.070312 24.273438 181.179688 59.375 181.179688 102.671875 " fill-opacity="1" fill-rule="nonzero"/></g><path fill="#f9b635" d="M 118.058594 328.984375 C 149.273438 321.378906 168.40625 289.910156 160.796875 258.699219 C 153.183594 227.492188 121.714844 208.359375 90.496094 215.972656 C 59.28125 223.578125 40.144531 255.046875 47.753906 286.257812 C 55.371094 317.464844 86.84375 336.59375 118.058594 328.984375 " fill-opacity="1" fill-rule="nonzero"/><path fill="#0e0f11" d="M 118.058594 328.984375 L 118.292969 329.957031 C 145.339844 323.363281 163.464844 299.171875 163.464844 272.527344 C 163.464844 267.882812 162.914062 263.171875 161.769531 258.460938 C 155.171875 231.425781 130.976562 213.300781 104.320312 213.300781 C 99.683594 213.300781 94.964844 213.851562 90.257812 214.996094 C 63.214844 221.589844 45.085938 245.785156 45.085938 272.429688 C 45.085938 277.074219 45.636719 281.785156 46.785156 286.496094 C 53.378906 313.53125 77.578125 331.65625 104.230469 331.65625 C 108.871094 331.65625 113.585938 331.105469 118.292969 329.957031 L 118.058594 328.984375 L 117.820312 328.015625 C 113.269531 329.121094 108.714844 329.65625 104.230469 329.65625 C 78.488281 329.65625 55.097656 312.140625 48.730469 286.019531 C 47.617188 281.46875 47.089844 276.914062 47.089844 272.429688 C 47.089844 246.691406 64.605469 223.308594 90.734375 216.941406 C 95.285156 215.835938 99.839844 215.300781 104.320312 215.300781 C 130.066406 215.300781 153.453125 232.816406 159.824219 258.9375 C 160.933594 263.488281 161.464844 268.042969 161.464844 272.527344 C 161.464844 298.265625 143.945312 321.648438 117.820312 328.015625 L 118.058594 328.984375 " fill-opacity="1" fill-rule="nonzero"/><path fill="#f9b635" d="M 104.246094 314.917969 C 84.636719 314.914062 67.695312 301.597656 63.046875 282.527344 C 57.5 259.796875 71.492188 236.796875 94.222656 231.257812 C 97.535156 230.449219 100.929688 230.039062 104.3125 230.039062 C 123.914062 230.039062 140.855469 243.359375 145.507812 262.429688 C 151.050781 285.160156 137.066406 308.160156 114.332031 313.703125 C 111.015625 314.507812 107.625 314.917969 104.25 314.917969 L 104.246094 314.917969 " fill-opacity="1" fill-rule="nonzero"/><path fill="#0e0f11" d="M 104.3125 229.039062 C 100.851562 229.039062 97.378906 229.457031 93.988281 230.285156 C 70.714844 235.957031 56.398438 259.5 62.074219 282.765625 C 66.832031 302.285156 84.175781 315.917969 104.246094 315.917969 C 107.703125 315.917969 111.175781 315.5 114.566406 314.671875 C 137.835938 309 152.15625 285.457031 146.480469 262.191406 C 141.71875 242.671875 124.378906 229.039062 104.3125 229.039062 M 104.3125 231.039062 C 122.96875 231.039062 139.917969 243.734375 144.535156 262.664062 C 149.957031 284.894531 136.328125 307.308594 114.09375 312.726562 C 110.792969 313.53125 107.496094 313.914062 104.246094 313.914062 C 85.585938 313.914062 68.636719 301.222656 64.019531 282.292969 C 58.597656 260.066406 72.226562 237.648438 94.460938 232.230469 C 97.761719 231.421875 101.0625 231.039062 104.3125 231.039062 " fill-opacity="1" fill-rule="nonzero"/><path fill="#a27522" d="M 104.25 313.914062 C 96.488281 313.914062 89.023438 311.722656 82.621094 307.792969 C 85.878906 308.613281 89.261719 309.050781 92.699219 309.050781 C 95.941406 309.050781 99.234375 308.664062 102.523438 307.863281 C 124.757812 302.445312 138.386719 280.027344 132.964844 257.800781 C 130.265625 246.738281 123.359375 237.8125 114.359375 232.296875 C 128.050781 235.742188 139.542969 246.085938 143.898438 260.339844 L 143.898438 260.34375 C 143.90625 260.359375 143.910156 260.375 143.910156 260.386719 C 143.929688 260.445312 143.945312 260.5 143.964844 260.554688 C 143.964844 260.558594 143.964844 260.5625 143.96875 260.566406 C 143.972656 260.582031 143.972656 260.589844 143.976562 260.601562 C 143.976562 260.609375 143.976562 260.613281 143.980469 260.617188 C 143.984375 260.625 143.984375 260.636719 143.988281 260.648438 C 143.992188 260.652344 143.992188 260.65625 143.996094 260.664062 C 144.007812 260.699219 144.015625 260.734375 144.023438 260.769531 C 144.027344 260.777344 144.03125 260.785156 144.03125 260.789062 C 144.035156 260.796875 144.039062 260.808594 144.042969 260.816406 C 144.042969 260.824219 144.046875 260.828125 144.046875 260.839844 C 144.046875 260.847656 144.050781 260.855469 144.054688 260.863281 C 144.054688 260.875 144.058594 260.882812 144.0625 260.890625 C 144.0625 260.898438 144.066406 260.90625 144.070312 260.914062 C 144.070312 260.925781 144.078125 260.9375 144.082031 260.949219 C 144.082031 260.957031 144.082031 260.964844 144.085938 260.976562 C 144.089844 260.988281 144.09375 261 144.097656 261.011719 C 144.097656 261.019531 144.101562 261.023438 144.101562 261.03125 C 144.105469 261.039062 144.109375 261.050781 144.113281 261.0625 C 144.113281 261.066406 144.117188 261.074219 144.117188 261.082031 C 144.117188 261.09375 144.121094 261.101562 144.125 261.113281 C 144.125 261.121094 144.128906 261.128906 144.128906 261.128906 C 144.136719 261.144531 144.140625 261.160156 144.144531 261.171875 C 144.144531 261.175781 144.144531 261.179688 144.144531 261.183594 C 144.148438 261.199219 144.152344 261.214844 144.160156 261.230469 C 144.160156 261.234375 144.160156 261.238281 144.160156 261.242188 C 144.164062 261.257812 144.167969 261.269531 144.175781 261.28125 C 144.175781 261.289062 144.175781 261.296875 144.179688 261.300781 C 144.183594 261.308594 144.183594 261.324219 144.1875 261.335938 C 144.1875 261.339844 144.191406 261.34375 144.191406 261.351562 C 144.195312 261.367188 144.199219 261.375 144.203125 261.390625 C 144.203125 261.394531 144.207031 261.398438 144.207031 261.402344 C 144.21875 261.4375 144.222656 261.472656 144.234375 261.503906 C 144.234375 261.503906 144.238281 261.511719 144.238281 261.515625 C 144.242188 261.53125 144.246094 261.539062 144.25 261.554688 C 144.25 261.5625 144.253906 261.566406 144.253906 261.570312 C 144.253906 261.582031 144.257812 261.597656 144.261719 261.609375 C 144.265625 261.613281 144.265625 261.617188 144.265625 261.621094 C 144.277344 261.652344 144.285156 261.691406 144.292969 261.722656 C 144.292969 261.726562 144.292969 261.730469 144.296875 261.734375 C 144.300781 261.746094 144.304688 261.761719 144.308594 261.777344 C 144.308594 261.78125 144.3125 261.785156 144.3125 261.789062 C 144.316406 261.804688 144.320312 261.816406 144.320312 261.828125 C 144.320312 261.835938 144.324219 261.835938 144.324219 261.84375 C 144.328125 261.855469 144.332031 261.871094 144.339844 261.886719 C 144.339844 261.890625 144.339844 261.890625 144.339844 261.890625 C 144.351562 261.929688 144.355469 261.960938 144.367188 261.996094 C 144.367188 262 144.367188 262.007812 144.367188 262.007812 C 144.375 262.019531 144.378906 262.035156 144.382812 262.050781 C 144.382812 262.054688 144.382812 262.058594 144.386719 262.0625 C 144.390625 262.078125 144.390625 262.089844 144.394531 262.105469 C 144.394531 262.109375 144.394531 262.113281 144.394531 262.117188 C 144.40625 262.152344 144.417969 262.1875 144.425781 262.21875 C 144.425781 262.222656 144.425781 262.222656 144.425781 262.226562 C 144.429688 262.242188 144.433594 262.257812 144.4375 262.269531 C 144.4375 262.273438 144.4375 262.28125 144.441406 262.285156 C 144.445312 262.296875 144.449219 262.3125 144.453125 262.324219 C 144.453125 262.328125 144.453125 262.332031 144.457031 262.335938 C 144.457031 262.355469 144.460938 262.367188 144.464844 262.386719 C 144.464844 262.386719 144.464844 262.386719 144.464844 262.390625 C 144.472656 262.40625 144.476562 262.425781 144.480469 262.441406 C 144.480469 262.441406 144.480469 262.445312 144.480469 262.449219 C 144.488281 262.464844 144.492188 262.476562 144.492188 262.496094 C 144.492188 262.5 144.496094 262.5 144.496094 262.507812 C 144.5 262.519531 144.503906 262.53125 144.503906 262.542969 C 144.507812 262.550781 144.507812 262.554688 144.507812 262.5625 C 144.511719 262.570312 144.515625 262.585938 144.519531 262.601562 C 144.519531 262.601562 144.523438 262.605469 144.523438 262.613281 C 144.527344 262.628906 144.53125 262.648438 144.535156 262.664062 C 148.414062 278.578125 142.535156 294.582031 130.726562 304.382812 C 126.035156 308.273438 120.410156 311.1875 114.09375 312.726562 C 113.421875 312.890625 112.753906 313.035156 112.082031 313.164062 C 109.457031 313.671875 106.835938 313.914062 104.25 313.914062 " fill-opacity="1" fill-rule="nonzero"/><path fill="#0b0c0c" d="M 112.082031 313.164062 C 112.753906 313.035156 113.421875 312.890625 114.09375 312.726562 C 120.410156 311.1875 126.035156 308.273438 130.726562 304.382812 C 126.035156 308.273438 120.410156 311.1875 114.09375 312.726562 C 113.421875 312.890625 112.753906 313.035156 112.082031 313.164062 M 144.535156 262.664062 C 144.53125 262.648438 144.527344 262.628906 144.523438 262.613281 C 144.527344 262.628906 144.53125 262.648438 144.535156 262.664062 M 144.519531 262.601562 C 144.515625 262.585938 144.511719 262.570312 144.507812 262.5625 C 144.511719 262.574219 144.515625 262.585938 144.519531 262.601562 M 144.503906 262.542969 C 144.503906 262.53125 144.5 262.519531 144.496094 262.507812 C 144.5 262.519531 144.503906 262.53125 144.503906 262.542969 M 144.492188 262.496094 C 144.492188 262.476562 144.488281 262.464844 144.480469 262.449219 C 144.488281 262.464844 144.492188 262.476562 144.492188 262.496094 M 144.480469 262.441406 C 144.476562 262.425781 144.472656 262.40625 144.464844 262.390625 C 144.472656 262.40625 144.476562 262.425781 144.480469 262.441406 M 144.464844 262.386719 C 144.460938 262.367188 144.457031 262.355469 144.457031 262.335938 C 144.457031 262.355469 144.460938 262.367188 144.464844 262.386719 M 144.453125 262.324219 C 144.449219 262.3125 144.445312 262.296875 144.441406 262.285156 C 144.445312 262.296875 144.449219 262.3125 144.453125 262.324219 M 144.4375 262.269531 C 144.433594 262.257812 144.429688 262.242188 144.425781 262.226562 C 144.429688 262.242188 144.433594 262.257812 144.4375 262.269531 M 144.425781 262.21875 C 144.417969 262.1875 144.40625 262.152344 144.394531 262.117188 C 144.40625 262.152344 144.417969 262.183594 144.425781 262.21875 M 144.394531 262.105469 C 144.390625 262.089844 144.390625 262.078125 144.386719 262.0625 C 144.390625 262.078125 144.390625 262.089844 144.394531 262.105469 M 144.382812 262.050781 C 144.378906 262.035156 144.375 262.019531 144.367188 262.007812 C 144.375 262.019531 144.378906 262.035156 144.382812 262.050781 M 144.367188 261.996094 C 144.355469 261.960938 144.351562 261.929688 144.339844 261.890625 C 144.351562 261.929688 144.355469 261.960938 144.367188 261.996094 M 144.339844 261.886719 C 144.332031 261.871094 144.328125 261.855469 144.324219 261.84375 C 144.328125 261.855469 144.332031 261.875 144.339844 261.886719 M 144.320312 261.828125 C 144.320312 261.816406 144.316406 261.804688 144.3125 261.789062 C 144.316406 261.804688 144.320312 261.816406 144.320312 261.828125 M 144.308594 261.777344 C 144.304688 261.761719 144.300781 261.746094 144.296875 261.734375 C 144.300781 261.746094 144.304688 261.761719 144.308594 261.777344 M 144.292969 261.722656 C 144.285156 261.691406 144.277344 261.652344 144.265625 261.621094 C 144.277344 261.65625 144.285156 261.691406 144.292969 261.722656 M 144.261719 261.609375 C 144.257812 261.597656 144.253906 261.582031 144.253906 261.570312 C 144.253906 261.582031 144.257812 261.597656 144.261719 261.609375 M 144.25 261.554688 C 144.246094 261.539062 144.242188 261.53125 144.238281 261.515625 C 144.242188 261.53125 144.246094 261.539062 144.25 261.554688 M 144.234375 261.503906 C 144.222656 261.472656 144.21875 261.4375 144.207031 261.402344 C 144.21875 261.4375 144.222656 261.472656 144.234375 261.503906 M 144.203125 261.390625 C 144.199219 261.375 144.195312 261.367188 144.191406 261.351562 C 144.195312 261.367188 144.199219 261.375 144.203125 261.390625 M 144.1875 261.335938 C 144.183594 261.324219 144.183594 261.308594 144.179688 261.300781 C 144.183594 261.308594 144.183594 261.320312 144.1875 261.335938 M 144.175781 261.28125 C 144.167969 261.269531 144.164062 261.257812 144.160156 261.242188 C 144.167969 261.257812 144.167969 261.265625 144.175781 261.28125 M 144.160156 261.230469 C 144.152344 261.214844 144.148438 261.199219 144.144531 261.183594 C 144.148438 261.199219 144.152344 261.214844 144.160156 261.230469 M 144.144531 261.171875 C 144.140625 261.160156 144.136719 261.144531 144.128906 261.128906 C 144.136719 261.144531 144.140625 261.160156 144.144531 261.171875 M 144.125 261.113281 C 144.121094 261.101562 144.117188 261.09375 144.117188 261.082031 C 144.117188 261.09375 144.121094 261.101562 144.125 261.113281 M 144.113281 261.0625 C 144.109375 261.050781 144.105469 261.039062 144.101562 261.03125 C 144.105469 261.039062 144.109375 261.050781 144.113281 261.0625 M 144.097656 261.011719 C 144.09375 261 144.089844 260.988281 144.085938 260.976562 C 144.089844 260.988281 144.09375 260.996094 144.097656 261.011719 M 144.082031 260.949219 C 144.078125 260.9375 144.070312 260.925781 144.070312 260.914062 C 144.074219 260.925781 144.078125 260.9375 144.082031 260.949219 M 144.0625 260.890625 C 144.058594 260.882812 144.054688 260.875 144.054688 260.863281 C 144.054688 260.875 144.058594 260.882812 144.0625 260.890625 M 144.046875 260.839844 C 144.046875 260.828125 144.042969 260.824219 144.042969 260.816406 C 144.042969 260.824219 144.046875 260.832031 144.046875 260.839844 M 144.03125 260.789062 C 144.03125 260.785156 144.027344 260.777344 144.023438 260.769531 C 144.027344 260.777344 144.03125 260.785156 144.03125 260.789062 M 143.996094 260.664062 C 143.992188 260.65625 143.992188 260.652344 143.988281 260.648438 C 143.992188 260.652344 143.992188 260.65625 143.996094 260.664062 M 143.980469 260.617188 C 143.976562 260.613281 143.976562 260.609375 143.976562 260.601562 C 143.976562 260.605469 143.976562 260.613281 143.980469 260.617188 M 143.96875 260.566406 C 143.964844 260.5625 143.964844 260.558594 143.964844 260.554688 C 143.964844 260.558594 143.964844 260.5625 143.96875 260.566406 M 143.898438 260.34375 L 143.898438 260.339844 C 143.898438 260.339844 143.898438 260.339844 143.898438 260.34375 " fill-opacity="1" fill-rule="nonzero"/><path fill="#0e0f11" d="M 134.03125 314.832031 C 134.785156 314.300781 134.964844 313.261719 134.4375 312.507812 C 133.90625 311.753906 132.863281 311.570312 132.109375 312.101562 C 131.355469 312.628906 131.175781 313.671875 131.703125 314.425781 C 132.234375 315.179688 133.273438 315.359375 134.03125 314.832031 Z M 147.410156 301.066406 C 147.921875 300.296875 147.714844 299.265625 146.941406 298.753906 C 146.171875 298.246094 145.140625 298.457031 144.628906 299.226562 C 144.121094 299.992188 144.332031 301.027344 145.101562 301.535156 C 145.867188 302.042969 146.902344 301.832031 147.410156 301.066406 Z M 154.878906 283.382812 C 155.074219 282.484375 154.5 281.597656 153.597656 281.398438 C 152.699219 281.207031 151.808594 281.777344 151.617188 282.679688 C 151.421875 283.582031 151.992188 284.46875 152.894531 284.664062 C 153.792969 284.855469 154.679688 284.285156 154.878906 283.382812 Z M 155.367188 264.195312 C 155.214844 263.285156 154.359375 262.667969 153.445312 262.816406 C 152.539062 262.964844 151.921875 263.820312 152.070312 264.730469 C 152.21875 265.640625 153.074219 266.257812 153.988281 266.109375 C 154.894531 265.957031 155.511719 265.101562 155.367188 264.195312 Z M 148.835938 246.136719 C 148.367188 245.347656 147.34375 245.082031 146.550781 245.554688 C 145.761719 246.019531 145.492188 247.042969 145.964844 247.835938 C 146.433594 248.628906 147.457031 248.894531 148.25 248.425781 C 149.042969 247.953125 149.304688 246.933594 148.835938 246.136719 Z M 136.160156 231.722656 C 135.4375 231.152344 134.386719 231.28125 133.820312 232.007812 C 133.25 232.734375 133.378906 233.78125 134.105469 234.351562 C 134.832031 234.914062 135.882812 234.789062 136.449219 234.0625 C 137.015625 233.332031 136.886719 232.285156 136.160156 231.722656 Z M 119.109375 222.898438 C 118.226562 222.636719 117.296875 223.132812 117.03125 224.019531 C 116.769531 224.902344 117.269531 225.832031 118.152344 226.097656 C 119.035156 226.359375 119.964844 225.859375 120.230469 224.980469 C 120.496094 224.09375 119.996094 223.164062 119.109375 222.898438 Z M 100.011719 220.90625 C 99.09375 220.980469 98.414062 221.789062 98.492188 222.707031 C 98.566406 223.625 99.375 224.308594 100.292969 224.230469 C 101.210938 224.15625 101.890625 223.347656 101.816406 222.429688 C 101.738281 221.511719 100.929688 220.828125 100.011719 220.90625 Z M 81.507812 226.003906 C 80.679688 226.410156 80.335938 227.410156 80.738281 228.234375 C 81.140625 229.0625 82.140625 229.40625 82.972656 229 C 83.800781 228.597656 84.140625 227.597656 83.738281 226.769531 C 83.332031 225.941406 82.332031 225.597656 81.507812 226.003906 Z M 66.128906 237.507812 C 65.507812 238.1875 65.554688 239.242188 66.234375 239.863281 C 66.914062 240.484375 67.96875 240.4375 68.589844 239.757812 C 69.214844 239.082031 69.167969 238.023438 68.488281 237.402344 C 67.808594 236.78125 66.753906 236.824219 66.128906 237.507812 Z M 56.003906 253.8125 C 55.671875 254.671875 56.097656 255.636719 56.957031 255.96875 C 57.816406 256.300781 58.785156 255.878906 59.117188 255.019531 C 59.453125 254.160156 59.023438 253.191406 58.164062 252.859375 C 57.304688 252.527344 56.335938 252.953125 56.003906 253.8125 Z M 52.515625 272.6875 C 52.519531 273.609375 53.269531 274.351562 54.191406 274.347656 C 55.113281 274.34375 55.855469 273.59375 55.851562 272.671875 C 55.847656 271.75 55.09375 271.007812 54.171875 271.011719 C 53.253906 271.019531 52.507812 271.769531 52.515625 272.6875 Z M 56.15625 291.535156 C 56.496094 292.390625 57.460938 292.8125 58.320312 292.472656 C 59.175781 292.136719 59.597656 291.167969 59.261719 290.308594 C 58.921875 289.453125 57.953125 289.03125 57.09375 289.371094 C 56.238281 289.710938 55.816406 290.675781 56.15625 291.535156 Z M 66.414062 307.761719 C 67.042969 308.4375 68.097656 308.472656 68.773438 307.84375 C 69.445312 307.214844 69.480469 306.160156 68.851562 305.488281 C 68.226562 304.8125 67.171875 304.777344 66.496094 305.40625 C 65.824219 306.035156 65.785156 307.089844 66.414062 307.765625 Z M 81.886719 319.128906 C 82.714844 319.527344 83.714844 319.179688 84.117188 318.347656 C 84.511719 317.515625 84.164062 316.519531 83.332031 316.121094 C 82.503906 315.722656 81.503906 316.074219 81.105469 316.902344 C 80.707031 317.730469 81.054688 318.730469 81.886719 319.128906 Z M 100.429688 324.089844 C 101.347656 324.15625 102.148438 323.464844 102.21875 322.546875 C 102.285156 321.628906 101.597656 320.832031 100.675781 320.761719 C 99.757812 320.695312 98.957031 321.382812 98.890625 322.304688 C 98.820312 323.222656 99.511719 324.019531 100.429688 324.089844 Z M 116.535156 322.746094 C 117.429688 322.527344 117.980469 321.625 117.761719 320.730469 C 117.542969 319.835938 116.640625 319.289062 115.746094 319.503906 C 114.851562 319.722656 114.304688 320.625 114.519531 321.519531 C 114.738281 322.414062 115.640625 322.964844 116.535156 322.746094 " fill-opacity="1" fill-rule="nonzero"/><path fill="#0e0f11" d="M 105.957031 280.464844 L 105.957031 292.753906 C 109.011719 292.054688 110.535156 290.363281 110.535156 287.675781 C 110.535156 285.398438 109.011719 282.992188 105.957031 280.464844 Z M 101.988281 266.164062 L 101.988281 254.460938 C 99.25 254.957031 97.882812 256.527344 97.882812 259.175781 C 97.882812 260.328125 98.144531 261.34375 98.664062 262.222656 C 99.1875 263.105469 100.292969 264.417969 101.988281 266.164062 Z M 101.988281 292.585938 L 101.988281 276.703125 C 98.347656 273.246094 95.578125 270.136719 93.691406 267.367188 C 91.800781 264.597656 90.859375 261.886719 90.859375 259.246094 C 90.859375 256.191406 91.863281 253.617188 93.859375 251.527344 C 95.863281 249.4375 98.570312 248.265625 101.988281 248.019531 L 101.988281 239.992188 L 105.957031 239.992188 L 105.957031 248.289062 C 112.652344 249.53125 116.214844 253.835938 116.640625 261.210938 L 110.128906 261.210938 C 109.902344 257.636719 108.511719 255.457031 105.957031 254.664062 L 105.957031 269.664062 C 109.871094 273.050781 112.804688 276.085938 114.757812 278.761719 C 116.714844 281.441406 117.695312 284.339844 117.695312 287.460938 C 117.695312 290.652344 116.640625 293.347656 114.542969 295.554688 C 112.4375 297.757812 109.574219 299.019531 105.957031 299.332031 L 105.957031 304.964844 L 101.988281 304.964844 L 101.988281 299.332031 C 94.90625 298.363281 91.199219 294.007812 90.859375 286.277344 L 97.609375 286.277344 C 97.996094 289.714844 99.453125 291.816406 101.988281 292.585938 " fill-opacity="1" fill-rule="nonzero"/><path fill="#2f3240" d="M 114.378906 146.820312 C 114.378906 152.398438 109.855469 156.921875 104.277344 156.921875 C 98.695312 156.921875 94.171875 152.398438 94.171875 146.820312 C 94.171875 141.242188 98.695312 136.71875 104.277344 136.71875 C 109.855469 136.71875 114.378906 141.242188 114.378906 146.820312 " fill-opacity="1" fill-rule="nonzero"/><path fill="#0e0f11" d="M 114.378906 146.820312 L 113.304688 146.820312 C 113.304688 149.3125 112.296875 151.5625 110.660156 153.199219 C 109.023438 154.835938 106.773438 155.84375 104.277344 155.84375 C 101.78125 155.84375 99.53125 154.835938 97.894531 153.199219 C 96.261719 151.5625 95.25 149.3125 95.25 146.820312 C 95.25 144.324219 96.261719 142.070312 97.894531 140.433594 C 99.53125 138.800781 101.78125 137.792969 104.277344 137.789062 C 106.773438 137.792969 109.023438 138.800781 110.660156 140.433594 C 112.296875 142.070312 113.304688 144.324219 113.304688 146.820312 L 115.457031 146.820312 C 115.457031 140.644531 110.453125 135.640625 104.277344 135.640625 C 98.101562 135.640625 93.097656 140.644531 93.097656 146.820312 C 93.097656 152.988281 98.101562 157.992188 104.277344 157.996094 C 110.453125 157.992188 115.457031 152.988281 115.457031 146.820312 L 114.378906 146.820312 " fill-opacity="1" fill-rule="nonzero"/><path fill="#1e2028" d="M 109.542969 154.148438 C 106.507812 152.890625 98.296875 149.457031 95.292969 147.714844 C 95.265625 147.417969 95.25 147.121094 95.25 146.820312 C 95.25 144.519531 96.105469 142.429688 97.519531 140.835938 C 99.613281 141.523438 101.898438 141.832031 104.277344 141.832031 C 106.652344 141.832031 108.941406 141.523438 111.035156 140.835938 C 112.449219 142.429688 113.304688 144.519531 113.304688 146.820312 C 113.304688 149.3125 112.296875 151.5625 110.660156 153.199219 C 110.316406 153.542969 109.941406 153.863281 109.542969 154.148438 " fill-opacity="1" fill-rule="nonzero"/><path fill="#0b0c0c" d="M 110.695312 154.621094 C 110.695312 154.621094 110.265625 154.445312 109.542969 154.148438 C 109.941406 153.863281 110.316406 153.542969 110.660156 153.199219 C 112.296875 151.5625 113.304688 149.3125 113.304688 146.820312 C 113.304688 144.519531 112.449219 142.429688 111.035156 140.835938 C 111.398438 140.714844 111.757812 140.582031 112.109375 140.4375 C 113.527344 142.175781 114.378906 144.398438 114.378906 146.820312 C 114.378906 147.902344 114.378906 151.839844 110.695312 154.621094 M 95.292969 147.714844 C 94.589844 147.304688 94.171875 146.992188 94.171875 146.820312 C 94.171875 144.394531 95.027344 142.175781 96.441406 140.4375 C 96.796875 140.582031 97.152344 140.714844 97.519531 140.835938 C 96.105469 142.429688 95.25 144.519531 95.25 146.820312 C 95.25 147.121094 95.265625 147.417969 95.292969 147.714844 " fill-opacity="1" fill-rule="nonzero"/><path fill="#f9b635" d="M 140.992188 74.867188 C 140.992188 54.589844 124.558594 38.152344 104.277344 38.152344 C 84 38.152344 67.558594 54.589844 67.558594 74.867188 C 67.558594 86.425781 72.90625 96.726562 81.257812 103.457031 C 88.875 112.867188 88.457031 124.941406 88.457031 124.941406 C 88.457031 136.386719 95.539062 140.757812 104.277344 140.757812 C 113.011719 140.757812 120.097656 136.386719 120.097656 124.941406 C 120.097656 124.941406 119.679688 112.867188 127.296875 103.457031 C 135.644531 96.726562 140.992188 86.425781 140.992188 74.867188 " fill-opacity="1" fill-rule="nonzero"/><path fill="#0e0f11" d="M 140.992188 74.867188 L 142.070312 74.867188 C 142.070312 53.996094 125.148438 37.078125 104.277344 37.078125 C 83.402344 37.078125 66.484375 53.996094 66.484375 74.867188 C 66.484375 86.757812 71.988281 97.375 80.582031 104.296875 L 81.257812 103.457031 L 80.417969 104.136719 C 83.71875 108.207031 85.46875 112.832031 86.386719 116.699219 C 87.304688 120.5625 87.386719 123.652344 87.382812 124.601562 C 87.382812 124.707031 87.382812 124.785156 87.382812 124.835938 L 87.382812 124.890625 L 87.378906 124.90625 L 87.378906 124.941406 C 87.378906 127.910156 87.839844 130.46875 88.699219 132.636719 C 89.984375 135.890625 92.191406 138.238281 94.917969 139.714844 C 97.644531 141.195312 100.867188 141.832031 104.277344 141.832031 C 108.816406 141.832031 113.046875 140.699219 116.175781 137.949219 C 117.734375 136.574219 118.996094 134.804688 119.855469 132.636719 C 120.714844 130.46875 121.171875 127.910156 121.171875 124.941406 L 121.171875 124.890625 C 121.167969 124.855469 121.167969 124.757812 121.167969 124.601562 C 121.167969 123.652344 121.25 120.5625 122.167969 116.699219 C 123.085938 112.832031 124.835938 108.207031 128.132812 104.136719 L 127.296875 103.457031 L 127.972656 104.296875 C 136.566406 97.371094 142.070312 86.757812 142.070312 74.867188 L 139.917969 74.867188 C 139.917969 86.089844 134.730469 96.085938 126.621094 102.621094 L 126.460938 102.78125 C 122.894531 107.183594 121.042969 112.117188 120.074219 116.203125 C 119.105469 120.285156 119.015625 123.527344 119.015625 124.601562 C 119.015625 124.835938 119.019531 124.96875 119.019531 124.980469 L 120.097656 124.941406 L 119.019531 124.941406 C 119.019531 127.691406 118.59375 129.972656 117.851562 131.84375 C 116.738281 134.648438 114.929688 136.554688 112.609375 137.824219 C 110.289062 139.089844 107.421875 139.683594 104.277344 139.679688 C 100.078125 139.679688 96.398438 138.628906 93.800781 136.332031 C 92.5 135.183594 91.445312 133.714844 90.703125 131.84375 C 89.957031 129.972656 89.535156 127.691406 89.535156 124.941406 L 88.457031 124.941406 L 89.535156 124.980469 C 89.535156 124.964844 89.535156 124.835938 89.535156 124.601562 C 89.535156 123.527344 89.449219 120.285156 88.480469 116.203125 C 87.511719 112.117188 85.660156 107.1875 82.09375 102.78125 L 81.933594 102.621094 C 73.824219 96.085938 68.636719 86.089844 68.636719 74.867188 C 68.636719 65.019531 72.625 56.117188 79.074219 49.667969 C 85.527344 43.21875 94.429688 39.230469 104.277344 39.230469 C 114.125 39.230469 123.027344 43.21875 129.480469 49.667969 C 135.933594 56.117188 139.917969 65.019531 139.917969 74.867188 L 140.992188 74.867188 " fill-opacity="1" fill-rule="nonzero"/><path fill="#a27522" d="M 104.285156 139.679688 C 104.28125 139.679688 104.28125 139.679688 104.277344 139.679688 C 102.300781 139.679688 100.445312 139.449219 98.757812 138.964844 C 103.175781 136.734375 106.105469 132.304688 106.105469 124.941406 C 106.105469 124.941406 105.691406 112.867188 113.308594 103.457031 C 121.65625 96.726562 127.003906 86.425781 127.003906 74.867188 C 127.003906 57.972656 115.59375 43.753906 100.0625 39.476562 C 101.441406 39.3125 102.847656 39.230469 104.277344 39.230469 C 114.125 39.230469 123.027344 43.21875 129.480469 49.667969 C 135.933594 56.117188 139.917969 65.019531 139.917969 74.867188 C 139.917969 86.089844 134.730469 96.085938 126.621094 102.621094 L 126.460938 102.78125 C 122.894531 107.183594 121.042969 112.117188 120.074219 116.203125 C 119.105469 120.285156 119.015625 123.527344 119.015625 124.601562 C 119.015625 124.789062 119.019531 124.910156 119.019531 124.957031 C 119.019531 127.699219 118.59375 129.976562 117.851562 131.84375 C 116.738281 134.648438 114.929688 136.554688 112.609375 137.824219 C 110.289062 139.089844 107.425781 139.679688 104.285156 139.679688 " fill-opacity="1" fill-rule="nonzero"/><path fill="#0b0c0c" d="M 104.277344 140.757812 C 101.765625 140.757812 99.390625 140.394531 97.285156 139.605469 C 97.789062 139.417969 98.285156 139.203125 98.757812 138.964844 C 100.445312 139.449219 102.300781 139.679688 104.277344 139.679688 C 104.28125 139.679688 104.28125 139.679688 104.285156 139.679688 C 107.425781 139.679688 110.289062 139.089844 112.609375 137.824219 C 114.929688 136.554688 116.738281 134.648438 117.851562 131.84375 C 118.59375 129.976562 119.019531 127.699219 119.019531 124.957031 C 119.019531 124.910156 119.015625 124.789062 119.015625 124.601562 C 119.015625 123.527344 119.105469 120.285156 120.074219 116.203125 C 121.042969 112.117188 122.894531 107.183594 126.460938 102.78125 L 126.621094 102.621094 C 134.730469 96.085938 139.917969 86.089844 139.917969 74.867188 C 139.917969 65.019531 135.933594 56.117188 129.480469 49.667969 C 123.027344 43.21875 114.125 39.230469 104.277344 39.230469 C 102.847656 39.230469 101.441406 39.3125 100.0625 39.476562 C 99.144531 39.226562 98.21875 39.007812 97.285156 38.828125 C 99.546875 38.390625 101.886719 38.152344 104.277344 38.152344 C 124.558594 38.152344 140.992188 54.589844 140.992188 74.867188 C 140.992188 86.425781 135.644531 96.726562 127.296875 103.457031 C 119.679688 112.867188 120.097656 124.941406 120.097656 124.941406 C 120.097656 136.386719 113.011719 140.757812 104.277344 140.757812 " fill-opacity="1" fill-rule="nonzero"/><path fill="#2f3240" d="M 120.453125 146.820312 L 88.097656 146.820312 L 88.097656 128.070312 L 120.453125 128.070312 L 120.453125 146.820312 " fill-opacity="1" fill-rule="nonzero"/><path fill="#0e0f11" d="M 120.453125 146.820312 L 120.453125 145.742188 L 89.175781 145.742188 L 89.175781 129.148438 L 119.378906 129.148438 L 119.378906 146.820312 L 120.453125 146.820312 L 120.453125 145.742188 L 120.453125 146.820312 L 121.53125 146.820312 L 121.53125 128.070312 C 121.53125 127.792969 121.414062 127.515625 121.214844 127.3125 C 121.015625 127.109375 120.738281 127 120.453125 127 L 88.097656 127 C 87.816406 127 87.539062 127.109375 87.339844 127.3125 C 87.136719 127.515625 87.023438 127.792969 87.023438 128.070312 L 87.023438 146.820312 C 87.023438 147.101562 87.136719 147.378906 87.339844 147.578125 C 87.539062 147.78125 87.816406 147.894531 88.097656 147.894531 L 120.453125 147.894531 C 120.738281 147.894531 121.015625 147.78125 121.214844 147.578125 C 121.414062 147.378906 121.53125 147.101562 121.53125 146.820312 L 120.453125 146.820312 " fill-opacity="1" fill-rule="nonzero"/><path fill="#0e0f11" d="M 95.980469 133.785156 L 120.453125 133.785156 C 121.050781 133.785156 121.53125 133.304688 121.53125 132.714844 C 121.53125 132.117188 121.050781 131.636719 120.453125 131.636719 L 95.980469 131.636719 C 95.386719 131.636719 94.90625 132.117188 94.90625 132.714844 C 94.90625 133.304688 95.386719 133.785156 95.980469 133.785156 " fill-opacity="1" fill-rule="nonzero"/><path fill="#0e0f11" d="M 95.980469 143.230469 L 120.453125 143.230469 C 121.050781 143.230469 121.53125 142.75 121.53125 142.15625 C 121.53125 141.558594 121.050781 141.078125 120.453125 141.078125 L 95.980469 141.078125 C 95.386719 141.078125 94.90625 141.558594 94.90625 142.15625 C 94.90625 142.75 95.386719 143.230469 95.980469 143.230469 " fill-opacity="1" fill-rule="nonzero"/><path fill="#0e0f11" d="M 88.097656 138.519531 L 112.574219 138.519531 C 113.167969 138.519531 113.652344 138.039062 113.652344 137.445312 C 113.652344 136.851562 113.167969 136.371094 112.574219 136.371094 L 88.097656 136.371094 C 87.507812 136.371094 87.023438 136.851562 87.023438 137.445312 C 87.023438 138.039062 87.507812 138.519531 88.097656 138.519531 " fill-opacity="1" fill-rule="nonzero"/><path fill="#f9b635" d="M 217.34375 309.019531 C 216.746094 309.019531 216.265625 308.542969 216.265625 307.945312 L 216.265625 236.3125 C 216.265625 235.722656 216.746094 235.238281 217.34375 235.238281 L 327.054688 235.238281 C 327.644531 235.238281 328.128906 235.722656 328.128906 236.3125 L 328.128906 307.945312 C 328.128906 308.542969 327.644531 309.019531 327.054688 309.019531 L 217.34375 309.019531 " fill-opacity="1" fill-rule="nonzero"/><path fill="#0e0f11" d="M 327.054688 234.160156 L 217.34375 234.160156 C 216.15625 234.160156 215.191406 235.125 215.191406 236.3125 L 215.191406 307.949219 C 215.191406 309.132812 216.15625 310.097656 217.34375 310.097656 L 327.054688 310.097656 C 328.242188 310.097656 329.207031 309.132812 329.207031 307.949219 L 329.207031 236.3125 C 329.207031 235.125 328.242188 234.160156 327.054688 234.160156 M 327.054688 236.3125 L 327.054688 307.949219 L 217.34375 307.949219 L 217.34375 236.3125 L 327.054688 236.3125 " fill-opacity="1" fill-rule="nonzero"/><path fill="#0e0f11" d="M 221.484375 240.453125 L 271.5 283.066406 C 271.902344 283.410156 272.492188 283.410156 272.894531 283.066406 L 322.910156 240.453125 C 323.363281 240.066406 323.417969 239.386719 323.03125 238.933594 C 322.644531 238.480469 321.96875 238.429688 321.515625 238.8125 L 272.199219 280.835938 L 222.878906 238.8125 C 222.429688 238.429688 221.746094 238.480469 221.363281 238.933594 C 220.976562 239.386719 221.03125 240.066406 221.484375 240.453125 " fill-opacity="1" fill-rule="nonzero"/><path fill="#c9922b" d="M 327.054688 307.949219 L 217.34375 307.949219 L 217.34375 295.949219 C 226.296875 299.21875 236.3125 301.046875 246.890625 301.046875 C 284.925781 301.046875 315.761719 277.390625 315.761719 248.210938 C 315.761719 247.664062 315.75 247.117188 315.726562 246.570312 L 322.910156 240.453125 C 323.363281 240.066406 323.417969 239.386719 323.03125 238.933594 C 322.820312 238.683594 322.515625 238.554688 322.214844 238.554688 C 321.964844 238.554688 321.714844 238.636719 321.515625 238.8125 L 315.535156 243.910156 C 315.261719 241.320312 314.746094 238.785156 314.007812 236.3125 L 327.054688 236.3125 L 327.054688 307.949219 " fill-opacity="1" fill-rule="nonzero"/><path fill="#0c0d0e" d="M 315.726562 246.570312 C 315.691406 245.679688 315.628906 244.789062 315.535156 243.910156 L 321.515625 238.8125 C 321.714844 238.636719 321.964844 238.554688 322.214844 238.554688 C 322.515625 238.554688 322.820312 238.683594 323.03125 238.933594 C 323.417969 239.386719 323.363281 240.066406 322.910156 240.453125 L 315.726562 246.570312 " fill-opacity="1" fill-rule="nonzero"/><path fill="#2f3240" d="M 232.234375 147.753906 C 230.3125 147.753906 228.503906 147.007812 227.148438 145.652344 C 224.34375 142.847656 224.34375 138.285156 227.148438 135.480469 L 260.957031 101.675781 C 261.144531 101.492188 261.390625 101.398438 261.632812 101.398438 C 261.878906 101.398438 262.121094 101.492188 262.304688 101.675781 L 271.128906 110.5 C 271.5 110.871094 271.5 111.472656 271.128906 111.847656 L 237.320312 145.652344 C 235.960938 147.007812 234.15625 147.753906 232.234375 147.753906 " fill-opacity="1" fill-rule="nonzero"/><path fill="#0e0f11" d="M 261.632812 100.445312 C 261.144531 100.445312 260.65625 100.632812 260.28125 101.003906 L 226.476562 134.808594 C 223.296875 137.980469 223.296875 143.148438 226.476562 146.324219 C 228.011719 147.863281 230.058594 148.710938 232.234375 148.710938 C 234.40625 148.710938 236.457031 147.863281 237.996094 146.324219 L 271.800781 112.523438 C 272.160156 112.164062 272.363281 111.679688 272.363281 111.171875 C 272.363281 110.667969 272.160156 110.183594 271.800781 109.824219 L 262.980469 101.003906 C 262.609375 100.632812 262.121094 100.445312 261.632812 100.445312 Z M 261.632812 102.355469 L 270.457031 111.171875 L 236.644531 144.976562 C 235.429688 146.191406 233.828125 146.800781 232.234375 146.800781 C 230.636719 146.800781 229.042969 146.191406 227.820312 144.976562 C 225.386719 142.539062 225.386719 138.589844 227.820312 136.15625 L 261.632812 102.355469 " fill-opacity="1" fill-rule="nonzero"/><path fill="#2f3240" d="M 268.84375 119.828125 C 268.601562 119.828125 268.355469 119.738281 268.167969 119.546875 L 253.839844 105.222656 C 253.660156 105.042969 253.558594 104.800781 253.558594 104.550781 C 253.558594 104.296875 253.660156 104.050781 253.839844 103.871094 L 260.851562 96.863281 C 261.035156 96.675781 261.28125 96.582031 261.527344 96.582031 C 261.769531 96.582031 262.015625 96.675781 262.199219 96.863281 L 276.53125 111.191406 C 276.707031 111.367188 276.808594 111.609375 276.808594 111.863281 C 276.808594 112.117188 276.707031 112.359375 276.53125 112.539062 L 269.519531 119.546875 C 269.328125 119.738281 269.085938 119.828125 268.84375 119.828125 " fill-opacity="1" fill-rule="nonzero"/><path fill="#0e0f11" d="M 261.527344 95.628906 C 261.035156 95.628906 260.546875 95.816406 260.175781 96.1875 L 253.164062 103.199219 C 252.804688 103.554688 252.605469 104.039062 252.605469 104.550781 C 252.605469 105.054688 252.804688 105.542969 253.164062 105.898438 L 267.492188 120.226562 C 267.867188 120.597656 268.355469 120.78125 268.84375 120.78125 C 269.328125 120.78125 269.820312 120.597656 270.191406 120.226562 L 277.207031 113.210938 C 277.5625 112.855469 277.765625 112.371094 277.765625 111.863281 C 277.765625 111.359375 277.5625 110.875 277.207031 110.515625 L 262.875 96.1875 C 262.5 95.816406 262.015625 95.628906 261.527344 95.628906 Z M 261.527344 97.535156 L 275.855469 111.863281 L 268.84375 118.875 L 254.511719 104.550781 L 261.527344 97.535156 " fill-opacity="1" fill-rule="nonzero"/><path fill="#2f3240" d="M 288.195312 116.046875 C 279.757812 116.046875 271.886719 112.710938 266.027344 106.652344 C 254.199219 94.433594 254.515625 74.871094 266.738281 63.046875 C 272.519531 57.445312 280.136719 54.363281 288.1875 54.363281 C 296.617188 54.363281 304.488281 57.703125 310.355469 63.757812 C 316.082031 69.675781 319.167969 77.472656 319.035156 85.710938 C 318.898438 93.945312 315.5625 101.636719 309.640625 107.363281 C 303.859375 112.964844 296.242188 116.046875 288.195312 116.046875 " fill-opacity="1" fill-rule="nonzero"/><path fill="#0e0f11" d="M 288.191406 53.410156 L 288.191406 55.320312 L 288.1875 53.410156 C 279.890625 53.410156 272.035156 56.589844 266.074219 62.359375 C 253.476562 74.550781 253.144531 94.722656 265.339844 107.320312 C 271.386719 113.558594 279.5 117 288.195312 117 C 296.492188 117 304.34375 113.824219 310.304688 108.050781 C 322.90625 95.859375 323.234375 75.691406 311.042969 63.09375 C 304.996094 56.851562 296.878906 53.410156 288.191406 53.410156 Z M 288.1875 55.320312 C 296 55.320312 303.804688 58.363281 309.667969 64.421875 C 321.152344 76.28125 320.84375 95.203125 308.980469 106.679688 C 303.175781 112.296875 295.675781 115.09375 288.195312 115.09375 C 280.375 115.09375 272.574219 112.046875 266.710938 105.988281 C 255.226562 94.128906 255.535156 75.210938 267.402344 63.730469 C 273.203125 58.117188 280.699219 55.320312 288.1875 55.320312 " fill-opacity="1" fill-rule="nonzero"/><path fill="#5ab5e9" d="M 288.191406 111.59375 C 281.140625 111.59375 274.507812 108.851562 269.527344 103.863281 C 264.542969 98.878906 261.796875 92.253906 261.796875 85.207031 C 261.796875 78.15625 264.542969 71.53125 269.527344 66.546875 C 274.507812 61.5625 281.140625 58.816406 288.191406 58.816406 C 295.238281 58.816406 301.867188 61.5625 306.855469 66.546875 C 317.144531 76.835938 317.144531 93.574219 306.855469 103.863281 C 301.867188 108.851562 295.238281 111.59375 288.191406 111.59375 " fill-opacity="1" fill-rule="nonzero"/><path fill="#0e0f11" d="M 288.191406 57.863281 C 280.886719 57.863281 274.019531 60.707031 268.851562 65.871094 C 258.1875 76.53125 258.1875 93.878906 268.851562 104.539062 C 274.019531 109.703125 280.886719 112.546875 288.191406 112.546875 C 295.496094 112.546875 302.363281 109.703125 307.527344 104.539062 C 312.691406 99.375 315.535156 92.507812 315.535156 85.207031 C 315.535156 77.902344 312.691406 71.035156 307.527344 65.871094 C 302.363281 60.707031 295.496094 57.863281 288.191406 57.863281 Z M 288.191406 59.773438 C 294.699219 59.773438 301.210938 62.253906 306.175781 67.21875 C 316.113281 77.15625 316.113281 93.257812 306.175781 103.1875 C 301.210938 108.15625 294.699219 110.640625 288.191406 110.640625 C 281.675781 110.640625 275.167969 108.15625 270.199219 103.1875 C 260.269531 93.257812 260.269531 77.15625 270.199219 67.21875 C 275.167969 62.253906 281.675781 59.773438 288.191406 59.773438 " fill-opacity="1" fill-rule="nonzero"/><path fill="#0e0f11" d="M 277.289062 78.542969 L 299.359375 78.542969 C 299.886719 78.542969 300.3125 78.117188 300.3125 77.589844 C 300.3125 77.0625 299.886719 76.636719 299.359375 76.636719 L 277.289062 76.636719 C 276.765625 76.636719 276.335938 77.0625 276.335938 77.589844 C 276.335938 78.117188 276.765625 78.542969 277.289062 78.542969 " fill-opacity="1" fill-rule="nonzero"/><path fill="#0e0f11" d="M 271.519531 88.273438 L 308.171875 88.273438 C 308.703125 88.273438 309.128906 87.847656 309.128906 87.320312 C 309.128906 86.792969 308.703125 86.367188 308.171875 86.367188 L 271.519531 86.367188 C 270.988281 86.367188 270.5625 86.792969 270.5625 87.320312 C 270.5625 87.847656 270.988281 88.273438 271.519531 88.273438 " fill-opacity="1" fill-rule="nonzero"/></svg>