<svg xmlns="http://www.w3.org/2000/svg" xmlns:xlink="http://www.w3.org/1999/xlink" width="280" zoomAndPan="magnify" viewBox="0 0 375 374.999991" height="280" preserveAspectRatio="xMidYMid meet" version="1.0"><defs><clipPath id="6ee0cf3cb1"><path d="M 12.59375 50.347656 L 362.09375 50.347656 L 362.09375 303.097656 L 12.59375 303.097656 Z M 12.59375 50.347656 " clip-rule="nonzero"/></clipPath><clipPath id="d006dea255"><path d="M 12.59375 50.347656 L 362.09375 50.347656 L 362.09375 81 L 12.59375 81 Z M 12.59375 50.347656 " clip-rule="nonzero"/></clipPath><clipPath id="14dec626b6"><path d="M 12.59375 227 L 362.09375 227 L 362.09375 281 L 12.59375 281 Z M 12.59375 227 " clip-rule="nonzero"/></clipPath></defs><path fill="#ffffff" d="M 351.964844 302.042969 L 22.726562 302.042969 C 17.707031 302.042969 13.636719 297.964844 13.636719 292.9375 L 13.636719 60.535156 C 13.636719 55.503906 17.707031 51.429688 22.726562 51.429688 L 351.964844 51.429688 C 356.984375 51.429688 361.054688 55.503906 361.054688 60.535156 L 361.054688 292.9375 C 361.054688 297.964844 356.984375 302.042969 351.964844 302.042969 Z M 351.964844 302.042969 " fill-opacity="1" fill-rule="nonzero"/><g clip-path="url(#6ee0cf3cb1)"><path fill="#19055b" d="M 352.019531 303.085938 L 22.671875 303.085938 C 17.113281 303.085938 12.59375 298.558594 12.59375 292.992188 L 12.59375 60.480469 C 12.59375 54.914062 17.113281 50.386719 22.671875 50.386719 L 352.019531 50.386719 C 357.574219 50.386719 362.09375 54.914062 362.09375 60.480469 L 362.09375 292.992188 C 362.09375 298.558594 357.574219 303.085938 352.019531 303.085938 Z M 22.671875 52.472656 C 18.265625 52.472656 14.679688 56.066406 14.679688 60.480469 L 14.679688 292.992188 C 14.679688 297.40625 18.265625 300.996094 22.671875 300.996094 L 352.019531 300.996094 C 356.425781 300.996094 360.011719 297.40625 360.011719 292.992188 L 360.011719 60.480469 C 360.011719 56.066406 356.425781 52.472656 352.019531 52.472656 Z M 22.671875 52.472656 " fill-opacity="1" fill-rule="nonzero"/></g><path fill="#f28a8d" d="M 361.054688 60.480469 C 361.054688 55.480469 357.007812 51.429688 352.019531 51.429688 L 22.671875 51.429688 C 17.683594 51.429688 13.636719 55.480469 13.636719 60.480469 L 13.636719 79.144531 L 361.054688 79.144531 Z M 361.054688 60.480469 " fill-opacity="1" fill-rule="nonzero"/><g clip-path="url(#d006dea255)"><path fill="#19055b" d="M 361.054688 80.191406 L 13.636719 80.191406 C 13.0625 80.191406 12.59375 79.722656 12.59375 79.144531 L 12.59375 60.480469 C 12.59375 54.914062 17.113281 50.386719 22.671875 50.386719 L 352.019531 50.386719 C 357.574219 50.386719 362.09375 54.914062 362.09375 60.480469 L 362.09375 79.144531 C 362.09375 79.722656 361.628906 80.191406 361.054688 80.191406 Z M 14.679688 78.101562 L 360.011719 78.101562 L 360.011719 60.480469 C 360.011719 56.066406 356.425781 52.472656 352.019531 52.472656 L 22.671875 52.472656 C 18.265625 52.472656 14.679688 56.066406 14.679688 60.480469 Z M 14.679688 78.101562 " fill-opacity="1" fill-rule="nonzero"/></g><path fill="#ffffff" d="M 38.195312 66.027344 C 38.195312 66.410156 38.160156 66.785156 38.085938 67.160156 C 38.011719 67.535156 37.902344 67.898438 37.757812 68.25 C 37.609375 68.601562 37.433594 68.933594 37.222656 69.25 C 37.011719 69.570312 36.769531 69.863281 36.5 70.132812 C 36.230469 70.402344 35.941406 70.640625 35.625 70.851562 C 35.308594 71.0625 34.972656 71.242188 34.621094 71.386719 C 34.269531 71.535156 33.910156 71.644531 33.535156 71.71875 C 33.164062 71.792969 32.785156 71.832031 32.40625 71.832031 C 32.027344 71.832031 31.648438 71.792969 31.277344 71.71875 C 30.902344 71.644531 30.542969 71.535156 30.191406 71.386719 C 29.839844 71.242188 29.503906 71.0625 29.1875 70.851562 C 28.875 70.640625 28.582031 70.402344 28.3125 70.132812 C 28.042969 69.863281 27.804688 69.570312 27.59375 69.25 C 27.378906 68.933594 27.203125 68.601562 27.058594 68.25 C 26.910156 67.898438 26.800781 67.535156 26.726562 67.160156 C 26.652344 66.785156 26.617188 66.410156 26.617188 66.027344 C 26.617188 65.648438 26.652344 65.269531 26.726562 64.898438 C 26.800781 64.523438 26.910156 64.160156 27.058594 63.808594 C 27.203125 63.457031 27.378906 63.121094 27.59375 62.804688 C 27.804688 62.488281 28.042969 62.195312 28.3125 61.925781 C 28.582031 61.65625 28.875 61.417969 29.1875 61.203125 C 29.503906 60.992188 29.839844 60.816406 30.191406 60.667969 C 30.542969 60.523438 30.902344 60.414062 31.277344 60.339844 C 31.648438 60.265625 32.027344 60.226562 32.40625 60.226562 C 32.785156 60.226562 33.164062 60.265625 33.535156 60.339844 C 33.910156 60.414062 34.269531 60.523438 34.621094 60.667969 C 34.972656 60.816406 35.308594 60.992188 35.625 61.203125 C 35.941406 61.417969 36.230469 61.65625 36.5 61.925781 C 36.769531 62.195312 37.011719 62.488281 37.222656 62.804688 C 37.433594 63.121094 37.609375 63.457031 37.757812 63.808594 C 37.902344 64.160156 38.011719 64.523438 38.085938 64.898438 C 38.160156 65.269531 38.195312 65.648438 38.195312 66.027344 Z M 38.195312 66.027344 " fill-opacity="1" fill-rule="nonzero"/><path fill="#19055b" d="M 32.40625 72.875 C 28.640625 72.875 25.574219 69.804688 25.574219 66.027344 C 25.574219 62.253906 28.640625 59.183594 32.40625 59.183594 C 36.175781 59.183594 39.238281 62.253906 39.238281 66.027344 C 39.238281 69.804688 36.175781 72.875 32.40625 72.875 Z M 32.40625 61.273438 C 29.789062 61.273438 27.660156 63.40625 27.660156 66.027344 C 27.660156 68.652344 29.789062 70.785156 32.40625 70.785156 C 35.023438 70.785156 37.15625 68.652344 37.15625 66.027344 C 37.15625 63.40625 35.023438 61.273438 32.40625 61.273438 Z M 32.40625 61.273438 " fill-opacity="1" fill-rule="nonzero"/><path fill="#f6bd3b" d="M 56.347656 66.027344 C 56.347656 66.410156 56.3125 66.785156 56.238281 67.160156 C 56.164062 67.535156 56.054688 67.898438 55.90625 68.25 C 55.761719 68.601562 55.582031 68.933594 55.371094 69.25 C 55.160156 69.570312 54.921875 69.863281 54.652344 70.132812 C 54.382812 70.402344 54.089844 70.640625 53.773438 70.851562 C 53.460938 71.0625 53.125 71.242188 52.773438 71.386719 C 52.421875 71.535156 52.0625 71.644531 51.6875 71.71875 C 51.316406 71.792969 50.9375 71.832031 50.558594 71.832031 C 50.179688 71.832031 49.800781 71.792969 49.429688 71.71875 C 49.054688 71.644531 48.695312 71.535156 48.34375 71.386719 C 47.992188 71.242188 47.65625 71.0625 47.339844 70.851562 C 47.023438 70.640625 46.734375 70.402344 46.464844 70.132812 C 46.195312 69.863281 45.953125 69.570312 45.742188 69.25 C 45.53125 68.933594 45.355469 68.601562 45.207031 68.25 C 45.0625 67.898438 44.953125 67.535156 44.878906 67.160156 C 44.804688 66.785156 44.769531 66.410156 44.769531 66.027344 C 44.769531 65.648438 44.804688 65.269531 44.878906 64.898438 C 44.953125 64.523438 45.0625 64.160156 45.207031 63.808594 C 45.355469 63.457031 45.53125 63.121094 45.742188 62.804688 C 45.953125 62.488281 46.195312 62.195312 46.464844 61.925781 C 46.734375 61.65625 47.023438 61.417969 47.339844 61.203125 C 47.65625 60.992188 47.992188 60.816406 48.34375 60.667969 C 48.695312 60.523438 49.054688 60.414062 49.429688 60.339844 C 49.800781 60.265625 50.179688 60.226562 50.558594 60.226562 C 50.9375 60.226562 51.316406 60.265625 51.6875 60.339844 C 52.0625 60.414062 52.421875 60.523438 52.773438 60.667969 C 53.125 60.816406 53.460938 60.992188 53.773438 61.203125 C 54.089844 61.417969 54.382812 61.65625 54.652344 61.925781 C 54.921875 62.195312 55.160156 62.488281 55.371094 62.804688 C 55.582031 63.121094 55.761719 63.457031 55.90625 63.808594 C 56.054688 64.160156 56.164062 64.523438 56.238281 64.898438 C 56.3125 65.269531 56.347656 65.648438 56.347656 66.027344 Z M 56.347656 66.027344 " fill-opacity="1" fill-rule="nonzero"/><path fill="#19055b" d="M 50.558594 72.875 C 46.789062 72.875 43.726562 69.804688 43.726562 66.027344 C 43.726562 62.253906 46.789062 59.183594 50.558594 59.183594 C 54.324219 59.183594 57.390625 62.253906 57.390625 66.027344 C 57.390625 69.804688 54.324219 72.875 50.558594 72.875 Z M 50.558594 61.273438 C 47.941406 61.273438 45.808594 63.40625 45.808594 66.027344 C 45.808594 68.652344 47.941406 70.785156 50.558594 70.785156 C 53.175781 70.785156 55.304688 68.652344 55.304688 66.027344 C 55.304688 63.40625 53.175781 61.273438 50.558594 61.273438 Z M 50.558594 61.273438 " fill-opacity="1" fill-rule="nonzero"/><path fill="#ec8f3c" d="M 74.5 66.027344 C 74.5 66.410156 74.464844 66.785156 74.390625 67.160156 C 74.316406 67.535156 74.203125 67.898438 74.058594 68.25 C 73.914062 68.601562 73.734375 68.933594 73.523438 69.25 C 73.3125 69.570312 73.074219 69.863281 72.804688 70.132812 C 72.535156 70.402344 72.242188 70.640625 71.925781 70.851562 C 71.609375 71.0625 71.277344 71.242188 70.925781 71.386719 C 70.574219 71.535156 70.210938 71.644531 69.839844 71.71875 C 69.464844 71.792969 69.089844 71.832031 68.710938 71.832031 C 68.328125 71.832031 67.953125 71.792969 67.578125 71.71875 C 67.207031 71.644531 66.84375 71.535156 66.492188 71.386719 C 66.140625 71.242188 65.808594 71.0625 65.492188 70.851562 C 65.175781 70.640625 64.882812 70.402344 64.613281 70.132812 C 64.347656 69.863281 64.105469 69.570312 63.894531 69.25 C 63.683594 68.933594 63.503906 68.601562 63.359375 68.25 C 63.214844 67.898438 63.105469 67.535156 63.03125 67.160156 C 62.957031 66.785156 62.917969 66.410156 62.917969 66.027344 C 62.917969 65.648438 62.957031 65.269531 63.03125 64.898438 C 63.105469 64.523438 63.214844 64.160156 63.359375 63.808594 C 63.503906 63.457031 63.683594 63.121094 63.894531 62.804688 C 64.105469 62.488281 64.347656 62.195312 64.613281 61.925781 C 64.882812 61.65625 65.175781 61.417969 65.492188 61.203125 C 65.808594 60.992188 66.140625 60.816406 66.492188 60.667969 C 66.84375 60.523438 67.207031 60.414062 67.578125 60.339844 C 67.953125 60.265625 68.328125 60.226562 68.710938 60.226562 C 69.089844 60.226562 69.464844 60.265625 69.839844 60.339844 C 70.210938 60.414062 70.574219 60.523438 70.925781 60.667969 C 71.277344 60.816406 71.609375 60.992188 71.925781 61.203125 C 72.242188 61.417969 72.535156 61.65625 72.804688 61.925781 C 73.074219 62.195312 73.3125 62.488281 73.523438 62.804688 C 73.734375 63.121094 73.914062 63.457031 74.058594 63.808594 C 74.203125 64.160156 74.316406 64.523438 74.390625 64.898438 C 74.464844 65.269531 74.5 65.648438 74.5 66.027344 Z M 74.5 66.027344 " fill-opacity="1" fill-rule="nonzero"/><path fill="#19055b" d="M 68.710938 72.875 C 64.941406 72.875 61.875 69.804688 61.875 66.027344 C 61.875 62.253906 64.941406 59.183594 68.710938 59.183594 C 72.476562 59.183594 75.542969 62.253906 75.542969 66.027344 C 75.542969 69.804688 72.476562 72.875 68.710938 72.875 Z M 68.710938 61.273438 C 66.089844 61.273438 63.960938 63.40625 63.960938 66.027344 C 63.960938 68.652344 66.089844 70.785156 68.710938 70.785156 C 71.328125 70.785156 73.457031 68.652344 73.457031 66.027344 C 73.457031 63.40625 71.328125 61.273438 68.710938 61.273438 Z M 68.710938 61.273438 " fill-opacity="1" fill-rule="nonzero"/><path fill="#f28a8d" d="M 13.636719 228.992188 L 361.054688 228.992188 L 361.054688 279.113281 L 13.636719 279.113281 Z M 13.636719 228.992188 " fill-opacity="1" fill-rule="nonzero"/><g clip-path="url(#14dec626b6)"><path fill="#19055b" d="M 361.054688 280.160156 L 13.636719 280.160156 C 13.0625 280.160156 12.59375 279.691406 12.59375 279.113281 L 12.59375 228.992188 C 12.59375 228.414062 13.0625 227.949219 13.636719 227.949219 L 361.054688 227.949219 C 361.628906 227.949219 362.09375 228.414062 362.09375 228.992188 L 362.09375 279.113281 C 362.09375 279.691406 361.628906 280.160156 361.054688 280.160156 Z M 14.679688 278.070312 L 360.011719 278.070312 L 360.011719 230.035156 L 14.679688 230.035156 Z M 14.679688 278.070312 " fill-opacity="1" fill-rule="nonzero"/></g><path fill="#19055b" d="M 148.808594 104.246094 L 80.835938 104.246094 C 77.335938 104.246094 74.5 107.089844 74.5 110.59375 L 74.5 242.875 C 74.5 246.382812 77.335938 249.226562 80.835938 249.226562 L 148.808594 249.226562 C 152.308594 249.226562 155.144531 246.382812 155.144531 242.875 L 155.144531 110.59375 C 155.144531 107.089844 152.308594 104.246094 148.808594 104.246094 Z M 148.808594 104.246094 " fill-opacity="1" fill-rule="nonzero"/><path fill="#19055b" d="M 148.847656 250.269531 L 80.796875 250.269531 C 76.75 250.269531 73.457031 246.96875 73.457031 242.914062 L 73.457031 110.558594 C 73.457031 106.5 76.75 103.203125 80.796875 103.203125 L 148.847656 103.203125 C 152.894531 103.203125 156.1875 106.5 156.1875 110.558594 L 156.1875 242.914062 C 156.1875 246.96875 152.894531 250.269531 148.847656 250.269531 Z M 80.796875 105.289062 C 77.898438 105.289062 75.542969 107.652344 75.542969 110.558594 L 75.542969 242.914062 C 75.542969 245.816406 77.898438 248.179688 80.796875 248.179688 L 148.847656 248.179688 C 151.746094 248.179688 154.101562 245.816406 154.101562 242.914062 L 154.101562 110.558594 C 154.101562 107.652344 151.746094 105.289062 148.847656 105.289062 Z M 80.796875 105.289062 " fill-opacity="1" fill-rule="nonzero"/><path fill="#ffffff" d="M 80.058594 242.910156 L 80.058594 110.5625 C 80.058594 110.148438 80.390625 109.816406 80.800781 109.816406 L 148.84375 109.816406 C 149.253906 109.816406 149.585938 110.148438 149.585938 110.5625 L 149.585938 242.910156 C 149.585938 243.320312 149.253906 243.65625 148.84375 243.65625 L 80.800781 243.65625 C 80.390625 243.65625 80.058594 243.320312 80.058594 242.910156 Z M 80.058594 242.910156 " fill-opacity="1" fill-rule="nonzero"/><path fill="#19055b" d="M 148.847656 244.699219 L 80.796875 244.699219 C 79.816406 244.699219 79.015625 243.898438 79.015625 242.914062 L 79.015625 110.558594 C 79.015625 109.574219 79.816406 108.773438 80.796875 108.773438 L 148.847656 108.773438 C 149.828125 108.773438 150.628906 109.574219 150.628906 110.558594 L 150.628906 242.914062 C 150.628906 243.898438 149.828125 244.699219 148.847656 244.699219 Z M 81.101562 242.609375 L 148.542969 242.609375 L 148.542969 110.859375 L 81.101562 110.859375 Z M 81.101562 242.609375 " fill-opacity="1" fill-rule="nonzero"/><path fill="#ffffff" d="M 94.617188 149.496094 C 96.972656 132.867188 109.191406 119.417969 121.515625 109.816406 L 80.796875 109.816406 C 80.390625 109.816406 80.058594 110.148438 80.058594 110.558594 L 80.058594 242.914062 C 80.058594 242.914062 95.695312 224.859375 97.847656 207.847656 C 100 190.839844 89.597656 184.976562 94.617188 149.496094 Z M 94.617188 149.496094 " fill-opacity="1" fill-rule="nonzero"/><path fill="#19055b" d="M 80.058594 243.957031 C 79.9375 243.957031 79.8125 243.9375 79.695312 243.894531 C 79.285156 243.742188 79.015625 243.351562 79.015625 242.914062 L 79.015625 110.558594 C 79.015625 109.574219 79.816406 108.773438 80.796875 108.773438 L 121.515625 108.773438 C 121.960938 108.773438 122.355469 109.054688 122.5 109.476562 C 122.644531 109.898438 122.503906 110.367188 122.152344 110.640625 C 106.503906 122.832031 97.589844 135.957031 95.652344 149.644531 C 92.6875 170.589844 95.171875 181.214844 97.164062 189.757812 C 98.566406 195.746094 99.773438 200.917969 98.878906 207.980469 C 96.714844 225.109375 81.492188 242.851562 80.84375 243.597656 C 80.644531 243.832031 80.355469 243.957031 80.058594 243.957031 Z M 81.101562 110.859375 L 81.101562 239.96875 C 85.253906 234.636719 95.164062 220.757812 96.8125 207.71875 C 97.660156 201.027344 96.488281 196.023438 95.136719 190.230469 C 93.101562 181.523438 90.570312 170.683594 93.585938 149.351562 C 95.503906 135.8125 103.894531 122.875 118.535156 110.859375 Z M 94.621094 149.496094 L 94.625 149.496094 Z M 94.621094 149.496094 " fill-opacity="1" fill-rule="nonzero"/><path fill="#f6bd3b" d="M 108.144531 215.433594 C 115.636719 200.015625 107.667969 191.117188 123.796875 159.132812 C 129.25 148.324219 139.027344 140.734375 149.585938 135.417969 L 149.585938 110.558594 C 149.585938 110.148438 149.253906 109.816406 148.847656 109.816406 L 121.515625 109.816406 C 109.191406 119.417969 96.972656 132.867188 94.617188 149.496094 C 89.597656 184.976562 100 190.839844 97.847656 207.847656 C 95.695312 224.859375 80.058594 242.914062 80.058594 242.914062 C 80.058594 242.914062 100.65625 230.847656 108.144531 215.433594 Z M 108.144531 215.433594 " fill-opacity="1" fill-rule="nonzero"/><path fill="#19055b" d="M 80.058594 243.957031 C 79.757812 243.957031 79.460938 243.828125 79.253906 243.582031 C 78.929688 243.1875 78.9375 242.617188 79.269531 242.230469 C 79.425781 242.050781 94.726562 224.210938 96.8125 207.71875 C 97.660156 201.027344 96.488281 196.023438 95.136719 190.230469 C 93.101562 181.523438 90.570312 170.683594 93.585938 149.351562 C 95.601562 135.105469 104.785156 121.527344 120.875 108.992188 C 121.058594 108.847656 121.28125 108.773438 121.515625 108.773438 L 148.847656 108.773438 C 149.828125 108.773438 150.628906 109.574219 150.628906 110.558594 L 150.628906 135.417969 C 150.628906 135.8125 150.40625 136.175781 150.054688 136.351562 C 137.957031 142.441406 129.4375 150.265625 124.730469 159.605469 C 115.207031 178.484375 114.152344 189.347656 113.300781 198.078125 C 112.707031 204.199219 112.195312 209.488281 109.082031 215.886719 C 101.539062 231.410156 81.4375 243.316406 80.582031 243.816406 C 80.417969 243.914062 80.238281 243.957031 80.058594 243.957031 Z M 121.871094 110.859375 C 106.398438 122.992188 97.578125 136.039062 95.652344 149.644531 C 92.6875 170.589844 95.171875 181.214844 97.164062 189.757812 C 98.566406 195.746094 99.773438 200.917969 98.878906 207.980469 C 97.386719 219.796875 89.679688 231.902344 84.828125 238.523438 C 91.386719 233.894531 102.28125 225.121094 107.210938 214.976562 C 110.15625 208.910156 110.652344 203.796875 111.226562 197.875 C 112.09375 188.972656 113.167969 177.894531 122.867188 158.660156 C 127.707031 149.066406 136.34375 141.03125 148.542969 134.777344 L 148.542969 110.859375 Z M 121.871094 110.859375 " fill-opacity="1" fill-rule="nonzero"/><path fill="#f28a8d" d="M 115.46875 225.929688 C 103.433594 238.117188 80.058594 242.914062 80.058594 242.914062 C 80.058594 243.324219 80.390625 243.65625 80.796875 243.65625 L 148.847656 243.65625 C 149.253906 243.65625 149.585938 243.324219 149.585938 242.914062 L 149.585938 176.476562 C 149.164062 176.859375 148.75 177.25 148.339844 177.648438 C 122.8125 202.75 127.507812 213.738281 115.46875 225.929688 Z M 115.46875 225.929688 " fill-opacity="1" fill-rule="nonzero"/><path fill="#19055b" d="M 148.847656 244.699219 L 80.796875 244.699219 C 79.816406 244.699219 79.015625 243.898438 79.015625 242.914062 C 79.015625 242.417969 79.363281 241.992188 79.847656 241.890625 C 80.078125 241.84375 103.054688 237.011719 114.726562 225.195312 C 119.460938 220.402344 121.570312 215.71875 124.015625 210.292969 C 127.6875 202.140625 132.261719 191.996094 147.609375 176.902344 C 148.03125 176.492188 148.457031 176.09375 148.890625 175.699219 C 149.195312 175.425781 149.632812 175.355469 150.011719 175.523438 C 150.386719 175.6875 150.628906 176.0625 150.628906 176.476562 L 150.628906 242.914062 C 150.628906 243.898438 149.828125 244.699219 148.847656 244.699219 Z M 85.558594 242.609375 L 148.542969 242.609375 L 148.542969 178.914062 C 133.894531 193.445312 129.476562 203.253906 125.914062 211.152344 C 123.390625 216.761719 121.207031 221.601562 116.210938 226.664062 C 107.5 235.480469 93.25 240.441406 85.558594 242.609375 Z M 115.46875 225.929688 L 115.476562 225.929688 Z M 115.46875 225.929688 " fill-opacity="1" fill-rule="nonzero"/><path fill="#ec8f3c" d="M 123.796875 159.132812 C 107.667969 191.117188 115.636719 200.015625 108.144531 215.433594 C 100.65625 230.847656 80.058594 242.914062 80.058594 242.914062 C 80.058594 242.914062 103.433594 238.117188 115.46875 225.929688 C 127.507812 213.738281 122.8125 202.75 148.339844 177.648438 C 148.75 177.25 149.164062 176.859375 149.585938 176.476562 L 149.585938 135.417969 C 139.027344 140.734375 129.25 148.324219 123.796875 159.132812 Z M 123.796875 159.132812 " fill-opacity="1" fill-rule="nonzero"/><path fill="#19055b" d="M 80.058594 243.957031 C 79.632812 243.957031 79.242188 243.699219 79.085938 243.289062 C 78.902344 242.808594 79.089844 242.269531 79.53125 242.011719 C 79.734375 241.894531 99.945312 229.921875 107.210938 214.976562 C 110.15625 208.910156 110.652344 203.796875 111.226562 197.875 C 112.09375 188.972656 113.167969 177.894531 122.867188 158.660156 C 127.78125 148.917969 136.617188 140.78125 149.117188 134.484375 C 149.441406 134.324219 149.824219 134.339844 150.132812 134.53125 C 150.441406 134.722656 150.628906 135.058594 150.628906 135.417969 L 150.628906 176.476562 C 150.628906 176.769531 150.503906 177.054688 150.285156 177.25 C 149.875 177.625 149.46875 178.003906 149.070312 178.394531 C 134 193.210938 129.519531 203.160156 125.914062 211.152344 C 123.390625 216.761719 121.207031 221.601562 116.210938 226.664062 C 104.089844 238.933594 81.234375 243.738281 80.265625 243.9375 C 80.195312 243.953125 80.125 243.957031 80.058594 243.957031 Z M 124.730469 159.605469 C 115.207031 178.484375 114.152344 189.347656 113.300781 198.078125 C 112.707031 204.199219 112.195312 209.488281 109.082031 215.886719 C 103.878906 226.597656 92.699219 235.582031 85.984375 240.289062 C 93.675781 238.019531 106.808594 233.214844 114.726562 225.195312 C 119.460938 220.402344 121.570312 215.71875 124.015625 210.292969 C 127.6875 202.140625 132.261719 191.996094 147.609375 176.902344 C 147.917969 176.601562 148.230469 176.304688 148.542969 176.015625 L 148.542969 137.132812 C 137.246094 143.105469 129.238281 150.660156 124.730469 159.605469 Z M 124.730469 159.605469 " fill-opacity="1" fill-rule="nonzero"/><path fill="#f28a8d" d="M 208.488281 143.28125 L 208.488281 136.253906 L 203.160156 136.253906 L 203.160156 130.914062 L 196.144531 130.914062 L 196.144531 136.253906 L 189.691406 136.253906 L 189.691406 130.914062 L 182.679688 130.914062 L 182.679688 136.253906 L 177.347656 136.253906 L 177.347656 143.28125 L 182.679688 143.28125 L 182.679688 149.746094 L 177.347656 149.746094 L 177.347656 156.773438 L 182.679688 156.773438 L 182.679688 162.113281 L 189.691406 162.113281 L 189.691406 156.773438 L 196.144531 156.773438 L 196.144531 162.113281 L 203.160156 162.113281 L 203.160156 156.773438 L 208.488281 156.773438 L 208.488281 149.746094 L 203.160156 149.746094 L 203.160156 143.28125 Z M 196.144531 149.746094 L 189.691406 149.746094 L 189.691406 143.28125 L 196.144531 143.28125 Z M 196.144531 149.746094 " fill-opacity="1" fill-rule="nonzero"/><path fill="#19055b" d="M 203.160156 163.15625 L 196.144531 163.15625 C 195.570312 163.15625 195.101562 162.6875 195.101562 162.113281 L 195.101562 157.816406 L 190.734375 157.816406 L 190.734375 162.113281 C 190.734375 162.6875 190.269531 163.15625 189.691406 163.15625 L 182.679688 163.15625 C 182.105469 163.15625 181.636719 162.6875 181.636719 162.113281 L 181.636719 157.816406 L 177.347656 157.816406 C 176.773438 157.816406 176.308594 157.347656 176.308594 156.773438 L 176.308594 149.746094 C 176.308594 149.167969 176.773438 148.699219 177.347656 148.699219 L 181.636719 148.699219 L 181.636719 144.324219 L 177.347656 144.324219 C 176.773438 144.324219 176.308594 143.859375 176.308594 143.28125 L 176.308594 136.253906 C 176.308594 135.675781 176.773438 135.210938 177.347656 135.210938 L 181.636719 135.210938 L 181.636719 130.914062 C 181.636719 130.335938 182.105469 129.871094 182.679688 129.871094 L 189.691406 129.871094 C 190.269531 129.871094 190.734375 130.335938 190.734375 130.914062 L 190.734375 135.210938 L 195.101562 135.210938 L 195.101562 130.914062 C 195.101562 130.335938 195.570312 129.871094 196.144531 129.871094 L 203.160156 129.871094 C 203.734375 129.871094 204.199219 130.335938 204.199219 130.914062 L 204.199219 135.210938 L 208.488281 135.210938 C 209.0625 135.210938 209.53125 135.675781 209.53125 136.253906 L 209.53125 143.28125 C 209.53125 143.859375 209.0625 144.324219 208.488281 144.324219 L 204.199219 144.324219 L 204.199219 148.699219 L 208.488281 148.699219 C 209.0625 148.699219 209.53125 149.167969 209.53125 149.746094 L 209.53125 156.773438 C 209.53125 157.347656 209.0625 157.816406 208.488281 157.816406 L 204.199219 157.816406 L 204.199219 162.113281 C 204.199219 162.6875 203.734375 163.15625 203.160156 163.15625 Z M 197.1875 161.066406 L 202.117188 161.066406 L 202.117188 156.773438 C 202.117188 156.195312 202.582031 155.726562 203.160156 155.726562 L 207.445312 155.726562 L 207.445312 150.789062 L 203.160156 150.789062 C 202.582031 150.789062 202.117188 150.320312 202.117188 149.746094 L 202.117188 143.28125 C 202.117188 142.703125 202.582031 142.238281 203.160156 142.238281 L 207.445312 142.238281 L 207.445312 137.296875 L 203.160156 137.296875 C 202.582031 137.296875 202.117188 136.832031 202.117188 136.253906 L 202.117188 131.957031 L 197.1875 131.957031 L 197.1875 136.253906 C 197.1875 136.832031 196.71875 137.296875 196.144531 137.296875 L 189.691406 137.296875 C 189.117188 137.296875 188.648438 136.832031 188.648438 136.253906 L 188.648438 131.957031 L 183.722656 131.957031 L 183.722656 136.253906 C 183.722656 136.832031 183.253906 137.296875 182.679688 137.296875 L 178.390625 137.296875 L 178.390625 142.238281 L 182.679688 142.238281 C 183.253906 142.238281 183.722656 142.703125 183.722656 143.28125 L 183.722656 149.746094 C 183.722656 150.320312 183.253906 150.789062 182.679688 150.789062 L 178.390625 150.789062 L 178.390625 155.726562 L 182.679688 155.726562 C 183.253906 155.726562 183.722656 156.195312 183.722656 156.773438 L 183.722656 161.066406 L 188.648438 161.066406 L 188.648438 156.773438 C 188.648438 156.195312 189.117188 155.726562 189.691406 155.726562 L 196.144531 155.726562 C 196.71875 155.726562 197.1875 156.195312 197.1875 156.773438 Z M 196.144531 150.789062 L 189.691406 150.789062 C 189.117188 150.789062 188.648438 150.320312 188.648438 149.746094 L 188.648438 143.28125 C 188.648438 142.703125 189.117188 142.238281 189.691406 142.238281 L 196.144531 142.238281 C 196.71875 142.238281 197.1875 142.703125 197.1875 143.28125 L 197.1875 149.746094 C 197.1875 150.320312 196.71875 150.789062 196.144531 150.789062 Z M 190.734375 148.699219 L 195.101562 148.699219 L 195.101562 144.324219 L 190.734375 144.324219 Z M 190.734375 148.699219 " fill-opacity="1" fill-rule="nonzero"/><path fill="#f28a8d" d="M 212.390625 155.9375 L 217.988281 152.449219 C 219.652344 155.140625 222.410156 156.695312 225.324219 156.695312 C 227.628906 156.695312 229.371094 156.011719 229.371094 154.269531 C 229.371094 152.488281 227.140625 151.804688 224.378906 151.125 C 219.800781 149.949219 213.714844 148.777344 213.714844 142.410156 C 213.714844 136.6875 218.023438 133.542969 224.378906 133.542969 C 230.316406 133.542969 233.871094 136.308594 236.101562 139.039062 L 231.035156 143.207031 C 229.484375 141.3125 226.761719 139.683594 224.339844 139.683594 C 222.183594 139.683594 221.089844 140.402344 221.089844 141.726562 C 221.089844 143.585938 223.28125 144.265625 226.042969 144.949219 C 230.617188 146.046875 236.746094 147.449219 236.746094 153.738281 C 236.746094 158.210938 233.605469 162.644531 224.984375 162.644531 C 218.589844 162.644531 214.773438 159.761719 212.390625 155.9375 Z M 212.390625 155.9375 " fill-opacity="1" fill-rule="nonzero"/><path fill="#19055b" d="M 224.984375 163.6875 C 219.015625 163.6875 214.480469 161.265625 211.503906 156.488281 C 211.359375 156.253906 211.3125 155.96875 211.375 155.699219 C 211.4375 155.429688 211.605469 155.195312 211.839844 155.050781 L 217.4375 151.5625 C 217.671875 151.417969 217.957031 151.371094 218.226562 151.433594 C 218.492188 151.496094 218.726562 151.664062 218.875 151.902344 C 220.324219 154.25 222.738281 155.648438 225.324219 155.648438 C 226.445312 155.648438 228.328125 155.472656 228.328125 154.269531 C 228.328125 153.355469 226.789062 152.796875 224.128906 152.136719 L 223.375 151.949219 C 218.859375 150.808594 212.671875 149.25 212.671875 142.410156 C 212.671875 136.296875 217.15625 132.5 224.378906 132.5 C 229.503906 132.5 233.71875 134.476562 236.90625 138.375 C 237.273438 138.820312 237.207031 139.480469 236.761719 139.84375 L 231.695312 144.011719 C 231.480469 144.1875 231.210938 144.273438 230.933594 144.246094 C 230.65625 144.21875 230.402344 144.082031 230.226562 143.867188 C 228.738281 142.046875 226.261719 140.726562 224.339844 140.726562 C 222.875 140.726562 222.128906 141.0625 222.128906 141.726562 C 222.128906 142.71875 223.59375 143.269531 226.292969 143.933594 L 226.433594 143.96875 C 230.953125 145.054688 237.789062 146.691406 237.789062 153.738281 C 237.789062 158.546875 234.421875 163.6875 224.984375 163.6875 Z M 213.855469 156.253906 C 216.4375 159.847656 220.085938 161.597656 224.984375 161.597656 C 231.695312 161.597656 235.703125 158.660156 235.703125 153.738281 C 235.703125 148.738281 231.472656 147.324219 225.945312 146 L 225.800781 145.964844 C 223.230469 145.332031 220.046875 144.542969 220.046875 141.726562 C 220.046875 140.796875 220.464844 138.636719 224.339844 138.636719 C 226.894531 138.636719 229.484375 140.148438 231.132812 141.773438 L 234.609375 138.914062 C 231.910156 136.003906 228.550781 134.589844 224.378906 134.589844 C 218.351562 134.589844 214.757812 137.511719 214.757812 142.410156 C 214.757812 147.246094 218.539062 148.574219 223.886719 149.921875 L 224.636719 150.113281 C 227.207031 150.746094 230.414062 151.539062 230.414062 154.269531 C 230.414062 155.3125 229.917969 157.738281 225.324219 157.738281 C 222.34375 157.738281 219.558594 156.308594 217.695312 153.863281 Z M 213.855469 156.253906 " fill-opacity="1" fill-rule="nonzero"/><path fill="#f28a8d" d="M 247.332031 133.960938 L 254.367188 133.960938 L 264.277344 162.113281 L 256.636719 162.113281 L 254.933594 156.882812 L 246.125 156.882812 L 244.308594 162.113281 L 237.425781 162.113281 Z M 253.234375 151.503906 L 250.660156 143.734375 L 250.585938 143.734375 L 247.902344 151.503906 Z M 253.234375 151.503906 " fill-opacity="1" fill-rule="nonzero"/><path fill="#19055b" d="M 264.277344 163.15625 L 256.636719 163.15625 C 256.183594 163.15625 255.785156 162.867188 255.644531 162.4375 L 254.179688 157.929688 L 246.863281 157.929688 L 245.292969 162.457031 C 245.148438 162.875 244.75 163.15625 244.308594 163.15625 L 237.425781 163.15625 C 237.085938 163.15625 236.769531 162.992188 236.574219 162.714844 C 236.378906 162.4375 236.328125 162.085938 236.441406 161.765625 L 246.351562 133.613281 C 246.496094 133.195312 246.890625 132.917969 247.332031 132.917969 L 254.367188 132.917969 C 254.808594 132.917969 255.203125 133.195312 255.351562 133.613281 L 265.257812 161.765625 C 265.371094 162.085938 265.324219 162.4375 265.128906 162.714844 C 264.933594 162.992188 264.613281 163.15625 264.277344 163.15625 Z M 257.394531 161.070312 L 262.804688 161.070312 L 253.628906 135.003906 L 248.070312 135.003906 L 238.898438 161.070312 L 243.566406 161.070312 L 245.136719 156.539062 C 245.285156 156.121094 245.679688 155.839844 246.125 155.839844 L 254.933594 155.839844 C 255.386719 155.839844 255.785156 156.128906 255.925781 156.558594 Z M 253.234375 152.546875 L 247.902344 152.546875 C 247.5625 152.546875 247.246094 152.382812 247.050781 152.109375 C 246.855469 151.835938 246.804688 151.480469 246.917969 151.160156 L 249.601562 143.394531 C 249.746094 142.972656 250.140625 142.691406 250.585938 142.691406 L 250.660156 142.691406 C 251.109375 142.691406 251.507812 142.980469 251.652344 143.40625 L 254.222656 151.175781 C 254.328125 151.492188 254.273438 151.84375 254.078125 152.113281 C 253.882812 152.386719 253.566406 152.546875 253.234375 152.546875 Z M 249.363281 150.460938 L 251.789062 150.460938 L 250.601562 146.878906 Z M 249.363281 150.460938 " fill-opacity="1" fill-rule="nonzero"/><path fill="#f28a8d" d="M 267.261719 134.074219 L 274.828125 134.074219 L 274.828125 156.011719 L 286.589844 156.011719 L 286.589844 162.113281 L 267.261719 162.113281 Z M 267.261719 134.074219 " fill-opacity="1" fill-rule="nonzero"/><path fill="#19055b" d="M 286.589844 163.15625 L 267.261719 163.15625 C 266.6875 163.15625 266.222656 162.691406 266.222656 162.113281 L 266.222656 134.074219 C 266.222656 133.496094 266.6875 133.03125 267.261719 133.03125 L 274.828125 133.03125 C 275.402344 133.03125 275.871094 133.496094 275.871094 134.074219 L 275.871094 154.96875 L 286.589844 154.96875 C 287.164062 154.96875 287.628906 155.4375 287.628906 156.011719 L 287.628906 162.113281 C 287.628906 162.691406 287.164062 163.15625 286.589844 163.15625 Z M 268.304688 161.070312 L 285.546875 161.070312 L 285.546875 157.058594 L 274.828125 157.058594 C 274.25 157.058594 273.785156 156.589844 273.785156 156.011719 L 273.785156 135.117188 L 268.304688 135.117188 Z M 268.304688 161.070312 " fill-opacity="1" fill-rule="nonzero"/><path fill="#f28a8d" d="M 289.765625 134.074219 L 309.730469 134.074219 L 309.730469 140.363281 L 297.328125 140.363281 L 297.328125 144.910156 L 306.175781 144.910156 L 306.175781 150.820312 L 297.328125 150.820312 L 297.328125 156.011719 L 310.375 156.011719 L 310.375 162.113281 L 289.765625 162.113281 Z M 289.765625 134.074219 " fill-opacity="1" fill-rule="nonzero"/><path fill="#19055b" d="M 310.375 163.15625 L 289.765625 163.15625 C 289.1875 163.15625 288.722656 162.691406 288.722656 162.113281 L 288.722656 134.074219 C 288.722656 133.496094 289.1875 133.03125 289.765625 133.03125 L 309.730469 133.03125 C 310.308594 133.03125 310.773438 133.496094 310.773438 134.074219 L 310.773438 140.363281 C 310.773438 140.941406 310.308594 141.410156 309.730469 141.410156 L 298.371094 141.410156 L 298.371094 143.867188 L 306.175781 143.867188 C 306.753906 143.867188 307.21875 144.332031 307.21875 144.910156 L 307.21875 150.820312 C 307.21875 151.398438 306.753906 151.867188 306.175781 151.867188 L 298.371094 151.867188 L 298.371094 154.96875 L 310.375 154.96875 C 310.949219 154.96875 311.417969 155.4375 311.417969 156.011719 L 311.417969 162.113281 C 311.417969 162.691406 310.949219 163.15625 310.375 163.15625 Z M 290.808594 161.070312 L 309.332031 161.070312 L 309.332031 157.058594 L 297.328125 157.058594 C 296.753906 157.058594 296.285156 156.589844 296.285156 156.011719 L 296.285156 150.820312 C 296.285156 150.246094 296.753906 149.777344 297.328125 149.777344 L 305.136719 149.777344 L 305.136719 145.953125 L 297.328125 145.953125 C 296.753906 145.953125 296.285156 145.488281 296.285156 144.910156 L 296.285156 140.363281 C 296.285156 139.789062 296.753906 139.320312 297.328125 139.320312 L 308.691406 139.320312 L 308.691406 135.117188 L 290.808594 135.117188 Z M 290.808594 161.070312 " fill-opacity="1" fill-rule="nonzero"/><path fill="#f6bd3b" d="M 206.238281 215.601562 L 183.300781 215.601562 C 180.015625 215.601562 177.347656 212.933594 177.347656 209.636719 L 177.347656 186.65625 C 177.347656 183.363281 180.015625 180.695312 183.300781 180.695312 L 206.238281 180.695312 C 209.527344 180.695312 212.191406 183.363281 212.191406 186.65625 L 212.191406 209.636719 C 212.191406 212.933594 209.527344 215.601562 206.238281 215.601562 Z M 206.238281 215.601562 " fill-opacity="1" fill-rule="nonzero"/><path fill="#19055b" d="M 206.273438 216.644531 L 183.265625 216.644531 C 179.429688 216.644531 176.308594 213.519531 176.308594 209.671875 L 176.308594 186.621094 C 176.308594 182.777344 179.429688 179.648438 183.265625 179.648438 L 206.273438 179.648438 C 210.109375 179.648438 213.234375 182.777344 213.234375 186.621094 L 213.234375 209.671875 C 213.234375 213.519531 210.109375 216.644531 206.273438 216.644531 Z M 183.265625 181.738281 C 180.578125 181.738281 178.390625 183.929688 178.390625 186.621094 L 178.390625 209.671875 C 178.390625 212.367188 180.578125 214.558594 183.265625 214.558594 L 206.273438 214.558594 C 208.960938 214.558594 211.148438 212.367188 211.148438 209.671875 L 211.148438 186.621094 C 211.148438 183.929688 208.960938 181.738281 206.273438 181.738281 Z M 183.265625 181.738281 " fill-opacity="1" fill-rule="nonzero"/><path fill="#ec8f3c" d="M 252.046875 215.601562 L 229.109375 215.601562 C 225.824219 215.601562 223.15625 212.933594 223.15625 209.636719 L 223.15625 186.65625 C 223.15625 183.363281 225.824219 180.695312 229.109375 180.695312 L 252.046875 180.695312 C 255.335938 180.695312 258 183.363281 258 186.65625 L 258 209.636719 C 258 212.933594 255.335938 215.601562 252.046875 215.601562 Z M 252.046875 215.601562 " fill-opacity="1" fill-rule="nonzero"/><path fill="#19055b" d="M 252.082031 216.644531 L 229.074219 216.644531 C 225.238281 216.644531 222.113281 213.519531 222.113281 209.671875 L 222.113281 186.621094 C 222.113281 182.777344 225.238281 179.648438 229.074219 179.648438 L 252.082031 179.648438 C 255.921875 179.648438 259.042969 182.777344 259.042969 186.621094 L 259.042969 209.671875 C 259.042969 213.519531 255.921875 216.644531 252.082031 216.644531 Z M 229.074219 181.738281 C 226.386719 181.738281 224.199219 183.929688 224.199219 186.621094 L 224.199219 209.671875 C 224.199219 212.367188 226.386719 214.558594 229.074219 214.558594 L 252.082031 214.558594 C 254.769531 214.558594 256.957031 212.367188 256.957031 209.671875 L 256.957031 186.621094 C 256.957031 183.929688 254.769531 181.738281 252.082031 181.738281 Z M 229.074219 181.738281 " fill-opacity="1" fill-rule="nonzero"/><path fill="#ffffff" d="M 297.855469 215.601562 L 274.917969 215.601562 C 271.628906 215.601562 268.964844 212.933594 268.964844 209.636719 L 268.964844 186.65625 C 268.964844 183.363281 271.628906 180.695312 274.917969 180.695312 L 297.855469 180.695312 C 301.144531 180.695312 303.808594 183.363281 303.808594 186.65625 L 303.808594 209.636719 C 303.808594 212.933594 301.144531 215.601562 297.855469 215.601562 Z M 297.855469 215.601562 " fill-opacity="1" fill-rule="nonzero"/><path fill="#19055b" d="M 297.890625 216.644531 L 274.882812 216.644531 C 271.046875 216.644531 267.921875 213.519531 267.921875 209.671875 L 267.921875 186.621094 C 267.921875 182.777344 271.046875 179.648438 274.882812 179.648438 L 297.890625 179.648438 C 301.730469 179.648438 304.851562 182.777344 304.851562 186.621094 L 304.851562 209.671875 C 304.851562 213.519531 301.730469 216.644531 297.890625 216.644531 Z M 274.882812 181.738281 C 272.195312 181.738281 270.007812 183.929688 270.007812 186.621094 L 270.007812 209.671875 C 270.007812 212.367188 272.195312 214.558594 274.882812 214.558594 L 297.890625 214.558594 C 300.578125 214.558594 302.765625 212.367188 302.765625 209.671875 L 302.765625 186.621094 C 302.765625 183.929688 300.578125 181.738281 297.890625 181.738281 Z M 274.882812 181.738281 " fill-opacity="1" fill-rule="nonzero"/><path fill="#f6bd3b" d="M 311.546875 198.148438 C 311.546875 198.65625 311.496094 199.160156 311.398438 199.660156 C 311.296875 200.160156 311.152344 200.644531 310.957031 201.113281 C 310.761719 201.585938 310.523438 202.03125 310.242188 202.457031 C 309.960938 202.878906 309.640625 203.269531 309.28125 203.628906 C 308.921875 203.988281 308.53125 204.3125 308.105469 204.59375 C 307.683594 204.878906 307.238281 205.117188 306.769531 205.3125 C 306.300781 205.503906 305.816406 205.652344 305.316406 205.753906 C 304.820312 205.851562 304.316406 205.902344 303.808594 205.902344 C 303.300781 205.902344 302.796875 205.851562 302.296875 205.753906 C 301.800781 205.652344 301.316406 205.503906 300.847656 205.3125 C 300.375 205.117188 299.929688 204.878906 299.507812 204.59375 C 299.085938 204.3125 298.695312 203.988281 298.335938 203.628906 C 297.976562 203.269531 297.65625 202.878906 297.375 202.457031 C 297.089844 202.03125 296.851562 201.585938 296.660156 201.113281 C 296.464844 200.644531 296.316406 200.160156 296.21875 199.660156 C 296.117188 199.160156 296.070312 198.65625 296.070312 198.148438 C 296.070312 197.636719 296.117188 197.132812 296.21875 196.636719 C 296.316406 196.136719 296.464844 195.652344 296.660156 195.179688 C 296.851562 194.710938 297.089844 194.261719 297.375 193.839844 C 297.65625 193.417969 297.976562 193.023438 298.335938 192.664062 C 298.695312 192.304688 299.085938 191.984375 299.507812 191.699219 C 299.929688 191.417969 300.378906 191.179688 300.847656 190.984375 C 301.316406 190.789062 301.800781 190.644531 302.296875 190.542969 C 302.796875 190.445312 303.300781 190.394531 303.808594 190.394531 C 304.316406 190.394531 304.820312 190.445312 305.316406 190.542969 C 305.816406 190.644531 306.300781 190.789062 306.769531 190.984375 C 307.238281 191.179688 307.683594 191.417969 308.105469 191.699219 C 308.53125 191.984375 308.921875 192.304688 309.28125 192.664062 C 309.640625 193.023438 309.960938 193.417969 310.242188 193.839844 C 310.523438 194.261719 310.761719 194.710938 310.957031 195.179688 C 311.152344 195.652344 311.296875 196.136719 311.398438 196.636719 C 311.496094 197.132812 311.546875 197.636719 311.546875 198.148438 Z M 311.546875 198.148438 " fill-opacity="1" fill-rule="nonzero"/><path fill="#19055b" d="M 303.808594 206.945312 C 298.964844 206.945312 295.027344 203 295.027344 198.148438 C 295.027344 193.296875 298.964844 189.351562 303.808594 189.351562 C 308.648438 189.351562 312.589844 193.296875 312.589844 198.148438 C 312.589844 203 308.648438 206.945312 303.808594 206.945312 Z M 303.808594 191.4375 C 300.117188 191.4375 297.113281 194.449219 297.113281 198.148438 C 297.113281 201.847656 300.117188 204.855469 303.808594 204.855469 C 307.5 204.855469 310.503906 201.847656 310.503906 198.148438 C 310.503906 194.449219 307.5 191.4375 303.808594 191.4375 Z M 303.808594 191.4375 " fill-opacity="1" fill-rule="nonzero"/><path fill="#19055b" d="M 307.730469 199.191406 L 300.066406 199.191406 C 299.488281 199.191406 299.023438 198.722656 299.023438 198.148438 C 299.023438 197.570312 299.488281 197.101562 300.066406 197.101562 L 307.730469 197.101562 C 308.304688 197.101562 308.773438 197.570312 308.773438 198.148438 C 308.773438 198.722656 308.304688 199.191406 307.730469 199.191406 Z M 307.730469 199.191406 " fill-opacity="1" fill-rule="nonzero"/><path fill="#19055b" d="M 305.09375 201.832031 C 304.828125 201.832031 304.5625 201.730469 304.355469 201.527344 C 303.949219 201.121094 303.949219 200.460938 304.355469 200.050781 L 306.257812 198.148438 L 304.355469 196.246094 C 303.949219 195.835938 303.949219 195.175781 304.355469 194.769531 C 304.765625 194.359375 305.425781 194.359375 305.832031 194.769531 L 308.46875 197.410156 C 308.875 197.816406 308.875 198.476562 308.46875 198.886719 L 305.832031 201.527344 C 305.628906 201.730469 305.359375 201.832031 305.09375 201.832031 Z M 305.09375 201.832031 " fill-opacity="1" fill-rule="nonzero"/><path fill="#ffffff" d="M 66.585938 145.09375 C 66.585938 145.476562 66.515625 145.84375 66.371094 146.195312 C 66.222656 146.546875 66.015625 146.859375 65.746094 147.128906 C 65.476562 147.394531 65.167969 147.605469 64.816406 147.75 C 64.464844 147.894531 64.097656 147.96875 63.71875 147.96875 C 63.339844 147.96875 62.972656 147.894531 62.621094 147.75 C 62.269531 147.605469 61.960938 147.394531 61.691406 147.128906 C 61.421875 146.859375 61.214844 146.546875 61.070312 146.195312 C 60.921875 145.84375 60.851562 145.476562 60.851562 145.09375 C 60.851562 144.714844 60.921875 144.347656 61.070312 143.996094 C 61.214844 143.644531 61.421875 143.332031 61.691406 143.0625 C 61.960938 142.792969 62.269531 142.585938 62.621094 142.4375 C 62.972656 142.292969 63.339844 142.21875 63.71875 142.21875 C 64.097656 142.21875 64.464844 142.292969 64.816406 142.4375 C 65.167969 142.585938 65.476562 142.792969 65.746094 143.0625 C 66.015625 143.332031 66.222656 143.644531 66.371094 143.996094 C 66.515625 144.347656 66.585938 144.714844 66.585938 145.09375 Z M 66.585938 145.09375 " fill-opacity="1" fill-rule="nonzero"/><path fill="#f6bd3b" d="M 63.71875 149.011719 C 61.5625 149.011719 59.808594 147.253906 59.808594 145.09375 C 59.808594 142.933594 61.5625 141.175781 63.71875 141.175781 C 65.875 141.175781 67.628906 142.933594 67.628906 145.09375 C 67.628906 147.253906 65.875 149.011719 63.71875 149.011719 Z M 63.71875 143.265625 C 62.710938 143.265625 61.890625 144.085938 61.890625 145.09375 C 61.890625 146.105469 62.710938 146.925781 63.71875 146.925781 C 64.726562 146.925781 65.546875 146.105469 65.546875 145.09375 C 65.546875 144.085938 64.726562 143.265625 63.71875 143.265625 Z M 63.71875 143.265625 " fill-opacity="1" fill-rule="nonzero"/><path fill="#ffffff" d="M 169.988281 102.5 C 169.988281 102.765625 169.960938 103.027344 169.910156 103.285156 C 169.859375 103.542969 169.78125 103.792969 169.683594 104.035156 C 169.582031 104.277344 169.457031 104.511719 169.3125 104.730469 C 169.164062 104.949219 169 105.152344 168.8125 105.335938 C 168.628906 105.523438 168.425781 105.6875 168.207031 105.835938 C 167.988281 105.980469 167.757812 106.105469 167.515625 106.207031 C 167.273438 106.304688 167.023438 106.382812 166.765625 106.433594 C 166.507812 106.484375 166.246094 106.511719 165.984375 106.511719 C 165.722656 106.511719 165.460938 106.484375 165.203125 106.433594 C 164.945312 106.382812 164.695312 106.304688 164.453125 106.207031 C 164.210938 106.105469 163.980469 105.980469 163.761719 105.835938 C 163.542969 105.6875 163.339844 105.523438 163.15625 105.335938 C 162.96875 105.152344 162.804688 104.949219 162.65625 104.730469 C 162.511719 104.511719 162.386719 104.277344 162.289062 104.035156 C 162.1875 103.792969 162.109375 103.542969 162.058594 103.285156 C 162.007812 103.027344 161.984375 102.765625 161.984375 102.5 C 161.984375 102.238281 162.007812 101.976562 162.058594 101.71875 C 162.109375 101.460938 162.1875 101.210938 162.289062 100.96875 C 162.386719 100.722656 162.511719 100.492188 162.65625 100.273438 C 162.804688 100.054688 162.96875 99.851562 163.15625 99.667969 C 163.339844 99.480469 163.542969 99.3125 163.761719 99.167969 C 163.980469 99.023438 164.210938 98.898438 164.453125 98.796875 C 164.695312 98.695312 164.945312 98.621094 165.203125 98.570312 C 165.460938 98.519531 165.722656 98.492188 165.984375 98.492188 C 166.246094 98.492188 166.507812 98.519531 166.765625 98.570312 C 167.023438 98.621094 167.273438 98.695312 167.515625 98.796875 C 167.757812 98.898438 167.988281 99.023438 168.207031 99.167969 C 168.425781 99.3125 168.628906 99.480469 168.8125 99.667969 C 169 99.851562 169.167969 100.054688 169.3125 100.273438 C 169.457031 100.492188 169.582031 100.722656 169.683594 100.96875 C 169.78125 101.210938 169.859375 101.460938 169.910156 101.71875 C 169.960938 101.976562 169.988281 102.238281 169.988281 102.5 Z M 169.988281 102.5 " fill-opacity="1" fill-rule="nonzero"/><path fill="#f6bd3b" d="M 165.984375 107.554688 C 163.203125 107.554688 160.941406 105.289062 160.941406 102.5 C 160.941406 99.714844 163.203125 97.449219 165.984375 97.449219 C 168.765625 97.449219 171.027344 99.714844 171.027344 102.5 C 171.027344 105.289062 168.765625 107.554688 165.984375 107.554688 Z M 165.984375 99.535156 C 164.351562 99.535156 163.023438 100.867188 163.023438 102.5 C 163.023438 104.136719 164.351562 105.46875 165.984375 105.46875 C 167.617188 105.46875 168.945312 104.136719 168.945312 102.5 C 168.945312 100.867188 167.617188 99.535156 165.984375 99.535156 Z M 165.984375 99.535156 " fill-opacity="1" fill-rule="nonzero"/><path fill="#f28a8d" d="M 63.71875 177.246094 C 63.144531 177.246094 62.675781 176.78125 62.675781 176.203125 L 62.675781 165.664062 C 62.675781 165.085938 63.144531 164.621094 63.71875 164.621094 C 64.292969 164.621094 64.761719 165.085938 64.761719 165.664062 L 64.761719 176.203125 C 64.761719 176.78125 64.292969 177.246094 63.71875 177.246094 Z M 63.71875 177.246094 " fill-opacity="1" fill-rule="nonzero"/><path fill="#f28a8d" d="M 68.976562 171.976562 L 58.460938 171.976562 C 57.882812 171.976562 57.417969 171.511719 57.417969 170.933594 C 57.417969 170.355469 57.882812 169.890625 58.460938 169.890625 L 68.976562 169.890625 C 69.554688 169.890625 70.019531 170.355469 70.019531 170.933594 C 70.019531 171.511719 69.554688 171.976562 68.976562 171.976562 Z M 68.976562 171.976562 " fill-opacity="1" fill-rule="nonzero"/><path fill="#f6bd3b" d="M 165.984375 221.832031 C 165.410156 221.832031 164.941406 221.363281 164.941406 220.785156 L 164.941406 210.25 C 164.941406 209.671875 165.410156 209.203125 165.984375 209.203125 C 166.558594 209.203125 167.027344 209.671875 167.027344 210.25 L 167.027344 220.785156 C 167.027344 221.363281 166.558594 221.832031 165.984375 221.832031 Z M 165.984375 221.832031 " fill-opacity="1" fill-rule="nonzero"/><path fill="#f6bd3b" d="M 171.246094 216.5625 L 160.726562 216.5625 C 160.152344 216.5625 159.683594 216.09375 159.683594 215.519531 C 159.683594 214.941406 160.152344 214.472656 160.726562 214.472656 L 171.246094 214.472656 C 171.820312 214.472656 172.285156 214.941406 172.285156 215.519531 C 172.285156 216.09375 171.820312 216.5625 171.246094 216.5625 Z M 171.246094 216.5625 " fill-opacity="1" fill-rule="nonzero"/><path fill="#19055b" d="M 102.929688 258.132812 L 72.980469 258.132812 C 72.40625 258.132812 71.9375 257.664062 71.9375 257.089844 C 71.9375 256.511719 72.40625 256.042969 72.980469 256.042969 L 102.929688 256.042969 C 103.503906 256.042969 103.972656 256.511719 103.972656 257.089844 C 103.972656 257.664062 103.503906 258.132812 102.929688 258.132812 Z M 102.929688 258.132812 " fill-opacity="1" fill-rule="nonzero"/><path fill="#19055b" d="M 94.199219 265.640625 L 72.980469 265.640625 C 72.40625 265.640625 71.9375 265.175781 71.9375 264.597656 C 71.9375 264.019531 72.40625 263.554688 72.980469 263.554688 L 94.199219 263.554688 C 94.777344 263.554688 95.242188 264.019531 95.242188 264.597656 C 95.242188 265.175781 94.777344 265.640625 94.199219 265.640625 Z M 94.199219 265.640625 " fill-opacity="1" fill-rule="nonzero"/><path fill="#19055b" d="M 90.707031 273.152344 L 72.980469 273.152344 C 72.40625 273.152344 71.9375 272.683594 71.9375 272.109375 C 71.9375 271.53125 72.40625 271.0625 72.980469 271.0625 L 90.707031 271.0625 C 91.285156 271.0625 91.75 271.53125 91.75 272.109375 C 91.75 272.683594 91.285156 273.152344 90.707031 273.152344 Z M 90.707031 273.152344 " fill-opacity="1" fill-rule="nonzero"/><path fill="#f28a8d" d="M 335.953125 111.242188 C 335.953125 112.191406 335.859375 113.132812 335.675781 114.0625 C 335.492188 114.992188 335.21875 115.894531 334.855469 116.773438 C 334.492188 117.648438 334.046875 118.480469 333.523438 119.269531 C 332.996094 120.058594 332.398438 120.789062 331.730469 121.460938 C 331.058594 122.132812 330.332031 122.730469 329.542969 123.257812 C 328.757812 123.785156 327.925781 124.230469 327.050781 124.59375 C 326.175781 124.957031 325.273438 125.230469 324.34375 125.414062 C 323.417969 125.601562 322.480469 125.691406 321.53125 125.691406 C 320.585938 125.691406 319.648438 125.601562 318.71875 125.414062 C 317.789062 125.230469 316.886719 124.957031 316.011719 124.59375 C 315.136719 124.230469 314.308594 123.785156 313.519531 123.257812 C 312.734375 122.730469 312.003906 122.132812 311.335938 121.460938 C 310.664062 120.789062 310.066406 120.058594 309.539062 119.269531 C 309.015625 118.480469 308.570312 117.648438 308.207031 116.773438 C 307.847656 115.894531 307.574219 114.992188 307.386719 114.0625 C 307.203125 113.132812 307.109375 112.191406 307.109375 111.242188 C 307.109375 110.296875 307.203125 109.355469 307.386719 108.425781 C 307.574219 107.496094 307.847656 106.589844 308.207031 105.714844 C 308.570312 104.839844 309.015625 104.003906 309.539062 103.214844 C 310.066406 102.429688 310.664062 101.699219 311.335938 101.027344 C 312.003906 100.355469 312.734375 99.757812 313.519531 99.230469 C 314.308594 98.703125 315.136719 98.257812 316.011719 97.894531 C 316.886719 97.53125 317.789062 97.257812 318.71875 97.074219 C 319.648438 96.886719 320.585938 96.796875 321.53125 96.796875 C 322.480469 96.796875 323.417969 96.886719 324.34375 97.074219 C 325.273438 97.257812 326.175781 97.53125 327.050781 97.894531 C 327.925781 98.257812 328.757812 98.703125 329.542969 99.230469 C 330.332031 99.757812 331.058594 100.355469 331.730469 101.027344 C 332.398438 101.699219 332.996094 102.429688 333.523438 103.214844 C 334.046875 104.003906 334.492188 104.839844 334.855469 105.714844 C 335.21875 106.589844 335.492188 107.496094 335.675781 108.425781 C 335.859375 109.355469 335.953125 110.296875 335.953125 111.242188 Z M 335.953125 111.242188 " fill-opacity="1" fill-rule="nonzero"/><path fill="#19055b" d="M 321.53125 126.738281 C 313.003906 126.738281 306.070312 119.785156 306.070312 111.242188 C 306.070312 102.699219 313.003906 95.75 321.53125 95.75 C 330.058594 95.75 336.996094 102.699219 336.996094 111.242188 C 336.996094 119.785156 330.058594 126.738281 321.53125 126.738281 Z M 321.53125 97.839844 C 314.15625 97.839844 308.152344 103.851562 308.152344 111.242188 C 308.152344 118.636719 314.15625 124.648438 321.53125 124.648438 C 328.910156 124.648438 334.910156 118.636719 334.910156 111.242188 C 334.910156 103.851562 328.910156 97.839844 321.53125 97.839844 Z M 321.53125 97.839844 " fill-opacity="1" fill-rule="nonzero"/><path fill="#f6bd3b" d="M 328.242188 141.242188 L 321.4375 130.554688 L 326.914062 119.132812 L 333.714844 129.816406 Z M 328.242188 141.242188 " fill-opacity="1" fill-rule="nonzero"/><path fill="#19055b" d="M 328.242188 142.285156 C 327.886719 142.285156 327.554688 142.105469 327.363281 141.800781 L 320.558594 131.117188 C 320.363281 130.8125 320.339844 130.429688 320.496094 130.105469 L 325.972656 118.679688 C 326.136719 118.339844 326.472656 118.113281 326.851562 118.089844 C 327.230469 118.0625 327.589844 118.25 327.792969 118.570312 L 334.59375 129.253906 C 334.789062 129.558594 334.8125 129.941406 334.65625 130.269531 L 329.179688 141.691406 C 329.015625 142.035156 328.679688 142.261719 328.304688 142.28125 C 328.28125 142.285156 328.261719 142.285156 328.242188 142.285156 Z M 322.628906 130.484375 L 328.113281 139.097656 L 332.523438 129.886719 L 327.042969 121.277344 Z M 322.628906 130.484375 " fill-opacity="1" fill-rule="nonzero"/><path fill="#ec8f3c" d="M 328.242188 141.242188 L 342.691406 140.371094 L 348.164062 128.945312 L 333.714844 129.816406 Z M 328.242188 141.242188 " fill-opacity="1" fill-rule="nonzero"/><path fill="#19055b" d="M 328.242188 142.285156 C 327.894531 142.285156 327.570312 142.113281 327.375 141.824219 C 327.167969 141.515625 327.140625 141.121094 327.300781 140.789062 L 332.777344 129.363281 C 332.941406 129.023438 333.277344 128.796875 333.652344 128.773438 L 348.101562 127.902344 C 348.464844 127.878906 348.824219 128.054688 349.03125 128.363281 C 349.234375 128.667969 349.265625 129.0625 349.105469 129.398438 L 343.628906 140.820312 C 343.464844 141.164062 343.128906 141.390625 342.753906 141.410156 L 328.304688 142.28125 C 328.28125 142.285156 328.261719 142.285156 328.242188 142.285156 Z M 334.390625 130.820312 L 329.945312 140.089844 L 342.015625 139.363281 L 346.457031 130.09375 Z M 334.390625 130.820312 " fill-opacity="1" fill-rule="nonzero"/><path fill="#ffffff" d="M 326.914062 119.132812 L 341.363281 118.261719 L 348.164062 128.945312 L 333.714844 129.816406 Z M 326.914062 119.132812 " fill-opacity="1" fill-rule="nonzero"/><path fill="#19055b" d="M 333.714844 130.859375 C 333.359375 130.859375 333.027344 130.679688 332.835938 130.378906 L 326.035156 119.695312 C 325.835938 119.382812 325.816406 118.988281 325.984375 118.65625 C 326.152344 118.328125 326.480469 118.113281 326.851562 118.089844 L 341.300781 117.21875 C 341.691406 117.191406 342.039062 117.378906 342.242188 117.699219 L 349.042969 128.382812 C 349.242188 128.695312 349.261719 129.089844 349.09375 129.417969 C 348.925781 129.75 348.597656 129.964844 348.226562 129.988281 L 333.777344 130.859375 C 333.757812 130.859375 333.734375 130.859375 333.714844 130.859375 Z M 328.746094 120.066406 L 334.265625 128.738281 L 346.332031 128.007812 L 340.8125 119.339844 Z M 328.746094 120.066406 " fill-opacity="1" fill-rule="nonzero"/><path fill="#f28a8d" d="M 51.59375 123.632812 C 50.308594 123.632812 49.097656 123.132812 48.1875 122.21875 C 47.121094 121.152344 45.386719 121.152344 44.320312 122.21875 C 43.410156 123.132812 42.199219 123.632812 40.914062 123.632812 C 39.628906 123.632812 38.417969 123.132812 37.507812 122.21875 C 36.441406 121.152344 34.707031 121.152344 33.640625 122.21875 C 32.730469 123.132812 31.519531 123.632812 30.234375 123.632812 C 28.945312 123.632812 27.738281 123.132812 26.828125 122.21875 C 25.792969 121.1875 23.996094 121.183594 22.960938 122.21875 C 22.554688 122.628906 21.894531 122.628906 21.488281 122.21875 C 21.078125 121.8125 21.078125 121.152344 21.488281 120.742188 C 23.363281 118.859375 26.421875 118.859375 28.300781 120.742188 C 29.332031 121.777344 31.132812 121.777344 32.167969 120.742188 C 34.046875 118.859375 37.101562 118.859375 38.980469 120.742188 C 40.011719 121.777344 41.8125 121.777344 42.847656 120.742188 C 43.757812 119.832031 44.96875 119.328125 46.253906 119.328125 C 47.542969 119.328125 48.75 119.832031 49.660156 120.742188 C 50.695312 121.777344 52.496094 121.777344 53.527344 120.742188 C 55.40625 118.859375 58.464844 118.859375 60.339844 120.742188 C 60.75 121.152344 60.75 121.8125 60.339844 122.21875 C 59.933594 122.628906 59.273438 122.628906 58.867188 122.21875 C 57.835938 121.1875 56.035156 121.1875 55 122.21875 C 54.089844 123.132812 52.882812 123.632812 51.59375 123.632812 Z M 51.59375 123.632812 " fill-opacity="1" fill-rule="nonzero"/><path fill="#f28a8d" d="M 58.03125 132.054688 C 56.742188 132.054688 55.53125 131.554688 54.621094 130.640625 C 53.558594 129.574219 51.824219 129.574219 50.757812 130.640625 C 49.847656 131.554688 48.636719 132.054688 47.351562 132.054688 C 46.0625 132.054688 44.851562 131.554688 43.941406 130.640625 C 42.875 129.574219 41.140625 129.574219 40.078125 130.640625 C 39.164062 131.554688 37.957031 132.054688 36.667969 132.054688 C 35.382812 132.054688 34.171875 131.554688 33.261719 130.640625 C 32.195312 129.574219 30.460938 129.574219 29.394531 130.640625 C 28.988281 131.050781 28.328125 131.050781 27.921875 130.640625 C 27.515625 130.234375 27.515625 129.574219 27.921875 129.164062 C 29.800781 127.285156 32.855469 127.28125 34.738281 129.164062 C 35.769531 130.199219 37.570312 130.199219 38.601562 129.164062 C 40.480469 127.285156 43.535156 127.28125 45.417969 129.164062 C 46.449219 130.199219 48.25 130.199219 49.28125 129.164062 C 51.160156 127.285156 54.21875 127.28125 56.097656 129.164062 C 57.128906 130.199219 58.929688 130.199219 59.960938 129.164062 C 60.371094 128.757812 61.03125 128.757812 61.4375 129.164062 C 61.84375 129.574219 61.84375 130.234375 61.4375 130.640625 C 60.527344 131.554688 59.316406 132.054688 58.03125 132.054688 Z M 58.03125 132.054688 " fill-opacity="1" fill-rule="nonzero"/><path fill="#f28a8d" d="M 340.917969 174.675781 C 339.628906 174.675781 338.421875 174.175781 337.511719 173.261719 C 336.476562 172.230469 334.675781 172.230469 333.644531 173.261719 C 332.734375 174.175781 331.523438 174.675781 330.238281 174.675781 C 328.949219 174.675781 327.738281 174.175781 326.828125 173.261719 C 325.796875 172.230469 323.996094 172.230469 322.964844 173.261719 C 322.054688 174.175781 320.84375 174.675781 319.558594 174.675781 C 318.269531 174.675781 317.058594 174.175781 316.148438 173.261719 C 315.117188 172.230469 313.316406 172.230469 312.285156 173.261719 C 311.875 173.671875 311.214844 173.671875 310.808594 173.261719 C 310.402344 172.855469 310.402344 172.195312 310.808594 171.785156 C 312.6875 169.902344 315.746094 169.902344 317.625 171.785156 C 318.65625 172.820312 320.457031 172.820312 321.488281 171.785156 C 323.367188 169.902344 326.425781 169.902344 328.304688 171.785156 C 329.335938 172.820312 331.136719 172.820312 332.171875 171.785156 C 334.046875 169.902344 337.105469 169.902344 338.984375 171.785156 C 340.015625 172.820312 341.816406 172.820312 342.851562 171.785156 C 344.726562 169.90625 347.785156 169.902344 349.664062 171.785156 C 350.070312 172.195312 350.070312 172.855469 349.664062 173.261719 C 349.257812 173.671875 348.597656 173.671875 348.191406 173.261719 C 347.125 172.195312 345.390625 172.195312 344.324219 173.261719 C 343.414062 174.175781 342.203125 174.675781 340.917969 174.675781 Z M 340.917969 174.675781 " fill-opacity="1" fill-rule="nonzero"/><path fill="#f28a8d" d="M 316.886719 183.097656 C 315.597656 183.097656 314.390625 182.597656 313.480469 181.683594 C 313.074219 181.277344 313.074219 180.617188 313.480469 180.207031 C 313.886719 179.800781 314.546875 179.800781 314.953125 180.207031 C 315.984375 181.242188 317.785156 181.242188 318.820312 180.207031 C 320.699219 178.328125 323.753906 178.328125 325.632812 180.207031 C 326.699219 181.277344 328.433594 181.277344 329.5 180.207031 C 331.378906 178.328125 334.4375 178.328125 336.3125 180.207031 C 337.378906 181.277344 339.113281 181.277344 340.179688 180.207031 C 342.058594 178.328125 345.113281 178.324219 346.996094 180.207031 C 347.402344 180.617188 347.402344 181.277344 346.996094 181.683594 C 346.585938 182.09375 345.925781 182.09375 345.519531 181.683594 C 344.453125 180.617188 342.71875 180.617188 341.652344 181.683594 C 339.777344 183.566406 336.71875 183.566406 334.839844 181.683594 C 333.773438 180.617188 332.039062 180.617188 330.972656 181.683594 C 329.09375 183.566406 326.039062 183.566406 324.160156 181.683594 C 323.09375 180.617188 321.359375 180.617188 320.292969 181.683594 C 319.382812 182.597656 318.171875 183.097656 316.886719 183.097656 Z M 316.886719 183.097656 " fill-opacity="1" fill-rule="nonzero"/><path fill="#ffffff" d="M 341.171875 206.625 C 341.171875 206.90625 341.144531 207.1875 341.089844 207.464844 C 341.035156 207.742188 340.953125 208.011719 340.84375 208.273438 C 340.738281 208.535156 340.605469 208.785156 340.445312 209.019531 C 340.289062 209.257812 340.113281 209.472656 339.910156 209.675781 C 339.710938 209.875 339.496094 210.054688 339.257812 210.210938 C 339.023438 210.367188 338.777344 210.5 338.515625 210.609375 C 338.253906 210.71875 337.984375 210.800781 337.707031 210.855469 C 337.429688 210.910156 337.152344 210.9375 336.867188 210.9375 C 336.585938 210.9375 336.304688 210.910156 336.027344 210.855469 C 335.75 210.800781 335.484375 210.71875 335.222656 210.609375 C 334.960938 210.5 334.710938 210.367188 334.476562 210.210938 C 334.242188 210.054688 334.023438 209.875 333.824219 209.675781 C 333.625 209.472656 333.445312 209.257812 333.289062 209.019531 C 333.132812 208.785156 333 208.535156 332.890625 208.273438 C 332.785156 208.011719 332.703125 207.742188 332.648438 207.464844 C 332.59375 207.1875 332.566406 206.90625 332.566406 206.625 C 332.566406 206.34375 332.59375 206.0625 332.648438 205.785156 C 332.703125 205.507812 332.785156 205.238281 332.890625 204.976562 C 333 204.714844 333.132812 204.464844 333.289062 204.230469 C 333.445312 203.992188 333.625 203.777344 333.824219 203.574219 C 334.023438 203.375 334.242188 203.195312 334.476562 203.039062 C 334.710938 202.882812 334.960938 202.75 335.222656 202.640625 C 335.484375 202.53125 335.75 202.453125 336.027344 202.394531 C 336.304688 202.339844 336.585938 202.3125 336.867188 202.3125 C 337.152344 202.3125 337.429688 202.339844 337.707031 202.394531 C 337.984375 202.453125 338.253906 202.53125 338.515625 202.640625 C 338.777344 202.75 339.023438 202.882812 339.257812 203.039062 C 339.496094 203.195312 339.710938 203.375 339.910156 203.574219 C 340.113281 203.777344 340.289062 203.992188 340.445312 204.230469 C 340.605469 204.464844 340.738281 204.714844 340.84375 204.976562 C 340.953125 205.238281 341.035156 205.507812 341.089844 205.785156 C 341.144531 206.0625 341.171875 206.34375 341.171875 206.625 Z M 341.171875 206.625 " fill-opacity="1" fill-rule="nonzero"/><path fill="#ec8f3c" d="M 336.867188 211.980469 C 333.921875 211.980469 331.523438 209.578125 331.523438 206.625 C 331.523438 203.671875 333.921875 201.269531 336.867188 201.269531 C 339.816406 201.269531 342.214844 203.671875 342.214844 206.625 C 342.214844 209.578125 339.816406 211.980469 336.867188 211.980469 Z M 336.867188 203.359375 C 335.070312 203.359375 333.605469 204.824219 333.605469 206.625 C 333.605469 208.425781 335.070312 209.890625 336.867188 209.890625 C 338.667969 209.890625 340.128906 208.425781 340.128906 206.625 C 340.128906 204.824219 338.667969 203.359375 336.867188 203.359375 Z M 336.867188 203.359375 " fill-opacity="1" fill-rule="nonzero"/><path fill="#ec8f3c" d="M 45.421875 211.257812 C 42.472656 211.257812 40.074219 208.855469 40.074219 205.902344 C 40.074219 202.949219 42.472656 200.546875 45.421875 200.546875 C 48.367188 200.546875 50.765625 202.949219 50.765625 205.902344 C 50.765625 208.855469 48.367188 211.257812 45.421875 211.257812 Z M 45.421875 202.632812 C 43.625 202.632812 42.160156 204.097656 42.160156 205.902344 C 42.160156 207.703125 43.625 209.167969 45.421875 209.167969 C 47.21875 209.167969 48.683594 207.703125 48.683594 205.902344 C 48.683594 204.097656 47.21875 202.632812 45.421875 202.632812 Z M 45.421875 202.632812 " fill-opacity="1" fill-rule="nonzero"/><path fill="#ffffff" d="M 260.480469 104.246094 L 184.34375 104.246094 C 180.480469 104.246094 177.347656 107.382812 177.347656 111.253906 C 177.347656 115.125 180.480469 118.261719 184.34375 118.261719 L 260.480469 118.261719 C 264.34375 118.261719 267.476562 115.125 267.476562 111.253906 C 267.476562 107.382812 264.34375 104.246094 260.480469 104.246094 Z M 260.480469 104.246094 " fill-opacity="1" fill-rule="nonzero"/><path fill="#19055b" d="M 260.480469 119.304688 L 184.34375 119.304688 C 179.910156 119.304688 176.308594 115.691406 176.308594 111.253906 C 176.308594 106.8125 179.910156 103.203125 184.34375 103.203125 L 260.480469 103.203125 C 264.910156 103.203125 268.515625 106.8125 268.515625 111.253906 C 268.515625 115.691406 264.910156 119.304688 260.480469 119.304688 Z M 184.34375 105.289062 C 181.0625 105.289062 178.390625 107.964844 178.390625 111.253906 C 178.390625 114.542969 181.0625 117.214844 184.34375 117.214844 L 260.480469 117.214844 C 263.761719 117.214844 266.433594 114.542969 266.433594 111.253906 C 266.433594 107.964844 263.761719 105.289062 260.480469 105.289062 Z M 184.34375 105.289062 " fill-opacity="1" fill-rule="nonzero"/><path fill="#ffffff" d="M 181.011719 237.921875 L 218.753906 237.921875 L 218.753906 262.984375 L 181.011719 262.984375 Z M 181.011719 237.921875 " fill-opacity="1" fill-rule="nonzero"/><path fill="#19055b" d="M 218.757812 264.027344 L 181.011719 264.027344 C 180.433594 264.027344 179.96875 263.558594 179.96875 262.984375 L 179.96875 237.921875 C 179.96875 237.347656 180.433594 236.878906 181.011719 236.878906 L 218.757812 236.878906 C 219.332031 236.878906 219.796875 237.347656 219.796875 237.921875 L 219.796875 262.984375 C 219.796875 263.558594 219.332031 264.027344 218.757812 264.027344 Z M 182.054688 261.941406 L 217.714844 261.941406 L 217.714844 238.964844 L 182.054688 238.964844 Z M 182.054688 261.941406 " fill-opacity="1" fill-rule="nonzero"/><path fill="#f6bd3b" d="M 178.484375 262.984375 L 222.925781 262.984375 L 222.925781 268.777344 L 178.484375 268.777344 Z M 178.484375 262.984375 " fill-opacity="1" fill-rule="nonzero"/><path fill="#19055b" d="M 222.925781 269.820312 L 178.484375 269.820312 C 177.910156 269.820312 177.441406 269.355469 177.441406 268.777344 L 177.441406 262.984375 C 177.441406 262.40625 177.910156 261.941406 178.484375 261.941406 L 222.925781 261.941406 C 223.5 261.941406 223.96875 262.40625 223.96875 262.984375 L 223.96875 268.777344 C 223.96875 269.355469 223.5 269.820312 222.925781 269.820312 Z M 179.527344 267.734375 L 221.882812 267.734375 L 221.882812 264.027344 L 179.527344 264.027344 Z M 179.527344 267.734375 " fill-opacity="1" fill-rule="nonzero"/><path fill="#f6bd3b" d="M 236.085938 244.75 L 222.925781 244.75 L 222.925781 268.777344 L 243.933594 268.777344 L 243.933594 252.609375 C 240.871094 249.539062 239.152344 247.820312 236.085938 244.75 Z M 236.085938 244.75 " fill-opacity="1" fill-rule="nonzero"/><path fill="#19055b" d="M 243.933594 269.820312 L 222.925781 269.820312 C 222.351562 269.820312 221.882812 269.355469 221.882812 268.777344 L 221.882812 244.75 C 221.882812 244.171875 222.351562 243.703125 222.925781 243.703125 L 236.132812 243.703125 C 236.410156 243.703125 236.675781 243.816406 236.871094 244.011719 L 244.671875 251.824219 C 244.867188 252.019531 244.976562 252.289062 244.976562 252.5625 L 244.976562 268.777344 C 244.976562 269.355469 244.507812 269.820312 243.933594 269.820312 Z M 223.96875 267.734375 L 242.890625 267.734375 L 242.890625 252.996094 L 235.703125 245.792969 L 223.96875 245.792969 Z M 223.96875 267.734375 " fill-opacity="1" fill-rule="nonzero"/><path fill="#ec8f3c" d="M 227.09375 257.59375 L 227.09375 248.925781 L 234.40625 248.925781 L 239.765625 254.292969 L 239.765625 257.59375 Z M 227.09375 257.59375 " fill-opacity="1" fill-rule="nonzero"/><path fill="#19055b" d="M 239.765625 258.636719 L 227.09375 258.636719 C 226.519531 258.636719 226.050781 258.171875 226.050781 257.59375 L 226.050781 248.925781 C 226.050781 248.347656 226.519531 247.882812 227.09375 247.882812 L 234.40625 247.882812 C 234.683594 247.882812 234.949219 247.992188 235.144531 248.1875 L 240.5 253.554688 C 240.695312 253.75 240.808594 254.015625 240.808594 254.292969 L 240.808594 257.59375 C 240.808594 258.171875 240.339844 258.636719 239.765625 258.636719 Z M 228.136719 256.550781 L 238.722656 256.550781 L 238.722656 254.726562 L 233.976562 249.96875 L 228.136719 249.96875 Z M 228.136719 256.550781 " fill-opacity="1" fill-rule="nonzero"/><path fill="#ec8f3c" d="M 234.296875 268.777344 C 234.296875 269.1875 234.21875 269.582031 234.058594 269.964844 C 233.902344 270.34375 233.679688 270.679688 233.390625 270.96875 C 233.101562 271.257812 232.765625 271.484375 232.386719 271.640625 C 232.007812 271.796875 231.613281 271.875 231.203125 271.875 C 230.792969 271.875 230.398438 271.796875 230.019531 271.640625 C 229.640625 271.484375 229.304688 271.257812 229.015625 270.96875 C 228.726562 270.679688 228.503906 270.34375 228.34375 269.964844 C 228.1875 269.582031 228.109375 269.1875 228.109375 268.777344 C 228.109375 268.367188 228.1875 267.972656 228.34375 267.589844 C 228.503906 267.210938 228.726562 266.875 229.015625 266.585938 C 229.304688 266.296875 229.640625 266.070312 230.019531 265.914062 C 230.398438 265.757812 230.792969 265.679688 231.203125 265.679688 C 231.613281 265.679688 232.007812 265.757812 232.386719 265.914062 C 232.765625 266.070312 233.101562 266.296875 233.390625 266.585938 C 233.679688 266.875 233.902344 267.210938 234.058594 267.589844 C 234.21875 267.972656 234.296875 268.367188 234.296875 268.777344 Z M 234.296875 268.777344 " fill-opacity="1" fill-rule="nonzero"/><path fill="#19055b" d="M 231.203125 272.921875 C 228.921875 272.921875 227.066406 271.0625 227.066406 268.777344 C 227.066406 266.492188 228.921875 264.632812 231.203125 264.632812 C 233.484375 264.632812 235.335938 266.492188 235.335938 268.777344 C 235.335938 271.0625 233.484375 272.921875 231.203125 272.921875 Z M 231.203125 266.722656 C 230.070312 266.722656 229.152344 267.644531 229.152344 268.777344 C 229.152344 269.910156 230.070312 270.832031 231.203125 270.832031 C 232.332031 270.832031 233.253906 269.910156 233.253906 268.777344 C 233.253906 267.644531 232.332031 266.722656 231.203125 266.722656 Z M 231.203125 266.722656 " fill-opacity="1" fill-rule="nonzero"/><path fill="#ec8f3c" d="M 215.078125 268.777344 C 215.078125 269.1875 215 269.582031 214.84375 269.964844 C 214.6875 270.34375 214.464844 270.679688 214.171875 270.96875 C 213.882812 271.257812 213.546875 271.484375 213.167969 271.640625 C 212.789062 271.796875 212.394531 271.875 211.984375 271.875 C 211.574219 271.875 211.179688 271.796875 210.800781 271.640625 C 210.421875 271.484375 210.089844 271.257812 209.796875 270.96875 C 209.507812 270.679688 209.285156 270.34375 209.128906 269.964844 C 208.972656 269.582031 208.894531 269.1875 208.894531 268.777344 C 208.894531 268.367188 208.972656 267.972656 209.128906 267.589844 C 209.285156 267.210938 209.507812 266.875 209.796875 266.585938 C 210.089844 266.296875 210.421875 266.070312 210.800781 265.914062 C 211.179688 265.757812 211.574219 265.679688 211.984375 265.679688 C 212.394531 265.679688 212.789062 265.757812 213.167969 265.914062 C 213.546875 266.070312 213.882812 266.296875 214.171875 266.585938 C 214.464844 266.875 214.6875 267.210938 214.84375 267.589844 C 215 267.972656 215.078125 268.367188 215.078125 268.777344 Z M 215.078125 268.777344 " fill-opacity="1" fill-rule="nonzero"/><path fill="#19055b" d="M 211.984375 272.921875 C 209.707031 272.921875 207.851562 271.0625 207.851562 268.777344 C 207.851562 266.492188 209.707031 264.632812 211.984375 264.632812 C 214.265625 264.632812 216.121094 266.492188 216.121094 268.777344 C 216.121094 271.0625 214.265625 272.921875 211.984375 272.921875 Z M 211.984375 266.722656 C 210.855469 266.722656 209.933594 267.644531 209.933594 268.777344 C 209.933594 269.910156 210.855469 270.832031 211.984375 270.832031 C 213.117188 270.832031 214.035156 269.910156 214.035156 268.777344 C 214.035156 267.644531 213.117188 266.722656 211.984375 266.722656 Z M 211.984375 266.722656 " fill-opacity="1" fill-rule="nonzero"/><path fill="#ec8f3c" d="M 190.207031 268.777344 C 190.207031 269.1875 190.128906 269.582031 189.972656 269.964844 C 189.816406 270.34375 189.589844 270.679688 189.300781 270.96875 C 189.011719 271.257812 188.675781 271.484375 188.296875 271.640625 C 187.917969 271.796875 187.523438 271.875 187.113281 271.875 C 186.703125 271.875 186.308594 271.796875 185.929688 271.640625 C 185.550781 271.484375 185.21875 271.257812 184.925781 270.96875 C 184.636719 270.679688 184.414062 270.34375 184.257812 269.964844 C 184.097656 269.582031 184.019531 269.1875 184.019531 268.777344 C 184.019531 268.367188 184.097656 267.972656 184.257812 267.589844 C 184.414062 267.210938 184.636719 266.875 184.925781 266.585938 C 185.21875 266.296875 185.550781 266.070312 185.929688 265.914062 C 186.308594 265.757812 186.703125 265.679688 187.113281 265.679688 C 187.523438 265.679688 187.917969 265.757812 188.296875 265.914062 C 188.675781 266.070312 189.011719 266.296875 189.300781 266.585938 C 189.589844 266.875 189.816406 267.210938 189.972656 267.589844 C 190.128906 267.972656 190.207031 268.367188 190.207031 268.777344 Z M 190.207031 268.777344 " fill-opacity="1" fill-rule="nonzero"/><path fill="#19055b" d="M 187.113281 272.921875 C 184.835938 272.921875 182.980469 271.0625 182.980469 268.777344 C 182.980469 266.492188 184.835938 264.632812 187.113281 264.632812 C 189.394531 264.632812 191.25 266.492188 191.25 268.777344 C 191.25 271.0625 189.394531 272.921875 187.113281 272.921875 Z M 187.113281 266.722656 C 185.984375 266.722656 185.0625 267.644531 185.0625 268.777344 C 185.0625 269.910156 185.984375 270.832031 187.113281 270.832031 C 188.246094 270.832031 189.164062 269.910156 189.164062 268.777344 C 189.164062 267.644531 188.246094 266.722656 187.113281 266.722656 Z M 187.113281 266.722656 " fill-opacity="1" fill-rule="nonzero"/><path fill="#19055b" d="M 302.5625 268.117188 L 258 268.117188 C 257.425781 268.117188 256.957031 267.648438 256.957031 267.074219 C 256.957031 266.496094 257.425781 266.03125 258 266.03125 L 302.5625 266.03125 C 303.136719 266.03125 303.601562 266.496094 303.601562 267.074219 C 303.601562 267.648438 303.136719 268.117188 302.5625 268.117188 Z M 302.5625 268.117188 " fill-opacity="1" fill-rule="nonzero"/><path fill="#19055b" d="M 287.949219 240.488281 L 258 240.488281 C 257.425781 240.488281 256.957031 240.023438 256.957031 239.445312 C 256.957031 238.871094 257.425781 238.402344 258 238.402344 L 287.949219 238.402344 C 288.527344 238.402344 288.992188 238.871094 288.992188 239.445312 C 288.992188 240.023438 288.527344 240.488281 287.949219 240.488281 Z M 287.949219 240.488281 " fill-opacity="1" fill-rule="nonzero"/><path fill="#19055b" d="M 279.21875 248 L 258 248 C 257.425781 248 256.957031 247.53125 256.957031 246.957031 C 256.957031 246.378906 257.425781 245.910156 258 245.910156 L 279.21875 245.910156 C 279.796875 245.910156 280.261719 246.378906 280.261719 246.957031 C 280.261719 247.53125 279.796875 248 279.21875 248 Z M 279.21875 248 " fill-opacity="1" fill-rule="nonzero"/><path fill="#19055b" d="M 275.730469 255.511719 L 258 255.511719 C 257.425781 255.511719 256.957031 255.042969 256.957031 254.464844 C 256.957031 253.890625 257.425781 253.421875 258 253.421875 L 275.730469 253.421875 C 276.304688 253.421875 276.769531 253.890625 276.769531 254.464844 C 276.769531 255.042969 276.304688 255.511719 275.730469 255.511719 Z M 275.730469 255.511719 " fill-opacity="1" fill-rule="nonzero"/><path fill="#ffffff" d="M 63.71875 281.273438 C 63.71875 281.875 63.660156 282.472656 63.542969 283.0625 C 63.425781 283.652344 63.25 284.226562 63.023438 284.78125 C 62.792969 285.335938 62.511719 285.867188 62.175781 286.367188 C 61.84375 286.867188 61.464844 287.328125 61.039062 287.753906 C 60.613281 288.179688 60.152344 288.5625 59.652344 288.894531 C 59.152344 289.230469 58.625 289.511719 58.070312 289.742188 C 57.515625 289.972656 56.945312 290.144531 56.355469 290.261719 C 55.765625 290.382812 55.171875 290.441406 54.570312 290.441406 C 53.96875 290.441406 53.375 290.382812 52.785156 290.261719 C 52.195312 290.144531 51.625 289.972656 51.070312 289.742188 C 50.515625 289.511719 49.988281 289.230469 49.488281 288.894531 C 48.988281 288.5625 48.527344 288.179688 48.101562 287.753906 C 47.675781 287.328125 47.296875 286.867188 46.964844 286.367188 C 46.628906 285.867188 46.347656 285.335938 46.117188 284.78125 C 45.886719 284.226562 45.714844 283.652344 45.597656 283.0625 C 45.480469 282.472656 45.421875 281.875 45.421875 281.273438 C 45.421875 280.671875 45.480469 280.074219 45.597656 279.484375 C 45.714844 278.894531 45.886719 278.324219 46.117188 277.765625 C 46.347656 277.210938 46.628906 276.683594 46.964844 276.183594 C 47.296875 275.679688 47.675781 275.21875 48.101562 274.792969 C 48.527344 274.367188 48.988281 273.988281 49.488281 273.652344 C 49.988281 273.320312 50.515625 273.035156 51.070312 272.804688 C 51.625 272.574219 52.195312 272.402344 52.785156 272.285156 C 53.375 272.167969 53.96875 272.109375 54.570312 272.109375 C 55.171875 272.109375 55.765625 272.167969 56.355469 272.285156 C 56.945312 272.402344 57.515625 272.574219 58.070312 272.804688 C 58.625 273.035156 59.152344 273.320312 59.652344 273.652344 C 60.152344 273.988281 60.613281 274.367188 61.039062 274.792969 C 61.464844 275.21875 61.84375 275.679688 62.175781 276.183594 C 62.511719 276.683594 62.792969 277.210938 63.023438 277.765625 C 63.25 278.324219 63.425781 278.894531 63.542969 279.484375 C 63.660156 280.074219 63.71875 280.671875 63.71875 281.273438 Z M 63.71875 281.273438 " fill-opacity="1" fill-rule="nonzero"/><path fill="#19055b" d="M 54.570312 291.484375 C 48.949219 291.484375 44.378906 286.902344 44.378906 281.273438 C 44.378906 275.644531 48.949219 271.0625 54.570312 271.0625 C 60.1875 271.0625 64.761719 275.644531 64.761719 281.273438 C 64.761719 286.902344 60.1875 291.484375 54.570312 291.484375 Z M 54.570312 273.152344 C 50.101562 273.152344 46.464844 276.796875 46.464844 281.273438 C 46.464844 285.75 50.101562 289.394531 54.570312 289.394531 C 59.039062 289.394531 62.675781 285.75 62.675781 281.273438 C 62.675781 276.796875 59.039062 273.152344 54.570312 273.152344 Z M 54.570312 273.152344 " fill-opacity="1" fill-rule="nonzero"/><path fill="#ec8f3c" d="M 47.269531 283.035156 L 30.921875 282.253906 L 22.964844 267.925781 L 39.3125 268.707031 Z M 47.269531 283.035156 " fill-opacity="1" fill-rule="nonzero"/><path fill="#19055b" d="M 47.269531 284.078125 C 47.25 284.078125 47.234375 284.078125 47.21875 284.078125 L 30.871094 283.296875 C 30.511719 283.28125 30.183594 283.078125 30.007812 282.761719 L 22.054688 268.433594 C 21.867188 268.101562 21.878906 267.695312 22.078125 267.375 C 22.277344 267.050781 22.640625 266.867188 23.011719 266.882812 L 39.359375 267.664062 C 39.722656 267.679688 40.046875 267.882812 40.222656 268.199219 L 48.179688 282.527344 C 48.363281 282.859375 48.351562 283.265625 48.152344 283.585938 C 47.960938 283.894531 47.628906 284.078125 47.269531 284.078125 Z M 31.550781 281.238281 L 45.445312 281.902344 L 38.683594 269.722656 L 24.785156 269.058594 Z M 31.550781 281.238281 " fill-opacity="1" fill-rule="nonzero"/><path fill="#f6bd3b" d="M 47.269531 283.035156 L 57.144531 267.089844 L 49.1875 252.761719 L 39.3125 268.707031 Z M 47.269531 283.035156 " fill-opacity="1" fill-rule="nonzero"/><path fill="#19055b" d="M 47.269531 284.078125 C 47.257812 284.078125 47.25 284.078125 47.242188 284.078125 C 46.875 284.070312 46.535156 283.867188 46.355469 283.542969 L 38.402344 269.214844 C 38.214844 268.882812 38.226562 268.476562 38.425781 268.15625 L 48.300781 252.210938 C 48.496094 251.894531 48.8125 251.71875 49.210938 251.71875 C 49.582031 251.726562 49.917969 251.929688 50.097656 252.253906 L 58.054688 266.582031 C 58.238281 266.914062 58.226562 267.320312 58.027344 267.640625 L 48.152344 283.585938 C 47.964844 283.894531 47.628906 284.078125 47.269531 284.078125 Z M 40.519531 268.734375 L 47.316406 280.976562 L 55.933594 267.0625 L 49.136719 254.820312 Z M 40.519531 268.734375 " fill-opacity="1" fill-rule="nonzero"/><path fill="#ffffff" d="M 22.964844 267.925781 L 32.839844 251.980469 L 49.1875 252.761719 L 39.3125 268.707031 Z M 22.964844 267.925781 " fill-opacity="1" fill-rule="nonzero"/><path fill="#19055b" d="M 39.3125 269.75 C 39.292969 269.75 39.277344 269.75 39.261719 269.75 L 22.914062 268.96875 C 22.546875 268.949219 22.214844 268.738281 22.039062 268.410156 C 21.867188 268.082031 21.882812 267.6875 22.078125 267.375 L 31.953125 251.429688 C 32.152344 251.109375 32.515625 250.921875 32.890625 250.9375 L 49.234375 251.71875 C 49.605469 251.734375 49.9375 251.949219 50.109375 252.273438 C 50.28125 252.601562 50.265625 252.996094 50.070312 253.3125 L 40.195312 269.257812 C 40.007812 269.566406 39.671875 269.75 39.3125 269.75 Z M 24.785156 266.964844 L 38.75 267.632812 L 47.367188 253.71875 L 33.402344 253.054688 Z M 24.785156 266.964844 " fill-opacity="1" fill-rule="nonzero"/></svg>